<svg width="75" height="54" viewBox="0 0 75 54" fill="none" xmlns="http://www.w3.org/2000/svg">
<path d="M63.4931 2.80078H11.7656V37.9637H63.4931V2.80078Z" fill="#54BEDE"/>
<path d="M25.5648 37.9637H21.515L15.0391 2.80078H19.0977L25.5648 37.9637Z" fill="#ABF1FF"/>
<path d="M28.7938 37.9637H27.0812L20.623 2.80078H22.3268L28.7938 37.9637Z" fill="#ABF1FF"/>
<path d="M8.91116 39.953V40.8361L7.99239 43.3962L0 50.4163V51.5313L37.6249 52.7444L75 51.2726V50.4163L66.5527 42.7539L66.0889 40.8361V39.953L37.0183 37.9639L8.91116 39.953Z" fill="#474747"/>
<path d="M39.5422 0.419922H35.6709V3.04243H39.5422V0.419922Z" fill="#FFC000"/>
<path d="M39.543 0.419922H37.6787V3.04243H39.543V0.419922Z" fill="#E28D00"/>
<path d="M66.0888 3.19339C66.0888 1.42721 64.6616 0 62.8954 0H12.1045C10.3383 0 8.91113 1.42721 8.91113 3.19339V39.953H66.0888V3.19339ZM37.5 0.677921C38.0441 0.677921 38.4901 1.12393 38.4901 1.66805C38.4901 2.21217 38.0441 2.65818 37.5 2.65818C36.9558 2.65818 36.5098 2.21217 36.5098 1.66805C36.5098 1.12393 36.9469 0.677921 37.5 0.677921ZM62.494 36.6615H12.497V3.78212C12.497 3.50559 12.72 3.28258 12.9965 3.28258H61.9945C62.271 3.28258 62.494 3.50559 62.494 3.78212V36.6615Z" fill="#8F8F8F"/>
<path d="M75 51.2725H0V53.7076H75V51.2725Z" fill="#FFC000"/>
<path d="M66.0889 40.8359H8.91116L0 50.4161H75L66.0889 40.8359ZM10.7755 42.1026H64.2246L67.7926 45.8936H7.21635L10.7755 42.1026ZM31.3808 49.3279L32.1034 46.6429H42.8967L43.6192 49.3279H31.3808Z" fill="#8F8F8F"/>
<path d="M63.4845 2.80078H37.6787V37.9637H63.4845V2.80078Z" fill="#287BA1"/>
<path d="M66.553 42.7543L66.0892 40.8365V39.9534L37.6787 38.0088V52.7448L75.0003 51.2729V50.4166L66.553 42.7543Z" fill="#454545"/>
<path d="M62.8958 0H37.6787V0.713609C38.1336 0.80281 38.4904 1.18637 38.4904 1.66805C38.4904 2.14973 38.1426 2.5333 37.6787 2.6225V3.28258H61.9948C62.2714 3.28258 62.4944 3.50559 62.4944 3.78212V36.6615H37.6787V39.9441H66.0892V3.19339C66.0892 1.42721 64.653 0 62.8958 0Z" fill="#666666"/>
<path d="M75.0003 51.2725H37.6787V53.7076H75.0003V51.2725Z" fill="#E28D00"/>
<path d="M37.6787 42.1026H64.2249L67.784 45.8936H37.6787V46.6429H42.897L43.6106 49.3279H37.6787V50.4161H75.0003L66.0892 40.8359H37.6787V42.1026Z" fill="#666666"/>
</svg>
