<svg width="103" height="100" viewBox="0 0 103 100" fill="none" xmlns="http://www.w3.org/2000/svg">
<ellipse cx="51.5" cy="50" rx="51.5" ry="50" fill="white"/>
<path d="M37.7002 22.8368C37.7446 22.6253 37.794 22.4152 37.8486 22.2061" stroke="#800080" stroke-width="1.0639" stroke-miterlimit="10" stroke-linecap="round"/>
<path d="M38.2383 20.9623C39.0768 18.6801 40.5268 16.6217 42.4094 15.0813C44.7956 13.1288 47.8605 12.0224 50.9436 12.0003C54.2934 11.9763 57.8638 13.4416 59.4137 16.4111C60.6645 18.8071 60.3296 21.9401 58.6008 24.0176C57.9886 24.7534 57.1893 25.375 56.2544 25.5805C55.3194 25.7862 54.2437 25.5047 53.6729 24.7364C52.8322 23.6049 53.4725 21.8004 54.7462 21.1968C56.02 20.5933 57.6171 21.0429 58.6397 22.0131C59.6623 22.9833 60.1873 24.3751 60.434 25.7629C60.9607 28.7273 60.3174 31.8835 58.6726 34.4053C57.2647 36.5637 55.1358 38.2381 52.7173 39.1227" stroke="#800080" stroke-width="1.0639" stroke-miterlimit="10" stroke-linecap="round" stroke-dasharray="6.14 6.14"/>
<path d="M52.0986 39.3301C51.8921 39.3929 51.6836 39.45 51.4736 39.5012" stroke="#800080" stroke-width="1.0639" stroke-miterlimit="10" stroke-linecap="round"/>
<path d="M41.5326 56.9355C41.3375 56.8477 41.1405 56.7646 40.9414 56.6865" stroke="#800080" stroke-width="1.0534" stroke-miterlimit="10" stroke-linecap="round"/>
<path d="M39.7187 56.2736C37.4034 55.6138 34.9104 55.5737 32.5799 56.1821C29.6258 56.9531 26.953 58.7604 25.1375 61.2149C23.1649 63.8816 22.2552 67.5933 23.7276 70.5656C24.9156 72.9639 27.6181 74.523 30.289 74.351C31.2348 74.2901 32.1984 74.0131 32.9081 73.3847C33.6178 72.7565 34.0201 71.7313 33.7381 70.8265C33.3229 69.494 31.5054 68.9539 30.2795 69.6213C29.0537 70.2888 28.4822 71.829 28.6622 73.2131C28.8422 74.5973 29.65 75.829 30.6168 76.8357C32.682 78.986 35.583 80.3118 38.5602 80.4661C41.1085 80.5982 43.6898 79.8709 45.8083 78.4515" stroke="#800080" stroke-width="1.0534" stroke-miterlimit="10" stroke-linecap="round" stroke-dasharray="6.08 6.08"/>
<path d="M46.335 78.0771C46.5056 77.9485 46.6729 77.815 46.8362 77.6768" stroke="#800080" stroke-width="1.0534" stroke-miterlimit="10" stroke-linecap="round"/>
<path d="M45.1322 24.8257L43.7792 22.5601C44.6851 21.8699 45.4014 20.9099 45.7905 19.7479C46.8214 16.6681 45.1663 13.3379 42.0936 12.3091C42.0083 12.2804 41.9225 12.2547 41.8367 12.2303C41.8155 12.2244 41.7945 12.2184 41.7733 12.2125C41.6877 12.1891 41.6022 12.1671 41.5164 12.1477C41.5141 12.1473 41.5119 12.1469 41.5096 12.1463C41.4255 12.1274 41.3417 12.1112 41.2576 12.0962C41.2364 12.0923 41.2151 12.0887 41.1939 12.0851C41.1084 12.0709 41.0226 12.0577 40.937 12.0473C40.9326 12.0467 40.9281 12.0465 40.9237 12.0458C40.8417 12.0361 40.7598 12.0284 40.6778 12.0223C40.6566 12.0206 40.6356 12.0191 40.6144 12.0176C40.5292 12.0121 40.4439 12.0076 40.359 12.0059C40.3528 12.0057 40.3466 12.0059 40.3405 12.0057C40.2605 12.0042 40.1808 12.0049 40.1012 12.0066C40.0802 12.007 40.0592 12.0076 40.0382 12.0083C39.9539 12.011 39.8698 12.0153 39.7862 12.0216C39.7783 12.0223 39.7707 12.0231 39.7628 12.0238C39.6854 12.0301 39.6081 12.0382 39.531 12.0475C39.5104 12.0501 39.49 12.0524 39.4695 12.0552C39.3867 12.0662 39.3041 12.0783 39.2219 12.093C39.213 12.0945 39.2043 12.0964 39.1954 12.0981C39.1455 12.1072 39.0958 12.1163 39.0461 12.1265L39.0438 12.1286C37.0659 12.5411 35.3516 13.9645 34.6629 16.0221C33.6318 19.1018 35.2871 22.4323 38.3598 23.4609L44.5607 25.5369C44.9884 25.6806 45.3636 25.2131 45.1322 24.8257Z" fill="#CD5B62" stroke="white" stroke-width="1.8778" stroke-miterlimit="10"/>
<path d="M42.2418 16.9716C42.3902 16.9716 42.5108 16.8508 42.5108 16.7027C42.5108 16.5532 42.3902 16.4326 42.2418 16.4326H38.2641C38.1157 16.4326 37.9951 16.5534 37.9951 16.7016C37.9951 16.851 38.1159 16.9716 38.2641 16.9716H42.2418Z" fill="white"/>
<path d="M41.4019 19.1427C41.5503 19.1427 41.6709 19.0219 41.6709 18.8738C41.6709 18.7243 41.5503 18.6035 41.4019 18.6035H38.7924C38.644 18.6035 38.5234 18.7243 38.5234 18.8725C38.5234 19.0219 38.6442 19.1425 38.7924 19.1425L41.4019 19.1427Z" fill="white"/>
<path d="M41.346 31.1001C41.3243 33.0449 42.5166 35.036 44.9087 34.9834L46.6134 37.7549L47.7142 31.6559C47.7653 31.244 47.0221 30.2609 46.6612 30.0533C45.6734 29.4881 45.1331 28.9988 44.0181 29.2311C44.0181 29.2311 41.3738 28.5872 41.346 31.1001Z" fill="#222941"/>
<path d="M42.2799 30.4287C42.5748 29.688 42.4481 28.7951 41.9585 28.1659C41.7732 27.9277 41.5278 27.7201 41.2331 27.6553C40.8247 27.5657 40.4026 27.7672 40.0889 28.0436C39.7488 28.3432 39.4893 28.7448 39.4061 29.1904C39.3231 29.6358 39.4297 30.1235 39.7294 30.4633C39.8819 30.6359 40.0772 30.7661 40.2831 30.8692C40.5948 31.0255 40.9472 31.1246 41.2921 31.0741C41.6371 31.0236 41.9698 30.8011 42.0829 30.4714L42.2799 30.4287Z" fill="#222941"/>
<path d="M46.6904 34.5428C46.6904 34.1191 47.0339 33.7754 47.4577 33.7754C47.8814 33.7754 48.2249 34.1189 48.2249 34.5428C48.2249 34.9666 47.8814 35.3101 47.4577 35.3101C47.0339 35.3101 46.6904 34.9666 46.6904 34.5428Z" fill="#CD5B62"/>
<path d="M44.2533 33.0848C44.2191 33.1277 43.7274 33.1205 43.6727 33.1203C43.4436 33.1192 42.9152 33.0704 42.8407 33.6695C42.7653 34.2749 43.3421 34.6157 43.6894 34.6346C43.7896 34.6401 44.0208 34.6605 44.0888 34.7343C44.2977 34.9615 44.0767 36.7257 44.2374 37.3443C44.5923 38.7108 43.8378 38.0669 43.8378 38.0669C43.8378 38.0669 48.7359 43.2902 47.3838 38.0627C47.3838 38.0627 47.1008 34.8176 47.1176 34.801C47.3969 34.5216 48.4822 34.4017 47.7999 32.0885C47.1679 29.9459 45.5958 30.0983 45.1961 30.1692C44.8588 30.2288 45.9508 30.9617 44.2533 33.0848Z" fill="#EECFC2"/>
<path d="M47.2427 30.4607C47.4302 31.1341 45.3697 31.6372 44.7141 30.3804C44.7141 30.3804 44.6411 29.0958 45.6348 28.9992C46.1477 28.9496 46.8625 29.0952 47.2427 30.4607Z" fill="#222941"/>
<path d="M43.1016 33.8435C43.1016 33.8435 43.4614 33.0843 43.918 34.1016L43.1016 33.8435Z" fill="#E6B6B3"/>
<path d="M47.5472 33.2783L46.5684 33.766C46.5684 33.766 47.0473 34.1143 47.3059 33.9237C47.5649 33.7331 47.5472 33.2783 47.5472 33.2783Z" fill="white"/>
<path d="M45.6502 32.3988C45.5653 32.5175 45.6146 32.1033 45.754 32.0082C45.8935 31.9129 46.0733 31.9335 46.1557 32.054C46.1557 32.054 45.8542 32.1137 45.6502 32.3988Z" fill="#F3D837"/>
<path d="M47.2915 31.4786C47.432 31.5181 47.1346 31.2257 46.966 31.2387C46.7977 31.2516 46.6701 31.3803 46.6814 31.5257C46.6814 31.5257 46.9542 31.3837 47.2915 31.4786Z" fill="#F3D837"/>
<path d="M45.6502 32.3988C45.5653 32.5175 45.6146 32.1033 45.754 32.0082C45.8935 31.9129 46.0733 31.9335 46.1557 32.054C46.1557 32.054 45.8542 32.1137 45.6502 32.3988Z" fill="#222941"/>
<path d="M47.2915 31.4786C47.432 31.5181 47.1346 31.2257 46.966 31.2387C46.7977 31.2516 46.6701 31.3803 46.6814 31.5257C46.6814 31.5257 46.9542 31.3837 47.2915 31.4786Z" fill="#222941"/>
<path d="M46.1071 32.8198C46.1545 32.9367 46.2388 33.013 46.2955 32.9902C46.3521 32.9673 46.3598 32.854 46.3127 32.737C46.2653 32.62 46.181 32.5438 46.1243 32.5665C46.0677 32.5892 46.0598 32.7028 46.1071 32.8198Z" fill="#222941"/>
<path d="M47.013 32.3885C47.0582 32.5001 47.1387 32.5732 47.1928 32.5513C47.247 32.5294 47.2544 32.4212 47.2092 32.3093C47.1642 32.1976 47.0835 32.1246 47.0294 32.1464C46.9752 32.1683 46.9678 32.2768 47.013 32.3885Z" fill="#222941"/>
<path d="M47.1178 34.8018C47.1178 34.8018 46.096 34.9971 45.5802 34.9637C45.0643 34.9304 47.2428 36.3617 47.1178 34.8018Z" fill="#E6B6B3"/>
<path d="M46.6506 32.2527C46.737 32.3964 46.8512 32.5303 46.9762 32.6422C47.0934 32.7471 47.2567 32.8021 47.3656 32.9116C47.5061 33.0532 47.397 33.2598 47.2063 33.2564C47.1594 33.2555 47.1367 33.1988 47.1686 33.1651C47.2119 33.1192 47.2819 33.0774 47.2136 32.9872C47.1968 32.9649 47.1437 32.9481 47.1199 32.9335C47.0397 32.8844 46.9639 32.8284 46.8936 32.766C46.7459 32.6346 46.6474 32.4804 46.5665 32.3017C46.5414 32.2459 46.6177 32.1979 46.6506 32.2527Z" fill="#222941"/>
<path d="M43.3135 34.8495C43.3135 34.4257 43.657 34.082 44.0807 34.082C44.5044 34.082 44.8479 34.4255 44.8479 34.8495C44.8479 35.2732 44.5044 35.6169 44.0807 35.6169C43.657 35.6167 43.3135 35.2732 43.3135 34.8495Z" fill="#CD5B62"/>
<path d="M46.5576 82.0265L46.9293 84.6659C46.9293 84.6659 47.5255 86.4163 48.0791 85.7389C48.6328 85.0612 49.1805 84.7031 49.1805 84.7031L49.3622 81.959L46.5576 82.0265Z" fill="#E3AEAD"/>
<path d="M48.0064 82.125L48.2133 86.4789C48.2133 86.4789 46.4615 86.742 47.1124 85.5695L46.6182 82.3165L48.0064 82.125Z" fill="#E6B6B3"/>
<path d="M49.3632 84.6898L51.5736 86.4816C51.6868 86.5656 51.6061 86.707 51.4443 86.7083C51.4443 86.7083 46.666 86.6811 46.6592 86.6113C46.6164 86.1782 46.8176 84.6603 46.8953 84.2659C46.9066 84.2094 47.4069 86.133 47.4963 85.954C47.6154 85.716 48.9904 84.7862 49.0921 84.6966C49.1609 84.6359 49.2877 84.6338 49.3632 84.6898Z" fill="#394971"/>
<path d="M37.4738 82.0265L36.4709 84.6659C36.4709 84.6659 35.8748 86.4163 35.3211 85.7389C34.7677 85.0612 34.2197 84.7031 34.2197 84.7031L34.6692 81.959L37.4738 82.0265Z" fill="#E3AEAD"/>
<path d="M36.0247 82.125L35.1865 86.4789C35.1865 86.4789 36.9384 86.742 36.2875 85.5695L37.4128 82.3165L36.0247 82.125Z" fill="#E6B6B3"/>
<path d="M34.0366 84.6892L31.8262 86.481C31.7131 86.565 31.7937 86.7064 31.9555 86.7077C31.9555 86.7077 36.7338 86.6805 36.7406 86.6107C36.7835 86.1776 36.7404 84.3164 36.6892 84.3164C36.503 84.3164 36.2789 86.0831 35.9035 85.9534C35.652 85.8664 34.4094 84.7856 34.3077 84.696C34.2391 84.6353 34.1122 84.6332 34.0366 84.6892Z" fill="#394971"/>
<path d="M42.0647 47.1409C41.0514 48.9324 40.5156 50.2446 39.9333 52.5225C39.2579 55.1641 33.5802 78.7703 33.2617 83.5751C34.0941 83.7757 37.5698 84.0647 38.0959 84.0356C39.7694 79.2403 44.4239 62.0861 45.1415 59.0652C45.2518 58.6009 45.9692 58.7028 45.9134 59.1769C45.506 62.6266 45.3854 77.7438 45.2319 83.6522C45.6684 83.8744 49.8688 83.7154 50.373 83.6522C50.9214 77.7351 52.6178 54.3119 48.2246 47.0511C46.2157 46.7734 44.1016 47.0802 42.0647 47.1409Z" fill="#1611F5"/>
<path d="M47.5342 47.127C47.5342 47.127 49.606 52.2337 49.606 58.4834C49.606 64.7331 49.2223 80.9659 49.2223 80.9659" stroke="#394971" stroke-width="0.2475" stroke-miterlimit="10"/>
<path d="M35.9092 80.5425L43.1178 47.3164" stroke="#394971" stroke-width="0.2475" stroke-miterlimit="10"/>
<path opacity="0.3" d="M48.3012 47.2041L39.4004 54.5704C39.4004 54.5704 40.6933 49.8093 42.1628 47.0508L48.3012 47.2041Z" fill="#394971"/>
<path d="M45.2324 80.9658L50.5268 81.0427" stroke="#394971" stroke-width="0.2475" stroke-miterlimit="10"/>
<path d="M33.7227 80.5825L39.2385 80.5771" stroke="#394971" stroke-width="0.2475" stroke-miterlimit="10"/>
<path d="M56.4926 42.1938C56.4926 42.1938 51.0863 49.691 49.8193 48.7972C49.8193 48.7972 48.366 47.7714 49.0969 43.5828C49.0984 43.1761 49.1003 42.894 49.0859 42.8303C49.0859 42.8303 48.7717 38.695 48.0919 37.8386C48.0174 37.7446 47.7919 37.5698 47.8221 37.5624C49.8981 37.0434 50.6923 42.2624 51.2646 44.6768C51.2884 44.7768 55.2511 40.9177 55.2511 40.9177C55.2511 40.9177 57.3269 38.1732 57.4717 38.3301C57.6814 38.5574 56.8773 39.7813 56.8773 39.7813C56.8773 39.7813 56.9297 39.9212 57.087 39.9911C57.2443 40.0609 57.3318 40.166 57.3842 40.3757C57.4367 40.5855 57.6466 40.708 57.6814 40.8303C57.7165 40.9523 56.9354 41.8732 56.4926 42.1938Z" fill="#EECFC2"/>
<path d="M55.3213 40.8999C55.3213 40.8999 55.741 39.7108 55.9157 39.7459C56.0906 39.7809 56.86 40.1129 56.8424 40.4101C56.825 40.7074 56.1605 40.4626 56.1605 40.4626C56.1605 40.4626 56.283 41.1271 55.9507 41.2145C55.6187 41.3022 55.3213 40.8999 55.3213 40.8999Z" fill="#EECFC2"/>
<path d="M56.3523 40.4111C56.3523 40.4111 56.3349 40.7083 56.5797 40.7608C56.5797 40.7608 56.6321 41.0756 56.9469 41.0056C56.9469 41.0056 56.8595 41.1455 57.0518 41.1805C57.0518 41.1805 56.2298 42.0723 56.3523 40.4111Z" fill="#E6B6B3"/>
<path d="M56.1956 39.832C56.4423 39.9365 56.6869 40.0246 56.9183 40.1655C56.9561 40.1946 56.9962 40.2309 57.0147 40.2897C57.0344 40.349 57.0079 40.4188 56.9682 40.4549C56.7786 40.6186 56.5323 40.5774 56.3309 40.5906C56.3167 40.5897 56.3294 40.6481 56.3341 40.6888L56.3615 40.9508L56.3564 40.9519L56.3069 40.6939C56.3048 40.653 56.2736 40.6048 56.308 40.5649C56.3474 40.5358 56.3956 40.5492 56.4379 40.5464C56.609 40.5462 56.7979 40.5322 56.9312 40.4175C56.9625 40.3887 56.9788 40.3443 56.9665 40.3033C56.9181 40.1776 56.7676 40.1407 56.6608 40.0768C56.6616 40.0749 56.1808 39.8382 56.1956 39.832Z" fill="#394971"/>
<path d="M56.896 39.748C56.8548 39.8763 56.7527 39.976 56.626 40.0208C56.6948 39.933 56.8081 39.8183 56.896 39.748Z" fill="#394971"/>
<path d="M57.2513 40.1895C57.1443 40.3894 56.5834 40.9932 56.3711 40.7072C56.4388 40.7686 56.539 40.773 56.6224 40.7189C56.8581 40.5807 57.0685 40.3769 57.2513 40.1895Z" fill="#394971"/>
<path d="M56.5684 40.7602C56.7008 41.2179 56.9823 40.9581 57.2027 40.7324C57.2793 40.6641 57.3577 40.5713 57.4388 40.5176C57.373 40.6006 57.304 40.6813 57.233 40.76C57.0154 41.0347 56.6316 41.2704 56.5684 40.7602Z" fill="#394971"/>
<path d="M56.9319 40.9531C56.9542 41.0389 56.9945 41.1327 57.0546 41.1932C57.1208 41.2272 57.2115 41.2028 57.2938 41.1818C57.3632 41.1729 57.4104 41.168 57.4692 41.1264L57.4732 41.1298C57.4339 41.1839 57.369 41.2111 57.3066 41.2249C57.2195 41.2544 57.1036 41.289 57.0229 41.2257C56.9656 41.1548 56.9189 41.0353 56.9319 40.9531Z" fill="#394971"/>
<path d="M47.3244 37.4814C47.3244 37.4814 49.1662 37.3744 49.7025 38.4702C50.2387 39.5659 51.4276 44.4616 51.4276 44.4616L52.4347 43.5644L53.7169 45.8956C53.7169 45.8956 51.311 49.567 49.9589 49.1473C48.6068 48.7276 47.3089 38.9751 47.3244 37.4814Z" fill="#394971"/>
<path opacity="0.3" d="M51.6596 45.5688C51.9825 46.1587 52.3155 46.7413 52.6533 47.3206C51.8389 48.3008 50.7291 49.386 49.9599 49.1472C48.7399 48.7685 47.564 40.7922 47.3574 38.1406C48.7499 40.637 50.2856 43.0584 51.6596 45.5688Z" fill="#394971"/>
<path d="M47.3419 37.5358C47.2833 37.6776 49.7041 42.0462 49.6344 43.4371C49.5642 44.8385 48.6432 46.969 48.7178 47.1799C48.7178 47.1799 44.5572 47.2115 41.9706 47.2425C40.1267 45.6293 40.9548 39.4511 41.5743 37.715C41.5743 37.715 43.6197 36.7815 44.1282 36.7441C44.1282 36.7441 48.0303 43.0858 47.3419 37.5358Z" fill="#394971"/>
<g opacity="0.3">
<path d="M41.4785 38.6836C41.4785 38.6836 41.9384 38.2756 42.4818 37.834C42.5207 37.9 42.5623 37.965 42.6016 38.0308C42.347 38.3702 42.4345 38.7621 42.5727 39.3054C43.3138 42.2164 43.659 43.9043 44.8867 47.2806C43.389 47.3148 43.7781 47.2205 41.9708 47.2422C40.1271 45.6292 40.8591 40.4197 41.4785 38.6836Z" fill="#394971"/>
</g>
<path d="M42.4112 56.3112L36.9648 53.6548L40.5197 46.3086L45.9661 48.9652L42.4112 56.3112Z" fill="white"/>
<path opacity="0.3" d="M42.4112 56.3112L36.9648 53.6548L40.5197 46.3086L45.9661 48.9652L42.4112 56.3112Z" fill="white"/>
<path d="M44.7598 48.6096L41.7002 47.1172L41.9029 46.7015C41.9337 46.6382 42.0101 46.6119 42.0734 46.6429L44.9039 48.0236C44.9672 48.0544 44.9935 48.1309 44.9625 48.1941L44.7598 48.6096Z" fill="#C94B58"/>
<path d="M43.8216 46.6505C43.5668 46.5261 43.2669 46.6169 43.1516 46.853C43.0363 47.0893 43.1495 47.3814 43.4044 47.5058C43.6592 47.63 43.9591 47.5393 44.0744 47.3033C44.1895 47.067 44.0763 46.7749 43.8216 46.6505ZM43.514 47.2808C43.3934 47.222 43.3397 47.0835 43.3942 46.9717C43.4488 46.8598 43.591 46.8167 43.7116 46.8757C43.8322 46.9345 43.8859 47.0729 43.8313 47.1848C43.7768 47.2967 43.6348 47.3396 43.514 47.2808Z" fill="#C94B58"/>
<path d="M35.219 44.5666C35.9575 45.844 37.1916 47.4805 38.1516 48.6944C38.1516 48.6944 38.1563 48.7006 38.1624 48.7085C38.2057 48.7719 38.3654 49.0103 38.3684 49.015C38.805 49.5941 39.333 50.2862 39.8145 50.9055C40.0591 51.2167 40.2915 51.5109 40.4957 51.7634C40.4989 51.768 40.5034 51.771 40.5066 51.7742C40.9155 52.282 41.2127 52.6181 41.2528 52.5885C41.3549 52.5204 40.9927 51.9181 40.7775 51.5961C40.9585 51.8268 41.1583 52.0947 41.3286 52.3053C41.519 52.5361 41.6755 52.6955 41.7358 52.6599C41.8396 52.5996 41.5345 52.0251 41.2713 51.6148C41.2403 51.5653 41.2093 51.5188 41.18 51.477C41.2078 51.5095 41.2373 51.5451 41.2698 51.5869C41.5903 51.9865 42.1493 52.7792 42.2482 52.7172C42.3892 52.6289 41.7791 51.5808 41.6799 51.4088C41.7837 51.5621 42.3875 52.4571 42.5083 52.3083C42.5578 52.2478 42.3457 51.8948 42.1304 51.5434C41.9213 51.2044 41.7077 50.8698 41.7217 50.8049C41.7404 50.7165 41.9137 50.9303 42.047 51.0418C42.1151 51.1006 42.1724 51.1301 42.1926 51.0821C42.2081 51.0435 42.075 50.7864 41.872 50.4348C41.3379 49.5135 40.3285 47.9342 40.2849 47.8678C40.2835 47.8663 40.2835 47.8663 40.2835 47.8663C39.6332 46.7097 38.873 45.0468 38.4255 44.1533C38.9086 43.6949 44.2983 37.9288 44.2983 37.9288C44.2983 37.9288 42.5828 36.4982 39.9877 38.5837C37.6064 40.4991 36.0626 41.9282 35.2822 42.933C34.8256 43.5183 34.849 43.9255 35.219 44.5666Z" fill="#EECFC2"/>
<path d="M38.4253 44.1525C38.5347 44.3703 39.2599 45.6432 39.4002 45.9342C38.599 46.4151 37.1234 47.3997 36.3309 47.8945C35.8814 47.2628 35.273 45.1545 34.9497 44.5951C34.5784 43.9527 34.8263 43.5179 35.2821 42.9326C36.0638 41.9287 37.6072 40.4989 39.9883 38.5844C42.5829 36.4984 44.2989 37.9282 44.2989 37.9282C44.2989 37.9282 46.5874 39.4026 38.4253 44.1525Z" fill="#394971"/>
<g opacity="0.3">
<path d="M48.5941 41.0382C47.5677 41.6903 46.5521 42.4987 45.8207 43.4793C45.4915 43.9207 45.2223 44.4451 45.2202 45.0078C45.2187 45.3934 45.3594 45.8702 45.7562 46.0211C46.164 46.1763 46.5733 45.8776 46.74 45.5169C46.9635 45.0333 46.9073 44.4164 46.8162 43.9075C46.6035 42.72 45.9303 41.661 45.1843 40.7361C44.24 39.5651 43.1469 38.5121 41.9646 37.5837C41.9065 37.5381 41.8237 37.6198 41.8825 37.6659C42.7573 38.3529 43.5776 39.1067 44.3302 39.926C45.058 40.718 45.7522 41.5674 46.2292 42.5376C46.4602 43.0072 46.6359 43.5069 46.7187 44.0249C46.8024 44.5495 46.8686 45.3093 46.4648 45.7233C46.2625 45.9307 45.9366 46.0271 45.6827 45.8519C45.4445 45.6874 45.3501 45.3681 45.3378 45.0938C45.3136 44.5516 45.559 44.0402 45.8685 43.6097C46.5863 42.6119 47.6237 41.7924 48.6527 41.1386C48.7156 41.0985 48.6574 40.998 48.5941 41.0382Z" fill="#6B6EAD"/>
</g>
<g opacity="0.3">
<path d="M40.5438 38.3782C40.4663 39.8594 39.8551 41.2983 38.8155 42.3617C37.7757 43.4253 36.3557 44.073 34.8751 44.1861C34.8011 44.1919 34.8004 44.308 34.8751 44.3023C36.3856 44.1868 37.8366 43.5308 38.8977 42.4438C39.9585 41.3571 40.5807 39.8912 40.6599 38.3784C40.664 38.3035 40.5476 38.3037 40.5438 38.3782Z" fill="#6B6EAD"/>
</g>
<g opacity="0.3">
<path d="M36.6622 41.5395C37.2324 43.1843 37.0123 45.033 36.071 46.4976C36.0304 46.5606 36.1309 46.619 36.1712 46.5562C37.1278 45.068 37.3537 43.1803 36.7741 41.5087C36.7499 41.4384 36.6378 41.4686 36.6622 41.5395Z" fill="#6B6EAD"/>
</g>
<g opacity="0.3">
<path d="M49.0121 37.9807C48.8769 38.4946 48.9856 39.0801 49.0703 39.5937C49.1881 40.3078 49.3588 41.0139 49.5535 41.7107C49.7256 42.3265 49.9401 42.926 50.1449 43.5315C50.3566 44.1573 50.5608 44.7925 50.8718 45.378C51.2544 46.0979 51.807 46.6964 52.4031 47.2452C52.4581 47.2957 52.5402 47.2137 52.4852 47.163C51.9464 46.6673 51.4393 46.1319 51.0697 45.4952C50.75 44.9445 50.5419 44.3403 50.3379 43.74C49.9178 42.5032 49.5121 41.2769 49.2599 39.9919C49.1395 39.3782 48.9603 38.6337 49.124 38.0117C49.1431 37.9393 49.0312 37.9083 49.0121 37.9807Z" fill="#6B6EAD"/>
</g>
<g opacity="0.3">
<path d="M53.2754 45.8162C52.5933 45.43 51.7454 45.6024 51.1267 46.0357C50.4151 46.534 49.9922 47.3343 49.5961 48.0833C49.5613 48.1493 49.6615 48.2081 49.6963 48.1419C50.0625 47.4492 50.4446 46.725 51.0665 46.2253C51.6571 45.7504 52.5262 45.5256 53.2166 45.9164C53.2819 45.9533 53.3405 45.8529 53.2754 45.8162Z" fill="#6B6EAD"/>
</g>
<path d="M69.2392 17H68.8047V19.607H69.2392V17Z" fill="#594A42"/>
<path d="M71.0351 22.0547H66.9941V22.2719H71.0351V22.0547Z" fill="#594A42"/>
<path d="M71.2962 25.4873H66.9512V25.9218H71.2962V25.4873Z" fill="#594A42"/>
<path d="M72.0341 23.1416H66.0234V23.3589H72.0341V23.1416Z" fill="#594A42"/>
<path d="M85.8228 85H80.9997C80.9128 85 80.8259 84.942 80.797 84.8551C80.7825 84.8262 79.8845 82.2046 77.9872 79.6121C76.2491 77.2513 73.28 74.427 69.0218 74.427C60.8531 74.427 57.2756 84.7538 57.2467 84.8551C57.2177 84.942 57.1308 85 57.0439 85H52.2209C52.1485 85 52.076 84.9565 52.0326 84.8986C51.9891 84.8262 51.9891 84.7538 52.0326 84.6813C52.0616 84.6379 54.4224 80.3218 57.1163 73.9635V69.7198C57.1163 69.6039 57.2177 69.5025 57.3336 69.5025H58.9123C60.0999 66.4175 61.1428 63.3905 62.0118 60.4793L60.94 58.524C60.9255 58.495 60.911 58.4516 60.911 58.4226V57.4088C60.911 57.2929 61.0124 57.1915 61.1283 57.1915H62.9242C65.9368 45.1846 66.69 26.7615 66.7334 25.7332L65.821 23.3289C65.8065 23.2999 65.8065 23.271 65.8065 23.242L65.821 22.1557C65.821 22.0399 65.9223 21.9385 66.0382 21.9385H66.7769L66.7914 20.7653C66.7914 20.6929 66.8348 20.6205 66.8927 20.577L68.906 19.4183C68.9784 19.3749 69.0508 19.3749 69.1232 19.4183L71.1364 20.577C71.2088 20.6205 71.2378 20.6929 71.2378 20.7653L71.2523 21.9385H71.991C72.1068 21.9385 72.2082 22.0399 72.2082 22.1557L72.2227 23.242C72.2227 23.271 72.2227 23.2999 72.2082 23.3289L71.2957 25.7332C71.3392 26.7615 72.0923 45.1846 75.1049 57.1915H76.9009C77.0168 57.1915 77.1181 57.2929 77.1181 57.4088V58.4226C77.1181 58.4661 77.1037 58.495 77.0892 58.524L76.0174 60.4793C76.8864 63.3905 77.9292 66.432 79.1169 69.5025H80.6956C80.8115 69.5025 80.9128 69.6039 80.9128 69.7198V73.949C83.6068 80.3073 85.9821 84.6234 85.9966 84.6669C86.04 84.7393 86.0255 84.8117 85.9966 84.8841C85.9676 84.9565 85.8952 85 85.8228 85ZM81.1591 84.5655H85.4607C84.8669 83.4502 82.8102 79.4962 80.5073 74.0794C80.4928 74.0504 80.4928 74.0214 80.4928 73.9925V69.937H78.972C78.8851 69.937 78.7982 69.8791 78.7693 69.7922C77.5527 66.6203 76.4809 63.5063 75.5829 60.5082C75.5684 60.4503 75.5684 60.3924 75.5974 60.3489L76.6836 58.3647V57.626H74.9311C74.8297 57.626 74.7428 57.5536 74.7139 57.4667C71.5854 45.1267 70.8612 25.907 70.8468 25.7042C70.8468 25.6752 70.8468 25.6463 70.8612 25.6173L71.7882 23.213L71.7737 22.373H71.0495C70.9337 22.373 70.8323 22.2716 70.8323 22.1557L70.8178 20.8812L69.0218 19.8528L67.2259 20.8957L67.2114 22.1702C67.2114 22.2861 67.11 22.3875 66.9941 22.3875H66.2555L66.241 23.2275L67.1679 25.6318C67.1824 25.6608 67.1824 25.6897 67.1824 25.7187C67.1824 25.907 66.4582 45.1412 63.3153 57.4812C63.2863 57.5826 63.1994 57.6405 63.098 57.6405H61.3455V58.3792L62.4318 60.3634C62.4608 60.4213 62.4608 60.4793 62.4463 60.5227C61.5628 63.5208 60.491 66.6348 59.2599 69.8067C59.2309 69.8936 59.144 69.9515 59.0571 69.9515H57.5363V74.0069C57.5363 74.0359 57.5363 74.0649 57.5219 74.0938C55.2335 79.5107 53.1623 83.4502 52.5685 84.5799H56.8701C57.0874 83.9861 57.9998 81.6688 59.6799 79.3803C62.2725 75.8608 65.4878 74.0069 69.0073 74.0069C72.5268 74.0069 75.7422 75.8608 78.3348 79.3803C80.0293 81.6543 80.9418 83.9716 81.1591 84.5655Z" fill="#594A42"/>
<path d="M71.2235 57.627H66.835C66.7626 57.627 66.7046 57.598 66.6612 57.5401C66.6177 57.4822 66.6033 57.4242 66.6177 57.3518C67.4578 53.8468 68.1964 49.5886 68.8048 44.6932C68.8192 44.5773 68.9061 44.5049 69.022 44.5049C69.1379 44.5049 69.2248 44.5918 69.2393 44.6932C69.8476 49.5741 70.5862 53.8323 71.4263 57.3518C71.4408 57.4098 71.4263 57.4822 71.3828 57.5401C71.3539 57.598 71.2815 57.627 71.2235 57.627ZM67.0957 57.1925H70.9338C70.2097 54.122 69.5724 50.5011 69.0075 46.4167C68.4716 50.5011 67.8199 54.122 67.0957 57.1925Z" fill="#594A42"/>
<path d="M75.1051 69.9376H62.9389C62.8665 69.9376 62.7941 69.9086 62.7651 69.8507C62.7361 69.7927 62.7217 69.7203 62.7362 69.6479C63.779 66.8815 65.8356 60.4508 65.8501 60.3929C65.8791 60.306 65.966 60.248 66.0529 60.248H71.9767C72.0781 60.248 72.1505 60.306 72.1794 60.3929C72.1939 60.4508 74.2506 66.8815 75.2934 69.6479C75.3224 69.7203 75.3079 69.7927 75.2644 69.8507C75.221 69.9086 75.1775 69.9376 75.1051 69.9376ZM63.2576 69.5031H74.801C73.8306 66.8526 72.1505 61.624 71.8318 60.6681H66.2267C65.9081 61.624 64.228 66.8526 63.2576 69.5031Z" fill="#594A42"/>
<path d="M74.9452 57.1924H63.0977V57.6269H74.9452V57.1924Z" fill="#594A42"/>
<path d="M78.9862 69.5029H59.0713V69.9374H78.9862V69.5029Z" fill="#594A42"/>
<path d="M75.7853 60.2334H62.2432V60.6679H75.7853V60.2334Z" fill="#594A42"/>
<path d="M80.7105 73.7754H57.334V74.2099H80.7105V73.7754Z" fill="#594A42"/>
<path d="M76.9005 58.2783H61.1279V58.568H76.9005V58.2783Z" fill="#594A42"/>
<path d="M80.7105 71.1689H57.334V71.4586H80.7105V71.1689Z" fill="#594A42"/>
<path d="M79.8844 71.3125H79.5947V73.992H79.8844V71.3125Z" fill="#594A42"/>
<path d="M78.9137 71.3125H78.624V73.992H78.9137V71.3125Z" fill="#594A42"/>
<path d="M77.9293 71.3125H77.6396V73.992H77.9293V71.3125Z" fill="#594A42"/>
<path d="M76.9586 71.3125H76.6689V73.992H76.9586V71.3125Z" fill="#594A42"/>
<path d="M75.9889 71.3125H75.6992V73.992H75.9889V71.3125Z" fill="#594A42"/>
<path d="M75.0182 71.3125H74.7285V73.992H75.0182V71.3125Z" fill="#594A42"/>
<path d="M74.0328 71.3125H73.7432V73.992H74.0328V71.3125Z" fill="#594A42"/>
<path d="M73.0631 71.3125H72.7734V73.992H73.0631V71.3125Z" fill="#594A42"/>
<path d="M72.0924 71.3125H71.8027V73.992H72.0924V71.3125Z" fill="#594A42"/>
<path d="M71.1217 71.3125H70.832V73.992H71.1217V71.3125Z" fill="#594A42"/>
<path d="M70.1373 71.3125H69.8477V73.992H70.1373V71.3125Z" fill="#594A42"/>
<path d="M69.1666 71.3125H68.877V73.992H69.1666V71.3125Z" fill="#594A42"/>
<path d="M68.1969 71.3125H67.9072V73.992H68.1969V71.3125Z" fill="#594A42"/>
<path d="M67.2115 71.3125H66.9219V73.992H67.2115V71.3125Z" fill="#594A42"/>
<path d="M66.2408 71.3125H65.9512V73.992H66.2408V71.3125Z" fill="#594A42"/>
<path d="M65.2711 71.3125H64.9814V73.992H65.2711V71.3125Z" fill="#594A42"/>
<path d="M64.3004 71.3125H64.0107V73.992H64.3004V71.3125Z" fill="#594A42"/>
<path d="M63.3151 71.3125H63.0254V73.992H63.3151V71.3125Z" fill="#594A42"/>
<path d="M62.3453 71.3125H62.0557V73.992H62.3453V71.3125Z" fill="#594A42"/>
<path d="M61.3746 71.3125H61.085V73.992H61.3746V71.3125Z" fill="#594A42"/>
<path d="M60.4039 71.3125H60.1143V73.992H60.4039V71.3125Z" fill="#594A42"/>
<path d="M59.4196 71.3125H59.1299V73.992H59.4196V71.3125Z" fill="#594A42"/>
<path d="M58.4489 71.3125H58.1592V73.992H58.4489V71.3125Z" fill="#594A42"/>
<path d="M61.7318 74.079L61.3311 73.9111L56.8147 84.6912L57.2155 84.8591L61.7318 74.079Z" fill="#594A42"/>
<path d="M81.2154 84.6973L76.7002 73.916L76.2994 74.0839L80.8146 84.8651L81.2154 84.6973Z" fill="#594A42"/>
<path d="M59.825 78.367L59.6367 78.2512C59.6512 78.2222 61.8237 74.6882 65.5895 73.8916L65.6329 74.1089C61.9686 74.891 59.8395 78.3381 59.825 78.367Z" fill="#594A42"/>
<path d="M78.2335 78.3669C78.219 78.3379 76.09 74.8908 72.4111 74.0942L72.4546 73.877C76.2203 74.688 78.3928 78.2075 78.4073 78.2365L78.2335 78.3669Z" fill="#594A42"/>
<path d="M57.113 84.7068L53.7812 81.8281L53.6392 81.9925L56.971 84.8712L57.113 84.7068Z" fill="#594A42"/>
<path d="M58.3537 82.0069L58.2607 81.8105L52.1731 84.6917L52.266 84.8881L58.3537 82.0069Z" fill="#594A42"/>
<path d="M58.2352 81.8286L55.1445 79.1582L55.0025 79.3226L58.0931 81.993L58.2352 81.8286Z" fill="#594A42"/>
<path d="M59.3869 79.3419L59.2939 79.1455L53.6645 81.8098L53.7574 82.0062L59.3869 79.3419Z" fill="#594A42"/>
<path d="M59.331 79.2194L56.2842 76.5869L56.1421 76.7513L59.1889 79.3838L59.331 79.2194Z" fill="#594A42"/>
<path d="M60.4093 76.8907L60.3164 76.6943L55.0404 79.1914L55.1334 79.3877L60.4093 76.8907Z" fill="#594A42"/>
<path d="M60.4609 76.5534L57.4141 73.9209L57.272 74.0853L60.3188 76.7178L60.4609 76.5534Z" fill="#594A42"/>
<path d="M61.5392 74.2257L61.4463 74.0293L56.1703 76.5263L56.2633 76.7227L61.5392 74.2257Z" fill="#594A42"/>
<path d="M63.317 69.6375L60.0098 67.167L59.8797 67.3411L63.1869 69.8116L63.317 69.6375Z" fill="#594A42"/>
<path d="M63.951 67.3436L63.8535 67.1494L58.9213 69.6243L59.0187 69.8185L63.951 67.3436Z" fill="#594A42"/>
<path d="M63.9489 67.1557L60.8857 64.8672L60.7557 65.0412L63.8189 67.3297L63.9489 67.1557Z" fill="#594A42"/>
<path d="M64.5989 65.189L64.5068 64.9922L59.8894 67.1533L59.9815 67.3501L64.5989 65.189Z" fill="#594A42"/>
<path d="M64.6107 64.9207L61.582 62.6582L61.452 62.8323L64.4807 65.0947L64.6107 64.9207Z" fill="#594A42"/>
<path d="M65.2734 62.9568L65.1777 62.7617L60.7951 64.9103L60.8908 65.1054L65.2734 62.9568Z" fill="#594A42"/>
<path d="M65.2861 62.6287L62.2578 60.3662L62.1278 60.5403L65.1561 62.8027L65.2861 62.6287Z" fill="#594A42"/>
<path d="M65.9501 60.6707L65.8545 60.4756L61.4719 62.6242L61.5675 62.8193L65.9501 60.6707Z" fill="#594A42"/>
<path d="M78.1495 67.3294L78.0195 67.1553L74.7119 69.6245L74.8419 69.7986L78.1495 67.3294Z" fill="#594A42"/>
<path d="M79.1041 69.6288L74.1719 67.1533L74.0744 67.3475L79.0066 69.823L79.1041 69.6288Z" fill="#594A42"/>
<path d="M77.2579 65.0422L77.1279 64.8682L74.064 67.1555L74.194 67.3296L77.2579 65.0422Z" fill="#594A42"/>
<path d="M78.136 67.1494L73.5186 64.9883L73.4265 65.185L78.0439 67.3462L78.136 67.1494Z" fill="#594A42"/>
<path d="M76.5616 62.8225L76.4316 62.6484L73.4026 64.9098L73.5325 65.0838L76.5616 62.8225Z" fill="#594A42"/>
<path d="M77.2317 64.9123L72.8486 62.7646L72.753 62.9597L77.1362 65.1074L77.2317 64.9123Z" fill="#594A42"/>
<path d="M75.8888 60.5432L75.7588 60.3691L72.7297 62.6305L72.8597 62.8046L75.8888 60.5432Z" fill="#594A42"/>
<path d="M76.5501 62.6222L72.167 60.4746L72.0714 60.6697L76.4545 62.8173L76.5501 62.6222Z" fill="#594A42"/>
<path d="M84.4038 81.9935L84.2617 81.8291L80.93 84.7078L81.072 84.8722L84.4038 81.9935Z" fill="#594A42"/>
<path d="M85.8718 84.6881L79.7842 81.8076L79.6913 82.004L85.7789 84.8845L85.8718 84.6881Z" fill="#594A42"/>
<path d="M83.0327 79.3158L82.8906 79.1514L79.8 81.8217L79.942 81.9861L83.0327 79.3158Z" fill="#594A42"/>
<path d="M84.3804 81.8027L78.751 79.1396L78.6581 79.336L84.2875 81.9991L84.3804 81.8027Z" fill="#594A42"/>
<path d="M81.9077 76.7523L81.7656 76.5879L78.7188 79.2204L78.8609 79.3848L81.9077 76.7523Z" fill="#594A42"/>
<path d="M82.9947 79.1951L77.7188 76.6992L77.6259 76.8956L82.9018 79.3914L82.9947 79.1951Z" fill="#594A42"/>
<path d="M80.768 74.0775L80.626 73.9131L77.5792 76.5456L77.7212 76.71L80.768 74.0775Z" fill="#594A42"/>
<path d="M81.859 76.5374L76.583 74.041L76.4901 74.2374L81.766 76.7338L81.859 76.5374Z" fill="#594A42"/>
<path d="M67.4536 55.1893L67.3506 54.998L63.0529 57.3121L63.1559 57.5034L67.4536 55.1893Z" fill="#594A42"/>
<path d="M66.8959 57.3199L63.7666 54.999L63.6372 55.1735L66.7665 57.4944L66.8959 57.3199Z" fill="#594A42"/>
<path d="M75.0653 57.3189L70.7676 55.0049L70.6646 55.1962L74.9623 57.5102L75.0653 57.3189Z" fill="#594A42"/>
<path d="M74.4761 55.1804L74.3467 55.0059L71.217 57.3264L71.3464 57.5009L74.4761 55.1804Z" fill="#594A42"/>
<path d="M71.2711 57.3256L67.457 55.0117L67.3443 55.1975L71.1584 57.5114L71.2711 57.3256Z" fill="#594A42"/>
<path d="M70.7758 55.1877L70.6631 55.002L66.8499 57.3167L66.9626 57.5024L70.7758 55.1877Z" fill="#594A42"/>
<path d="M67.7833 53.1022L67.6836 52.9092L63.6428 54.9962L63.7425 55.1892L67.7833 53.1022Z" fill="#594A42"/>
<path d="M67.3832 55.0012L64.124 52.9199L64.0071 53.103L67.2663 55.1843L67.3832 55.0012Z" fill="#594A42"/>
<path d="M74.4692 55.0012L70.3613 52.918L70.2631 53.1117L74.371 55.1949L74.4692 55.0012Z" fill="#594A42"/>
<path d="M74.0302 53.101L73.9131 52.918L70.6558 55.0023L70.7729 55.1853L74.0302 53.101Z" fill="#594A42"/>
<path d="M70.7768 55.0067L67.7832 52.9189L67.6589 53.0971L70.6526 55.1849L70.7768 55.0067Z" fill="#594A42"/>
<path d="M70.3842 53.0931L70.2598 52.915L67.2802 54.9977L67.4047 55.1758L70.3842 53.0931Z" fill="#594A42"/>
<path d="M68.1597 51.014L68.0576 50.8223L64.1455 52.9053L64.2476 53.0971L68.1597 51.014Z" fill="#594A42"/>
<path d="M67.7882 52.9179L64.5977 50.8369L64.479 51.0189L67.6695 53.0998L67.7882 52.9179Z" fill="#594A42"/>
<path d="M73.9708 52.9194L69.9785 50.833L69.8779 51.0256L73.8701 53.112L73.9708 52.9194Z" fill="#594A42"/>
<path d="M73.5757 51.0107L73.458 50.8281L70.2195 52.9151L70.3372 53.0977L73.5757 51.0107Z" fill="#594A42"/>
<path d="M70.3536 52.9323L68.1797 50.8467L68.0293 51.0034L70.2032 53.0891L70.3536 52.9323Z" fill="#594A42"/>
<path d="M70.0058 50.9947L69.8564 50.8369L67.6576 52.9174L67.8069 53.0752L70.0058 50.9947Z" fill="#594A42"/>
<path d="M68.4886 48.9346L68.3877 48.7422L64.411 50.8269L64.5119 51.0193L68.4886 48.9346Z" fill="#594A42"/>
<path d="M68.1266 50.828L64.834 48.7451L64.7178 48.9287L68.0104 51.0116L68.1266 50.828Z" fill="#594A42"/>
<path d="M73.7096 50.8344L69.6523 48.748L69.553 48.9413L73.6103 51.0276L73.7096 50.8344Z" fill="#594A42"/>
<path d="M73.3386 48.9343L73.2236 48.75L69.8813 50.8356L69.9963 51.0199L73.3386 48.9343Z" fill="#594A42"/>
<path d="M70.0166 50.8617L68.5215 48.7793L68.345 48.906L69.8401 50.9884L70.0166 50.8617Z" fill="#594A42"/>
<path d="M69.688 48.9027L69.5127 48.7744L67.9906 50.8552L68.1659 50.9834L69.688 48.9027Z" fill="#594A42"/>
<path d="M68.8119 46.8515L68.7109 46.6592L64.7356 48.7461L64.8366 48.9384L68.8119 46.8515Z" fill="#594A42"/>
<path d="M68.4937 48.7467L65.1514 46.6611L65.0364 46.8455L68.3787 48.931L68.4937 48.7467Z" fill="#594A42"/>
<path d="M73.365 48.745L69.3398 46.6592L69.2399 46.8521L73.2651 48.9379L73.365 48.745Z" fill="#594A42"/>
<path d="M73.0238 46.8516L72.9092 46.667L69.5498 48.7523L69.6644 48.9369L73.0238 46.8516Z" fill="#594A42"/>
<path d="M69.701 48.7995L68.8682 46.7148L68.6664 46.7954L69.4993 48.8801L69.701 48.7995Z" fill="#594A42"/>
<path d="M69.4011 46.7898L69.2002 46.707L68.3396 48.7961L68.5404 48.8789L69.4011 46.7898Z" fill="#594A42"/>
<path d="M69.0766 44.7611L68.9746 44.5693L65.0616 46.6501L65.1636 46.842L69.0766 44.7611Z" fill="#594A42"/>
<path d="M68.7656 46.6598L65.4375 44.5791L65.3223 44.7633L68.6504 46.844L68.7656 46.6598Z" fill="#594A42"/>
<path d="M73.0749 46.6627L69.0986 44.5771L68.9977 44.7695L72.974 46.8551L73.0749 46.6627Z" fill="#594A42"/>
<path d="M72.7503 44.7666L72.6357 44.582L69.2764 46.6674L69.391 46.852L72.7503 44.7666Z" fill="#594A42"/>
<path d="M72.6716 44.7653L69.0363 42.7086L65.4588 44.7653L65.3574 44.577L68.9928 42.4913C69.0218 42.4768 69.0652 42.4768 69.0942 42.4913L72.7875 44.577L72.6716 44.7653Z" fill="#594A42"/>
<path d="M69.0215 44.7796C69.007 44.7796 68.978 44.7796 68.9635 44.7651L65.5889 42.6795L65.7047 42.4912L69.0215 44.5334L72.3527 42.4912L72.4686 42.6795L69.0794 44.7651C69.0649 44.7796 69.036 44.7796 69.0215 44.7796Z" fill="#594A42"/>
<path d="M72.3965 42.6792L69.0363 40.6225L65.734 42.6647L65.6182 42.4764L68.9784 40.3907C69.0073 40.3763 69.0508 40.3763 69.0942 40.3907L72.4979 42.4909L72.3965 42.6792Z" fill="#594A42"/>
<path d="M69.0215 42.6938C69.007 42.6938 68.9781 42.6938 68.9636 42.6794L65.8496 40.5937L65.9655 40.4199L69.0215 42.4621L72.1065 40.4199L72.2224 40.5937L69.0794 42.6794C69.065 42.6938 69.0505 42.6938 69.0215 42.6938Z" fill="#594A42"/>
<path d="M72.2369 40.5935L69.036 38.5513L65.8786 40.5935L65.7627 40.4052L68.9781 38.3196C69.007 38.2906 69.065 38.2906 69.0939 38.3196L72.3527 40.4052L72.2369 40.5935Z" fill="#594A42"/>
<path d="M69.021 40.6089C68.9921 40.6089 68.9776 40.6089 68.9631 40.5944L65.9795 38.5088L66.1098 38.335L69.0355 40.3771L71.9757 38.335L72.106 38.5088L69.1079 40.5944C69.0645 40.6089 69.05 40.6089 69.021 40.6089Z" fill="#594A42"/>
<path d="M72.0343 38.5068L69.0362 36.4646L66.0815 38.5068L65.9512 38.3329L68.9638 36.2473C69.0072 36.2183 69.0507 36.2183 69.0796 36.2473L72.1357 38.3329L72.0343 38.5068Z" fill="#594A42"/>
<path d="M69.0212 38.522C68.9923 38.522 68.9778 38.522 68.9633 38.5075L66.168 36.4219L66.2983 36.248L69.0212 38.2902L71.7731 36.248L71.9035 36.4219L69.0937 38.5075C69.0792 38.522 69.0502 38.522 69.0212 38.522Z" fill="#594A42"/>
<path d="M71.7879 36.4218L69.036 34.3796L66.3276 36.4218L66.1973 36.248L68.9636 34.1624C69.0071 34.1334 69.0505 34.1334 69.094 34.1624L71.9038 36.248L71.7879 36.4218Z" fill="#594A42"/>
<path d="M69.0364 36.4359C69.0074 36.4359 68.993 36.4214 68.964 36.4069L66.4004 34.3213L66.5307 34.1475L69.0364 36.1752L71.5565 34.1475L71.6869 34.3213L69.1088 36.4069C69.0799 36.4359 69.0509 36.4359 69.0364 36.4359Z" fill="#594A42"/>
<path d="M71.5559 34.3368L69.0502 32.3091L66.5735 34.3368L66.4287 34.163L68.9633 32.0774C69.0068 32.0484 69.0647 32.0484 69.0937 32.0774L71.6718 34.163L71.5559 34.3368Z" fill="#594A42"/>
<path d="M69.0358 34.3511C69.0068 34.3511 68.9778 34.3366 68.9634 34.3221L66.6025 32.2365L66.7474 32.0771L69.0358 34.1048L71.3387 32.0771L71.4835 32.2365L69.1082 34.3221C69.0792 34.3511 69.0647 34.3511 69.0358 34.3511Z" fill="#594A42"/>
<path d="M71.4986 32.2501L69.0509 30.2224L66.6321 32.2501L66.4873 32.0908L68.9785 30.0051C69.0219 29.9762 69.0799 29.9762 69.1233 30.0051L71.6435 32.0908L71.4986 32.2501Z" fill="#594A42"/>
<path d="M69.0364 32.2798C69.0075 32.2798 68.9785 32.2653 68.964 32.2508L66.6611 30.1652L66.806 30.0059L69.0364 32.0191L71.2814 30.0059L71.4262 30.1652L69.1089 32.2508C69.0799 32.2653 69.0654 32.2798 69.0364 32.2798Z" fill="#594A42"/>
<path d="M71.2519 30.1652L69.036 28.152L66.8489 30.1652L66.7041 30.0059L68.9635 27.9203C69.007 27.8768 69.0649 27.8768 69.1084 27.9203L71.3968 30.0059L71.2519 30.1652Z" fill="#594A42"/>
<path d="M69.036 30.1938C69.007 30.1938 68.978 30.1794 68.9636 30.1649L66.8779 28.0792L67.0372 27.9199L69.0505 29.9331L71.0782 27.9199L71.2375 28.0792L69.1374 30.1649C69.0939 30.1794 69.0649 30.1938 69.036 30.1938Z" fill="#594A42"/>
<path d="M71.0783 28.0656L69.0506 25.8641L67.0519 28.0656L66.8926 27.9207L68.9782 25.6178C68.9927 25.5889 69.0217 25.5889 69.0651 25.5889C69.0941 25.5889 69.1231 25.6034 69.152 25.6178L71.2666 27.9207L71.0783 28.0656Z" fill="#594A42"/>
<path d="M69.0367 28.1074C68.9932 28.1074 68.9787 28.0929 68.9498 28.0639L67.0234 25.761L67.1828 25.6162L69.0222 27.8177L70.8761 25.6162L71.0354 25.761L69.0946 28.0639C69.0946 28.0929 69.0656 28.1074 69.0367 28.1074Z" fill="#594A42"/>
<path d="M74.4239 54.9902H63.7061V55.2075H74.4239V54.9902Z" fill="#594A42"/>
<path d="M73.975 52.9043H64.1406V53.1216H73.975V52.9043Z" fill="#594A42"/>
<path d="M73.6561 50.8184H64.459V51.0356H73.6561V50.8184Z" fill="#594A42"/>
<path d="M73.2647 48.7334H64.8643V48.9507H73.2647V48.7334Z" fill="#594A42"/>
<path d="M72.9609 46.6475H65.1543V46.8647H72.9609V46.6475Z" fill="#594A42"/>
<path d="M72.686 44.5615H65.4297V44.7788H72.686V44.5615Z" fill="#594A42"/>
<path d="M72.41 42.4766H65.7041V42.6938H72.41V42.4766Z" fill="#594A42"/>
<path d="M72.1789 40.3906H65.9365V40.6079H72.1789V40.3906Z" fill="#594A42"/>
<path d="M71.9611 38.3047H66.1387V38.5219H71.9611V38.3047Z" fill="#594A42"/>
<path d="M71.7876 36.2188H66.3418V36.436H71.7876V36.2188Z" fill="#594A42"/>
<path d="M71.6137 34.1338H66.501V34.351H71.6137V34.1338Z" fill="#594A42"/>
<path d="M71.4542 32.0625H66.6602V32.2798H71.4542V32.0625Z" fill="#594A42"/>
<path d="M71.3244 29.9766H66.791V30.1938H71.3244V29.9766Z" fill="#594A42"/>
<path d="M71.2957 27.8906H66.8203V28.1079H71.2957V27.8906Z" fill="#594A42"/>
<path d="M63.1432 60.4037L62.1562 58.3711L61.9608 58.466L62.9477 60.4986L63.1432 60.4037Z" fill="#594A42"/>
<path d="M64.1416 60.4082L63.3213 58.3809L63.1199 58.4624L63.9402 60.4897L64.1416 60.4082Z" fill="#594A42"/>
<path d="M65.1255 60.4143L64.4697 58.3887L64.263 58.4556L64.9188 60.4812L65.1255 60.4143Z" fill="#594A42"/>
<path d="M66.1356 60.4184L65.6436 58.3916L65.4324 58.4429L65.9244 60.4697L66.1356 60.4184Z" fill="#594A42"/>
<path d="M67.1246 60.4454L66.7959 58.415L66.5814 58.4498L66.9101 60.4801L67.1246 60.4454Z" fill="#594A42"/>
<path d="M68.1206 60.4351L67.957 58.4141L67.7405 58.4316L67.904 60.4526L68.1206 60.4351Z" fill="#594A42"/>
<path d="M69.1225 58.4219H68.9053V60.4496H69.1225V58.4219Z" fill="#594A42"/>
<path d="M70.2742 58.4316L70.0576 58.4141L69.8939 60.4351L70.1105 60.4526L70.2742 58.4316Z" fill="#594A42"/>
<path d="M71.4459 58.437L71.2314 58.4023L70.9034 60.4327L71.1179 60.4673L71.4459 58.437Z" fill="#594A42"/>
<path d="M72.5939 58.4428L72.3828 58.3916L71.8914 60.4184L72.1026 60.4696L72.5939 58.4428Z" fill="#594A42"/>
<path d="M73.7653 58.4517L73.5586 58.3848L72.9028 60.4104L73.1095 60.4773L73.7653 58.4517Z" fill="#594A42"/>
<path d="M74.9133 58.4555L74.7119 58.374L73.8918 60.4014L74.0932 60.4829L74.9133 58.4555Z" fill="#594A42"/>
<path d="M76.0656 58.4679L75.8701 58.373L74.8832 60.4056L75.0786 60.5005L76.0656 58.4679Z" fill="#594A42"/>
<path d="M71.0207 20.6641H67.0088V20.8813H71.0207V20.6641Z" fill="#594A42"/>
</svg>
