<svg width="46" height="77" viewBox="0 0 46 77" fill="none" xmlns="http://www.w3.org/2000/svg">
<path d="M45.814 71.4775H0.000976562V76.2095H45.814V71.4775Z" fill="#E69F56"/>
<path d="M45.814 71.4775H0L8.44 67.1035C8.773 67.3505 9.17899 67.5105 9.61099 67.5105H36.202C36.645 67.5105 37.04 67.3505 37.373 67.1035L45.814 71.4775Z" fill="#F2C97C"/>
<path d="M36.3022 18.4791V61.4711H9.51416V2.83008C9.67416 3.06408 9.85914 3.28607 10.0931 3.47107C10.3021 3.64407 10.5361 3.79208 10.7831 3.92708V57.4671C10.7831 58.4531 11.5842 59.2541 12.5692 59.2541H12.6061C13.5911 59.2541 14.3932 58.4531 14.3932 57.4671V10.1621C15.0092 10.8891 15.8101 11.4681 16.6971 11.8131C16.9311 11.9121 17.1771 11.9851 17.4121 12.0601V57.4671C17.4121 58.4531 18.2132 59.2541 19.2112 59.2541H19.2482C20.2342 59.2541 21.0352 58.4531 21.0352 57.4671V14.5861C21.1822 14.7581 21.3671 14.9191 21.5641 15.0541C22.0941 15.4361 22.7481 15.5961 23.3141 15.9161C23.8691 16.2371 24.3252 16.7051 24.7802 17.1731V57.4671C24.7802 58.4531 25.5822 59.2541 26.5672 59.2541H26.6042C27.6022 59.2541 28.3911 58.4531 28.3911 57.4671V19.2801C28.4271 19.2921 28.4642 19.2921 28.5012 19.3041C29.4502 19.5381 30.4361 19.5631 31.4221 19.5261V57.4671C31.4221 58.4531 32.2232 59.2541 33.2082 59.2541H33.2462C34.2312 59.2541 35.0331 58.4531 35.0331 57.4671V19.1201C35.5011 18.9841 35.9442 18.7871 36.3022 18.4791Z" fill="#FDDA99"/>
<path d="M9.61218 63.5898C9.57518 63.5898 9.55118 63.6018 9.51318 63.6018V63.5898H9.61218Z" fill="#FFEED1"/>
<path d="M36.3021 63.5898V63.6018C36.2651 63.6018 36.2401 63.5898 36.2031 63.5898H36.3021Z" fill="#FFEED1"/>
<path d="M38.1378 65.5248V65.5618C38.1378 66.1898 37.8297 66.7448 37.3737 67.1018C37.0407 67.3488 36.6458 67.5088 36.2028 67.5088H9.61176C9.17976 67.5088 8.77377 67.3488 8.44077 67.1018C7.98477 66.7448 7.67676 66.1898 7.67676 65.5618V65.5248C7.67676 64.4898 8.49076 63.6518 9.51276 63.6028C9.54976 63.6028 9.57476 63.5908 9.61176 63.5908H36.2028C36.2398 63.5908 36.2648 63.6028 36.3018 63.6028C37.3248 63.6518 38.1378 64.4898 38.1378 65.5248Z" fill="#E69F56"/>
<path d="M37.312 62.5187V62.5437C37.312 63.1107 36.8689 63.5657 36.3009 63.5907H9.51294C8.94694 63.5657 8.50195 63.1107 8.50195 62.5437V62.5187C8.50195 61.9517 8.94594 61.4967 9.51294 61.4717H36.3009C36.8689 61.4967 37.312 61.9517 37.312 62.5187Z" fill="#F2C97C"/>
<path d="M12.3938 5.08968C11.9918 4.55668 11.3688 4.26669 10.7798 3.92969V57.4637C10.7798 58.4507 11.5798 59.2557 12.5668 59.2557H12.6038C13.5908 59.2557 14.3908 58.4517 14.3908 57.4637V10.1567C13.7588 9.41768 13.3008 8.52368 13.0998 7.57368C12.9228 6.72268 12.9128 5.78768 12.3938 5.08968Z" fill="#E69F56"/>
<path d="M31.4238 19.5302V57.4632C31.4238 58.4501 32.2238 59.2551 33.2108 59.2551H33.2478C34.2348 59.2551 35.0348 58.4511 35.0348 57.4632V19.1191C34.4268 19.2961 33.7668 19.3672 33.1398 19.4182C32.5688 19.4602 31.9988 19.5072 31.4238 19.5302Z" fill="#E69F56"/>
<path d="M19.56 12.9537C18.943 12.4767 18.175 12.2847 17.417 12.0557V57.4637C17.417 58.4507 18.217 59.2557 19.204 59.2557H19.241C20.228 59.2557 21.028 58.4517 21.028 57.4637V14.5817C20.529 14.0487 20.141 13.3977 19.56 12.9537Z" fill="#E69F56"/>
<path d="M24.7861 17.168V57.464C24.7861 58.451 25.5861 59.256 26.5721 59.256H26.6101C27.5971 59.256 28.3971 58.452 28.3971 57.464V19.278C27.2411 18.993 26.1561 18.417 25.2671 17.627C25.1031 17.481 24.9441 17.322 24.7861 17.168Z" fill="#E69F56"/>
<path d="M10.0932 3.47629C10.3032 3.64929 10.5372 3.79429 10.7812 3.93029C11.3702 4.26729 11.9932 4.55729 12.3952 5.09029C12.9142 5.78729 12.9232 6.72329 13.1012 7.57429C13.3022 8.52429 13.7602 9.41729 14.3922 10.1573C15.0092 10.8873 15.8092 11.4673 16.7032 11.8183C16.9372 11.9073 17.1762 11.9863 17.4192 12.0563C18.1772 12.2853 18.9442 12.4773 19.5622 12.9543C20.1422 13.3983 20.5312 14.0493 21.0312 14.5823C21.1902 14.7603 21.3682 14.9233 21.5642 15.0593C22.0972 15.4333 22.7482 15.5973 23.3142 15.9203C23.8762 16.2433 24.3292 16.7103 24.7882 17.1693C24.9462 17.3243 25.1052 17.4823 25.2692 17.6273C26.1582 18.4183 27.2432 18.9933 28.3992 19.2783C28.4312 19.2873 28.4682 19.2973 28.5012 19.3063C29.4552 19.5353 30.4422 19.5683 31.4252 19.5303C32.0002 19.5073 32.5702 19.4603 33.1422 19.4183C33.7692 19.3663 34.4282 19.2963 35.0372 19.1193C35.5052 18.9883 35.9442 18.7863 36.3042 18.4733V18.1503C35.8412 17.7573 35.4012 17.3463 34.9802 16.9293C34.8312 16.7843 34.6862 16.6393 34.5452 16.4893C34.2872 16.2183 34.0402 15.9473 33.7872 15.6753C33.6562 15.5253 33.5202 15.3803 33.3942 15.2313C31.7282 13.3413 30.2592 11.4513 28.3982 10.0903C28.2662 9.99629 28.1352 9.90229 28.0002 9.81429C27.7292 9.63229 27.4532 9.45929 27.1632 9.29929C26.7472 9.07529 26.3072 8.8743 25.8392 8.7053C25.8162 8.6963 25.7922 8.6863 25.7702 8.6773C25.6202 8.6263 25.4602 8.5753 25.3022 8.5283C25.1522 8.4813 24.9972 8.43929 24.8382 8.40229C24.8202 8.39829 24.8062 8.3933 24.7872 8.3883C23.9642 8.1823 23.0602 8.07429 22.0552 8.07429C21.7802 8.07429 21.4242 7.99529 21.0312 7.84029V7.83629C20.7982 7.74729 20.5502 7.63029 20.3062 7.49529C20.1792 7.42529 20.0582 7.35429 19.9312 7.27529C19.9312 7.27129 19.9272 7.27129 19.9222 7.27129C19.8052 7.19629 19.6922 7.11729 19.5802 7.03229C19.2662 6.80329 18.9682 6.53628 18.7052 6.24228C18.6312 6.16228 18.5652 6.07828 18.5002 5.99428C18.4352 5.91028 18.3682 5.82529 18.3122 5.7373C18.1672 5.3113 18.0172 4.86329 17.8492 4.40929C17.7922 4.25029 17.7322 4.0913 17.6662 3.9313C17.5962 3.7443 17.5212 3.56229 17.4412 3.37429C17.4362 3.35629 17.4272 3.34129 17.4182 3.32329V3.31829C16.5532 1.27829 15.1742 0.246294 13.3222 0.045294C13.2752 0.041294 13.2332 0.0362865 13.1862 0.0312865C13.1242 0.0272865 13.0592 0.0272887 12.9942 0.0272887C8.43418 -0.323711 9.5132 2.82729 9.5132 2.82729C9.6722 3.06429 9.86318 3.28429 10.0932 3.47629Z" fill="#F2C97C"/>
<path opacity="0.1" d="M45.814 71.4773V76.2093H0V71.4773L8.44 67.1033C7.984 66.7463 7.67599 66.1913 7.67599 65.5633V65.5263C7.67599 64.4913 8.48999 63.6533 9.51199 63.6043V63.5923C8.94599 63.5673 8.50101 63.1123 8.50101 62.5453V62.5203C8.50101 61.9533 8.94499 61.4983 9.51199 61.4733V50.7783C9.93099 50.8763 10.363 50.9753 10.782 51.0613C11.977 51.3073 13.184 51.5293 14.392 51.7023C15.39 51.8503 16.4 51.9613 17.41 52.0593C18.605 52.1703 19.812 52.2443 21.033 52.2813C22.264 52.3303 23.521 52.3303 24.778 52.2943C25.973 52.2573 27.181 52.1833 28.389 52.0723C29.399 51.9983 30.41 51.8873 31.42 51.7393C32.614 51.5913 33.822 51.3943 35.03 51.1603C35.449 51.0863 35.88 51.0123 36.299 50.9263V61.4743C36.866 61.4993 37.31 61.9543 37.31 62.5213V62.5463C37.31 63.1133 36.867 63.5683 36.299 63.5933V63.6053C37.322 63.6543 38.135 64.4923 38.135 65.5273V65.5643C38.135 66.1923 37.827 66.7473 37.371 67.1043L45.814 71.4773Z" fill="#1D1D1B"/>
</svg>
