<svg width="70" height="70" viewBox="0 0 70 70" fill="none" xmlns="http://www.w3.org/2000/svg">
<path d="M38.0324 53.6152H36.5356V66.9648H38.0324V53.6152Z" fill="#8F8F8F"/>
<path d="M38.6123 37.6104H35.939V57.3621H38.6123V37.6104Z" fill="#666666"/>
<path d="M38.6123 66.334H35.939V67.848H38.6123V66.334Z" fill="#666666"/>
<path d="M38.0323 53.6152H37.2969V66.9648H38.0323V53.6152Z" fill="#666666"/>
<path d="M38.6208 66.334H37.2798V67.848H38.6208V66.334Z" fill="#474747"/>
<path d="M38.6206 37.6104H37.2969V57.3621H38.6206V37.6104Z" fill="#474747"/>
<path d="M24.615 53.3535L23.4585 52.4033L11.1288 67.4115L12.2853 68.3616L24.615 53.3535Z" fill="#8F8F8F"/>
<path d="M39.0901 36.6678L37.0244 34.9707L18.7083 57.2657L20.774 58.9627L39.0901 36.6678Z" fill="#666666"/>
<path d="M13.1487 68.2439L11.083 66.5469L10.1219 67.7168L12.1876 69.4138L13.1487 68.2439Z" fill="#666666"/>
<path d="M24.0577 52.8971L11.728 67.9053L12.2963 68.3721L24.626 53.364L24.0577 52.8971Z" fill="#666666"/>
<path d="M13.1495 68.2439L12.1133 67.3926L11.1522 68.5625L12.1884 69.4138L13.1495 68.2439Z" fill="#474747"/>
<path d="M38.0778 35.833L19.7617 58.1279L20.7845 58.9682L39.1006 36.6733L38.0778 35.833Z" fill="#474747"/>
<path d="M62.2883 68.3642L63.4448 67.4141L51.1151 52.4059L49.9586 53.356L62.2883 68.3642Z" fill="#666666"/>
<path d="M53.8103 58.9627L55.876 57.2656L37.5599 34.9707L35.4942 36.6677L53.8103 58.9627Z" fill="#474747"/>
<path d="M62.3884 69.407L64.4541 67.71L63.493 66.5401L61.4273 68.2371L62.3884 69.407Z" fill="#474747"/>
<path d="M50.5385 52.8877L49.9702 53.3545L62.2999 68.3626L62.8682 67.8958L50.5385 52.8877Z" fill="#8F8F8F"/>
<path d="M62.3798 69.4177L63.416 68.5664L62.4549 67.3965L61.4187 68.2478L62.3798 69.4177Z" fill="#666666"/>
<path d="M36.5248 35.8277L35.502 36.668L53.818 58.9629L54.8409 58.1226L36.5248 35.8277Z" fill="#666666"/>
<path d="M35.0479 33.3018H39.5035C39.8928 33.3018 40.2389 33.5181 40.4119 33.8641L42.1682 37.4286C42.497 38.1034 42.0125 38.8821 41.2598 38.8821H33.3002C32.5475 38.8821 32.0631 38.0948 32.3918 37.4286L34.1481 33.8641C34.3125 33.5181 34.6672 33.3018 35.0479 33.3018Z" fill="#474747"/>
<path d="M15.7941 33.5928L3.50635 41.5176L8.59413 49.4065L20.8819 41.4817L15.7941 33.5928Z" fill="#ABF1FF"/>
<path d="M3.09012 40.8684L0 42.8613L5.92247 52.0444L9.01258 50.0515L3.09012 40.8684Z" fill="#54BEDE"/>
<path d="M48.4859 10.2437L14.7637 31.9922L21.9147 43.0803L55.637 21.3317L48.4859 10.2437Z" fill="#54BEDE"/>
<path d="M60.6799 1.07642e-05L47.4033 8.5625L56.7208 23.0097L69.9974 14.4472L60.6799 1.07642e-05Z" fill="#ABF1FF"/>
<path d="M18.3459 37.5303L6.05811 45.4551L8.60435 49.4032L20.8921 41.4784L18.3459 37.5303Z" fill="#54BEDE"/>
<path d="M6.0491 45.4612L2.95898 47.4541L5.92257 52.0493L9.01268 50.0564L6.0491 45.4612Z" fill="#287BA1"/>
<path d="M52.066 15.7896L18.3438 37.5381L21.9169 43.0785L55.6392 21.3299L52.066 15.7896Z" fill="#287BA1"/>
<path d="M65.3435 7.21876L52.0669 15.7812L56.7233 23.0012L69.9999 14.4387L65.3435 7.21876Z" fill="#54BEDE"/>
<path d="M25.6174 39.2023C26.7508 40.9586 26.2404 43.2946 24.4927 44.4193C22.7364 45.5527 20.4005 45.0422 19.2758 43.2946C18.1424 41.5383 18.6529 39.2023 20.4005 38.0776C22.1481 36.9529 24.4841 37.4547 25.6174 39.2023Z" fill="#666666"/>
<path d="M25.064 39.5562C25.9983 41.001 25.5831 42.939 24.1296 43.8734C22.6847 44.8078 20.7468 44.3925 19.8124 42.939C18.878 41.4942 19.2933 39.5562 20.7468 38.6218C22.2003 37.6961 24.1296 38.1114 25.064 39.5562Z" fill="#474747"/>
<path d="M23.7748 40.3955C24.2506 41.1309 24.0344 42.1085 23.3076 42.5757C22.5722 43.0516 21.5946 42.8353 21.1274 42.1085C20.6602 41.3818 20.8678 40.3955 21.5946 39.9283C22.3213 39.4525 23.299 39.6601 23.7748 40.3955Z" fill="#666666"/>
<path d="M41.2119 29.9377L33.0249 35.2178L34.1034 36.8901L42.2904 31.61L41.2119 29.9377Z" fill="#666666"/>
<path d="M39.9621 32.3064C40.7235 33.483 40.3861 35.0489 39.2094 35.8103C38.0328 36.5716 36.4669 36.2342 35.7055 35.0576C34.9442 33.881 35.2816 32.315 36.4582 31.5537C37.6435 30.7923 39.2094 31.1297 39.9621 32.3064Z" fill="#8F8F8F"/>
<path d="M37.834 34.9708C38.546 34.9708 39.1231 34.3936 39.1231 33.6817C39.1231 32.9697 38.546 32.3926 37.834 32.3926C37.1221 32.3926 36.5449 32.9697 36.5449 33.6817C36.5449 34.3936 37.1221 34.9708 37.834 34.9708Z" fill="#474747"/>
<path d="M3.02963 41.5028L0.652344 43.0361L1.25725 43.974L3.63454 42.4406L3.02963 41.5028Z" fill="#ABF1FF"/>
<path d="M47.8527 11.5904L16.0718 32.0869L16.9205 33.4029L48.7015 12.9064L47.8527 11.5904Z" fill="#ABF1FF"/>
<path d="M15.6105 34.4613L4.52246 41.6123L5.26805 42.7684L16.3561 35.6173L15.6105 34.4613Z" fill="white"/>
<path d="M60.272 1.00953L48.4351 8.64355L49.6074 10.4613L61.4443 2.82725L60.272 1.00953Z" fill="white"/>
</svg>
