<svg width="64" height="75" viewBox="0 0 64 75" fill="none" xmlns="http://www.w3.org/2000/svg">
<path d="M29.2886 58.5773C45.4643 58.5773 58.5773 45.4643 58.5773 29.2887C58.5773 13.113 45.4643 0 29.2886 0C13.113 0 0 13.113 0 29.2887C0 45.4643 13.113 58.5773 29.2886 58.5773Z" fill="#666666"/>
<path d="M32.1362 62.8818H26.4414V71.9704H32.1362V62.8818Z" fill="#FFC000"/>
<path d="M32.1359 62.8818H29.1543V71.9704H32.1359V62.8818Z" fill="#E28D00"/>
<path d="M55.5287 75.0001C55.4808 72.3252 53.3141 70.1777 50.6297 70.1777H7.94784C5.26345 70.1777 3.09676 72.3348 3.04883 75.0001H55.5287Z" fill="#FFC000"/>
<path d="M3.21199 73.8877C3.1257 74.2424 3.05859 74.6163 3.05859 74.9902H55.5289C55.5193 74.6067 55.4618 74.2424 55.3755 73.8877H3.21199Z" fill="#E28D00"/>
<path d="M54.0235 5.4456L56.1806 3.2885L54.9439 2.05176L52.7772 4.21845C52.0102 3.49942 51.2145 2.79955 50.3804 2.15722L48.1371 4.43895C48.9711 5.0717 49.7669 5.75238 50.5338 6.47142L6.47146 50.5338C5.86747 49.8819 5.28266 49.2108 4.7266 48.5109L2.47363 50.7927C8.77237 58.6349 18.4362 63.6681 29.2888 63.6681C48.2713 63.6681 63.6682 48.2808 63.6682 29.2888C63.6682 20.018 59.9867 11.6293 54.0235 5.4456ZM29.2888 60.4852C20.9001 60.4852 13.2975 57.1585 7.69861 51.7705L51.7802 7.68898C57.1681 13.2974 60.4853 20.9 60.4853 29.2888C60.4853 46.5168 46.5168 60.4852 29.2888 60.4852Z" fill="#54BEDE"/>
<path d="M29.2887 57.3693C44.7972 57.3693 57.3693 44.7972 57.3693 29.2887C57.3693 13.7802 44.7972 1.20801 29.2887 1.20801C13.7801 1.20801 1.20801 13.7802 1.20801 29.2887C1.20801 44.7972 13.7801 57.3693 29.2887 57.3693Z" fill="#54BEDE"/>
<path d="M43.3335 8.26377C41.8379 8.13913 40.2465 7.47762 38.8563 8.88692C37.4662 10.2962 35.127 10.2099 36.2391 11.6959C37.3512 13.1819 36.9677 15.0323 36.1432 15.6458C35.3187 16.2594 32.8836 16.0485 33.5451 17.6783C34.2162 19.3081 32.9123 19.0013 33.037 20.6024C33.1616 22.213 36.8239 20.4106 35.9131 21.5131C35.9131 21.5131 33.3342 24.5714 32.5576 25.9232C31.7811 27.275 30.4676 28.6747 32.0687 30.6401C33.6697 32.615 33.8423 33.2765 35.0119 33.382C36.1911 33.4875 40.2657 32.3562 40.4286 32.4425C40.5916 32.5287 41.6174 34.3311 42.1351 35.4911C42.6433 36.6416 44.2731 37.0634 44.2731 38.8466C44.2731 40.6298 44.925 45.2988 46.2001 46.4205C47.4847 47.5326 48.3092 47.8586 49.4118 46.8136C50.5143 45.7686 52.3262 43.669 52.3933 41.3681C52.4605 39.0671 52.7001 36.191 53.4767 33.6888C54.2533 31.1866 55.8159 28.761 54.6655 28.6556C53.515 28.5501 51.3579 29.1062 49.661 26.4409C47.9545 23.7757 47.2067 22.1363 47.8491 22.4815C48.4914 22.8266 50.6964 26.1725 51.7702 26.5272C52.8056 26.8724 55.768 25.3959 56.1803 24.6098C56.1515 24.4564 56.1419 24.303 56.1132 24.1496C55.7297 23.9195 54.6463 23.8428 53.6205 21.9254C52.8919 20.564 53.9177 20.4969 55.2311 20.7462C53.4383 15.3103 49.987 10.6509 45.481 7.32422C45.3948 7.34339 45.3085 7.36256 45.2414 7.38174C44.0909 7.66935 44.8387 8.3884 43.3335 8.26377Z" fill="#7EDE88"/>
<path d="M2.07031 27.0742C3.4221 28.3684 4.34246 28.5314 6.3941 29.3272C8.90593 30.305 7.60208 31.5801 9.50991 31.8486C11.4178 32.117 9.16478 35.8272 9.5962 38.7705C10.0276 41.7137 13.1434 43.449 13.2872 45.2322C13.3927 46.6607 13.4502 49.23 13.7282 51.7706C14.639 52.4033 15.5786 52.9786 16.566 53.4963C16.4606 52.8348 16.3839 51.9719 16.451 50.7544C16.6331 47.6194 19.0874 47.6386 20.7939 45.3089C22.5005 42.9696 22.2512 44.7624 23.4304 42.0205C24.6096 39.2786 25.5492 36.5271 23.4879 35.8176C21.4267 35.1082 20.1324 34.8685 18.0904 32.4046C16.0483 29.9408 14.5815 30.7556 12.8558 30.1421C11.1205 29.5189 10.2194 31.2542 8.91551 30.3051C7.61167 29.3559 8.78129 29.5572 8.11978 29.0587C7.46786 28.5602 7.56373 28.1671 6.68172 26.6236C5.7997 25.0801 5.43539 27.1509 4.6876 25.5019C3.9398 23.8529 4.8314 23.4886 7.54456 22.7504C10.2577 22.0122 9.90299 24.5144 10.4399 24.0638C10.9767 23.6132 10.9096 22.7696 11.3027 21.5616C11.6958 20.3632 13.1626 18.8772 15.1663 17.6021C17.17 16.3175 19.4709 16.0394 21.0911 14.563C22.7114 13.0866 18.819 11.8978 17.6781 11.15C16.5373 10.4022 16.2976 11.265 15.1471 11.5335C13.9967 11.8115 14.0063 13.4509 13.5173 13.4413C12.2135 13.4126 12.2902 13.6522 11.4561 12.5881C11.2164 12.2813 11.4657 11.2075 13.9871 9.85573C16.4989 8.50395 16.8536 8.58065 16.403 7.43019C16.173 6.84538 14.9842 6.86456 13.6132 6.94125C7.1419 11.476 2.74141 18.743 2.07031 27.0742Z" fill="#4CA14D"/>
<path d="M29.2885 0C29.2406 0 29.1926 0 29.1543 0V58.5581C29.2022 58.5581 29.2502 58.5581 29.2885 58.5581C45.462 58.5581 58.5772 45.4429 58.5772 29.2695C58.5772 13.1152 45.462 0 29.2885 0Z" fill="#474747"/>
<path d="M54.0233 5.4456L56.1804 3.2885L54.9436 2.05176L52.7769 4.21845C52.01 3.49942 51.2142 2.79955 50.3802 2.15722L48.1368 4.43895C48.9709 5.0717 49.7666 5.75238 50.5336 6.47142L29.1543 27.8507V30.3242L51.7799 7.69857C57.1678 13.307 60.485 20.9096 60.485 29.2983C60.485 46.5264 46.5166 60.4948 29.2885 60.4948C29.2406 60.4948 29.1926 60.4948 29.1543 60.4948V63.6777C29.2022 63.6777 29.2502 63.6777 29.2885 63.6777C48.271 63.6777 63.6679 48.2904 63.6679 29.2983C63.6679 20.018 59.9865 11.6293 54.0233 5.4456Z" fill="#287BA1"/>
<path d="M29.2885 1.20801C29.2406 1.20801 29.1926 1.20801 29.1543 1.20801V57.3597C29.2022 57.3597 29.2502 57.3597 29.2885 57.3597C44.8005 57.3597 57.3692 44.791 57.3692 29.2791C57.3692 13.7671 44.8005 1.20801 29.2885 1.20801Z" fill="#287BA1"/>
<path d="M43.3335 8.26377C41.8379 8.13913 40.2465 7.47762 38.8563 8.88692C37.4662 10.2962 35.127 10.2099 36.2391 11.6959C37.3512 13.1819 36.9677 15.0323 36.1432 15.6458C35.3187 16.2594 32.8836 16.0485 33.5451 17.6783C34.2162 19.3081 32.9123 19.0013 33.037 20.6024C33.1616 22.213 36.8239 20.4106 35.9131 21.5131C35.9131 21.5131 33.3342 24.5714 32.5576 25.9232C31.7811 27.275 30.4676 28.6747 32.0687 30.6401C33.6697 32.615 33.8423 33.2765 35.0119 33.382C36.1911 33.4875 40.2657 32.3562 40.4286 32.4425C40.5916 32.5287 41.6174 34.3311 42.1351 35.4911C42.6433 36.6416 44.2731 37.0634 44.2731 38.8466C44.2731 40.6298 44.925 45.2988 46.2001 46.4205C47.4847 47.5326 48.3092 47.8586 49.4118 46.8136C50.5143 45.7686 52.3262 43.669 52.3933 41.3681C52.4605 39.0671 52.7001 36.191 53.4767 33.6888C54.2533 31.1866 55.8159 28.761 54.6655 28.6556C53.515 28.5501 51.3579 29.1062 49.661 26.4409C47.9545 23.7757 47.2067 22.1363 47.8491 22.4815C48.4914 22.8266 50.6964 26.1725 51.7702 26.5272C52.8056 26.8724 55.768 25.3959 56.1803 24.6098C56.1515 24.4564 56.1419 24.303 56.1132 24.1496C55.7297 23.9195 54.6463 23.8428 53.6205 21.9254C52.8919 20.564 53.9177 20.4969 55.2311 20.7462C53.4383 15.3103 49.987 10.6509 45.481 7.32422C45.3948 7.34339 45.3085 7.36256 45.2414 7.38174C44.0909 7.66935 44.8387 8.3884 43.3335 8.26377Z" fill="#7EDE88"/>
</svg>
