<svg width="38" height="27" viewBox="0 0 38 27" fill="none" xmlns="http://www.w3.org/2000/svg">
<path d="M8.02 3.875H0.5V4.685H1.215V23.93C1.215 25.61 2.57999 26.975 4.25999 26.975C5.94499 26.975 7.305 25.61 7.305 23.93V4.685H8.02V3.875Z" fill="#54BEDE"/>
<path d="M6.91998 5.00586H1.60498V15.3259H6.91998V5.00586Z" fill="#ABF1FF"/>
<path d="M1.60498 15.3301V23.9301C1.60498 25.3951 2.79498 26.5901 4.26498 26.5901C5.72998 26.5901 6.92498 25.4001 6.92498 23.9301V15.3301H1.60498Z" fill="#7EDE88"/>
<path d="M2.81005 4.625H2.17505V24.345C2.17505 24.905 2.42505 25.405 2.81005 25.75V4.625Z" fill="white"/>
<path d="M4.31006 3.875V26.975C5.97006 26.95 7.31006 25.595 7.31006 23.93V4.685H8.02505V3.875H4.31006Z" fill="#287BA1"/>
<path d="M6.92006 5.00586H4.31006V15.3259H6.92006V5.00586Z" fill="#54BEDE"/>
<path d="M4.31006 15.3301V26.5851C5.75506 26.5601 6.92006 25.3801 6.92006 23.9301V15.3301H4.31006Z" fill="#4CA14D"/>
<path d="M37.7199 24.495L27.7149 9.84C27.2649 9.18 27.0249 8.4 27.0249 7.6V1.145H28.1749V0H20.2949V1.145H21.4449V7.6C21.4449 8.4 21.2049 9.18 20.7549 9.84L10.7499 24.495C10.0349 25.545 10.7849 26.97 12.0599 26.97H36.4099C37.6849 26.975 38.4399 25.55 37.7199 24.495Z" fill="#54BEDE"/>
<path d="M31.2249 15.8555L27.3199 10.1305C26.8149 9.38547 26.5449 8.52047 26.5449 7.62047V1.48047H21.9349V7.62047C21.9349 8.52047 21.6649 9.39047 21.1599 10.1305L17.2549 15.8555H31.2249Z" fill="#ABF1FF"/>
<path d="M31.24 15.8555H17.24L11.155 24.7705C10.92 25.1155 10.895 25.5355 11.09 25.9055C11.285 26.2705 11.65 26.4905 12.065 26.4905H36.415C36.83 26.4905 37.195 26.2705 37.39 25.9055C37.585 25.5405 37.56 25.1155 37.325 24.7705L31.24 15.8555Z" fill="#FFC000"/>
<path d="M23 1.1543H22.395V7.7693C22.395 8.5593 22.585 9.0593 20.81 11.6043C19.04 14.1443 14.02 21.5443 13.435 22.4193C12.85 23.2943 12.31 24.0443 12.02 24.5443C11.73 25.0443 11.855 25.5843 12.33 25.7943C12.81 26.0043 14.475 25.8993 14.475 25.8993C14.475 25.8993 21.81 12.5243 22.515 10.8593C23.225 9.1943 23.075 8.1093 23.055 6.6093C23.045 5.3243 23.01 2.0843 23 1.1543Z" fill="white"/>
<path d="M37.7199 24.495L27.7149 9.84C27.2649 9.18 27.0249 8.4 27.0249 7.6V1.145H28.1749V0H24.2699V26.97H36.4099C37.6849 26.975 38.4399 25.55 37.7199 24.495Z" fill="#287BA1"/>
<path d="M24.2748 1.48047V15.8555H31.2248L27.3198 10.1305C26.8148 9.38547 26.5448 8.52047 26.5448 7.62047V1.48047H24.2748Z" fill="#54BEDE"/>
<path d="M37.3248 24.7705L31.2398 15.8555H24.2748V26.4905H36.4148C36.8298 26.4905 37.1948 26.2705 37.3898 25.9055C37.5798 25.5355 37.5598 25.1155 37.3248 24.7705Z" fill="#E28D00"/>
</svg>
