<svg width="30" height="39" viewBox="0 0 30 39" fill="none" xmlns="http://www.w3.org/2000/svg">
<path d="M8.60034 6.41888C8.62253 6.31315 8.64726 6.20807 8.67454 6.10352" stroke="#304886" stroke-width="1.0639" stroke-miterlimit="10" stroke-linecap="round"/>
<path d="M8.86963 5.48113C9.28891 4.34005 10.0139 3.31085 10.9552 2.54065C12.1483 1.56442 13.6807 1.01118 15.2223 1.00014C16.8972 0.98815 18.6824 1.72078 19.4573 3.20556C20.0828 4.40353 19.9153 5.97004 19.0509 7.0088C18.7448 7.3767 18.3451 7.6875 17.8777 7.79025C17.4102 7.8931 16.8724 7.75235 16.5869 7.36821C16.1666 6.80245 16.4867 5.9002 17.1236 5.59842C17.7605 5.29665 18.559 5.52147 19.0703 6.00656C19.5816 6.49165 19.8441 7.18755 19.9675 7.88143C20.2308 9.36366 19.9092 10.9417 19.0868 12.2027C18.3828 13.2819 17.3184 14.119 16.1092 14.5614" stroke="#304886" stroke-width="1.0639" stroke-miterlimit="10" stroke-linecap="round" stroke-dasharray="6.14 6.14"/>
<path d="M15.7996 14.6641C15.6963 14.6955 15.592 14.724 15.4871 14.7496" stroke="#304886" stroke-width="1.0639" stroke-miterlimit="10" stroke-linecap="round"/>
<path d="M10.5163 23.4683C10.4188 23.4243 10.3203 23.3828 10.2207 23.3438" stroke="#304886" stroke-width="1.0534" stroke-miterlimit="10" stroke-linecap="round"/>
<path d="M9.60933 23.1363C8.45169 22.8064 7.20521 22.7863 6.03993 23.0906C4.5629 23.4761 3.22651 24.3797 2.31875 25.607C1.33243 26.9403 0.87759 28.7962 1.61382 30.2823C2.20782 31.4815 3.55907 32.261 4.8945 32.175C5.36739 32.1446 5.84919 32.006 6.20404 31.6918C6.55888 31.3778 6.76003 30.8652 6.61907 30.4128C6.41145 29.7465 5.50272 29.4765 4.88973 29.8102C4.27683 30.1439 3.99109 30.914 4.0811 31.6061C4.17111 32.2982 4.575 32.914 5.05839 33.4174C6.09099 34.4925 7.54149 35.1554 9.03009 35.2326C10.3043 35.2986 11.5949 34.9349 12.6541 34.2253" stroke="#304886" stroke-width="1.0534" stroke-miterlimit="10" stroke-linecap="round" stroke-dasharray="6.08 6.08"/>
<path d="M12.9177 34.0381C13.0031 33.9738 13.0867 33.907 13.1683 33.8379" stroke="#304886" stroke-width="1.0534" stroke-miterlimit="10" stroke-linecap="round"/>
<path d="M12.3161 7.41236L11.6396 6.27956C12.0925 5.93448 12.4507 5.45448 12.6452 4.87344C13.1607 3.33357 12.3332 1.66844 10.7968 1.15405C10.7541 1.13972 10.7113 1.12688 10.6684 1.11467C10.6578 1.1117 10.6472 1.10873 10.6366 1.10576C10.5939 1.09408 10.5511 1.08304 10.5082 1.07338C10.507 1.07317 10.506 1.07296 10.5048 1.07264C10.4628 1.06319 10.4208 1.05512 10.3788 1.04759C10.3682 1.04568 10.3576 1.04387 10.347 1.04207C10.3042 1.03496 10.2613 1.02838 10.2185 1.02317C10.2163 1.02286 10.2141 1.02275 10.2118 1.02243C10.1709 1.01755 10.1299 1.01373 10.0889 1.01065C10.0783 1.0098 10.0678 1.00906 10.0572 1.00831C10.0146 1.00555 9.97194 1.00332 9.92948 1.00248C9.9264 1.00237 9.92332 1.00248 9.92025 1.00237C9.88023 1.00163 9.84042 1.00194 9.80062 1.00279C9.79011 1.00301 9.7796 1.00333 9.76909 1.00364C9.72695 1.00502 9.68492 1.00715 9.6431 1.01033C9.63917 1.01065 9.63535 1.01107 9.63142 1.01139C9.59268 1.01458 9.55404 1.01861 9.51551 1.02328C9.50521 1.02455 9.49502 1.02572 9.48473 1.0271C9.44333 1.03262 9.40204 1.03867 9.36096 1.046C9.3565 1.04674 9.35215 1.04769 9.34769 1.04854C9.32275 1.05311 9.29791 1.05767 9.27307 1.06277L9.2719 1.06383C8.28293 1.27007 7.4258 1.98179 7.08146 3.01056C6.5659 4.55043 7.39353 6.21566 8.9299 6.72994L12.0303 7.76795C12.2442 7.83982 12.4318 7.60608 12.3161 7.41236Z" fill="#EFC83E" stroke="white" stroke-width="1.8778" stroke-miterlimit="10"/>
<path d="M10.8712 3.48435C10.9454 3.48435 11.0057 3.42395 11.0057 3.34986C11.0057 3.27514 10.9454 3.21484 10.8712 3.21484H8.88229C8.80809 3.21484 8.7478 3.27524 8.7478 3.34933C8.7478 3.42406 8.8082 3.48435 8.88229 3.48435H10.8712Z" fill="white"/>
<path d="M10.4515 4.57039C10.5256 4.57039 10.5859 4.51 10.5859 4.43591C10.5859 4.36118 10.5256 4.30078 10.4515 4.30078H9.14669C9.0725 4.30078 9.01221 4.36118 9.01221 4.43527C9.01221 4.51 9.0726 4.57029 9.14669 4.57029L10.4515 4.57039Z" fill="white"/>
<path d="M10.4223 10.5496C10.4114 11.522 11.0076 12.5175 12.2036 12.4912L13.056 13.8769L13.6063 10.8274C13.6319 10.6215 13.2603 10.13 13.0799 10.0261C12.586 9.74358 12.3158 9.49891 11.7583 9.61504C11.7583 9.61504 10.4362 9.29309 10.4223 10.5496Z" fill="#222941"/>
<path d="M10.8888 10.2139C11.0362 9.84353 10.9728 9.39708 10.728 9.08246C10.6354 8.96337 10.5127 8.85955 10.3653 8.82718C10.1611 8.78239 9.9501 8.88312 9.79321 9.02132C9.62316 9.17109 9.49345 9.37192 9.45184 9.59473C9.41034 9.81742 9.46362 10.0612 9.6135 10.2312C9.68972 10.3175 9.78737 10.3825 9.89033 10.4341C10.0462 10.5123 10.2224 10.5618 10.3948 10.5366C10.5673 10.5113 10.7337 10.4001 10.7902 10.2352L10.8888 10.2139Z" fill="#222941"/>
<path d="M13.094 12.2704C13.094 12.0586 13.2657 11.8867 13.4776 11.8867C13.6895 11.8867 13.8612 12.0585 13.8612 12.2704C13.8612 12.4823 13.6895 12.6541 13.4776 12.6541C13.2657 12.6541 13.094 12.4823 13.094 12.2704Z" fill="#CD5B62"/>
<path d="M11.8759 11.5429C11.8588 11.5643 11.613 11.5607 11.5856 11.5606C11.4711 11.5601 11.2069 11.5357 11.1696 11.8352C11.1319 12.138 11.4203 12.3083 11.594 12.3178C11.6441 12.3205 11.7597 12.3307 11.7937 12.3677C11.8981 12.4812 11.7876 13.3633 11.868 13.6726C12.0454 14.3559 11.6682 14.034 11.6682 14.034C11.6682 14.034 14.1172 16.6456 13.4412 14.0318C13.4412 14.0318 13.2997 12.4093 13.308 12.401C13.4477 12.2613 13.9904 12.2013 13.6492 11.0448C13.3332 9.97342 12.5472 10.0496 12.3473 10.0851C12.1786 10.1149 12.7247 10.4813 11.8759 11.5429Z" fill="#EECFC2"/>
<path d="M13.3704 10.2289C13.4641 10.5656 12.4338 10.8171 12.1061 10.1887C12.1061 10.1887 12.0696 9.54645 12.5664 9.49815C12.8229 9.47331 13.1803 9.54613 13.3704 10.2289Z" fill="#222941"/>
<path d="M11.2996 11.9213C11.2996 11.9213 11.4795 11.5417 11.7078 12.0503L11.2996 11.9213Z" fill="#E6B6B3"/>
<path d="M13.5226 11.6387L13.0332 11.8825C13.0332 11.8825 13.2727 12.0567 13.402 11.9614C13.5315 11.866 13.5226 11.6387 13.5226 11.6387Z" fill="white"/>
<path d="M12.5741 11.1999C12.5317 11.2592 12.5563 11.0521 12.626 11.0046C12.6958 10.9569 12.7857 10.9672 12.8269 11.0275C12.8269 11.0275 12.6761 11.0573 12.5741 11.1999Z" fill="#F3D837"/>
<path d="M13.3948 10.7393C13.465 10.759 13.3163 10.6129 13.232 10.6193C13.1479 10.6258 13.0841 10.6902 13.0897 10.7629C13.0897 10.7629 13.2261 10.6918 13.3948 10.7393Z" fill="#F3D837"/>
<path d="M12.5741 11.1999C12.5317 11.2592 12.5563 11.0521 12.626 11.0046C12.6958 10.9569 12.7857 10.9672 12.8269 11.0275C12.8269 11.0275 12.6761 11.0573 12.5741 11.1999Z" fill="#222941"/>
<path d="M13.3948 10.7393C13.465 10.759 13.3163 10.6129 13.232 10.6193C13.1479 10.6258 13.0841 10.6902 13.0897 10.7629C13.0897 10.7629 13.2261 10.6918 13.3948 10.7393Z" fill="#222941"/>
<path d="M12.8021 11.4099C12.8258 11.4684 12.8679 11.5065 12.8963 11.4951C12.9246 11.4837 12.9284 11.427 12.9049 11.3685C12.8812 11.31 12.839 11.2719 12.8107 11.2833C12.7824 11.2946 12.7784 11.3514 12.8021 11.4099Z" fill="#222941"/>
<path d="M13.2555 11.1933C13.2781 11.2491 13.3184 11.2856 13.3454 11.2747C13.3725 11.2637 13.3762 11.2096 13.3536 11.1537C13.3311 11.0978 13.2908 11.0613 13.2637 11.0722C13.2366 11.0832 13.2329 11.1374 13.2555 11.1933Z" fill="#222941"/>
<path d="M13.3077 12.4004C13.3077 12.4004 12.7968 12.498 12.5389 12.4814C12.2809 12.4647 13.3702 13.1804 13.3077 12.4004Z" fill="#E6B6B3"/>
<path d="M13.0741 11.1273C13.1173 11.1992 13.1744 11.2661 13.2369 11.3221C13.2955 11.3745 13.3771 11.402 13.4316 11.4568C13.5018 11.5276 13.4473 11.6309 13.352 11.6292C13.3285 11.6287 13.3171 11.6004 13.3331 11.5835C13.3547 11.5606 13.3897 11.5397 13.3556 11.4946C13.3472 11.4834 13.3206 11.475 13.3088 11.4677C13.2686 11.4432 13.2307 11.4152 13.1956 11.384C13.1217 11.3183 13.0725 11.2412 13.032 11.1518C13.0195 11.1239 13.0576 11.0999 13.0741 11.1273Z" fill="#222941"/>
<path d="M11.406 12.4247C11.406 12.2129 11.5777 12.041 11.7896 12.041C12.0015 12.041 12.1732 12.2128 12.1732 12.4247C12.1732 12.6366 12.0015 12.8085 11.7896 12.8085C11.5777 12.8084 11.406 12.6366 11.406 12.4247Z" fill="#CD5B62"/>
<path d="M13.0278 36.0123L13.2137 37.332C13.2137 37.332 13.5118 38.2072 13.7886 37.8685C14.0654 37.5296 14.3393 37.3506 14.3393 37.3506L14.4301 35.9785L13.0278 36.0123Z" fill="#E3AEAD"/>
<path d="M13.7522 36.0625L13.8557 38.2395C13.8557 38.2395 12.9798 38.371 13.3052 37.7847L13.0581 36.1582L13.7522 36.0625Z" fill="#E6B6B3"/>
<path d="M14.4304 37.3434L15.5356 38.2393C15.5922 38.2814 15.5518 38.3521 15.4709 38.3527C15.4709 38.3527 13.0818 38.3391 13.0784 38.3042C13.057 38.0876 13.1576 37.3287 13.1964 37.1315C13.2021 37.1032 13.4523 38.065 13.4969 37.9755C13.5565 37.8566 14.244 37.3916 14.2948 37.3468C14.3292 37.3165 14.3926 37.3154 14.4304 37.3434Z" fill="#394971"/>
<path d="M8.48566 36.0123L7.98422 37.332C7.98422 37.332 7.68616 38.2072 7.40933 37.8685C7.13261 37.5296 6.85864 37.3506 6.85864 37.3506L7.08336 35.9785L8.48566 36.0123Z" fill="#E3AEAD"/>
<path d="M7.76111 36.0625L7.34204 38.2395C7.34204 38.2395 8.21796 38.371 7.89252 37.7847L8.4552 36.1582L7.76111 36.0625Z" fill="#E6B6B3"/>
<path d="M6.76733 37.3426L5.66213 38.2385C5.60556 38.2806 5.64589 38.3513 5.72677 38.3519C5.72677 38.3519 8.11593 38.3383 8.11932 38.3034C8.14077 38.0868 8.11922 37.1562 8.09364 37.1562C8.00055 37.1562 7.88845 38.0396 7.70079 37.9747C7.575 37.9312 6.95373 37.3908 6.90288 37.346C6.8686 37.3157 6.80512 37.3146 6.76733 37.3426Z" fill="#394971"/>
<path d="M10.7819 18.5709C10.2752 19.4667 10.0073 20.1228 9.71614 21.2617C9.37849 22.5825 6.53959 34.3856 6.38037 36.788C6.79657 36.8884 8.53441 37.0328 8.79744 37.0183C9.63419 34.6206 11.9615 26.0435 12.3202 24.5331C12.3754 24.3009 12.7341 24.3519 12.7062 24.5889C12.5025 26.3138 12.4422 33.8724 12.3655 36.8266C12.5837 36.9377 14.6839 36.8582 14.936 36.8266C15.2102 33.8681 16.0584 22.1565 13.8618 18.526C12.8573 18.3872 11.8003 18.5406 10.7819 18.5709Z" fill="#CD5B62"/>
<path d="M13.5164 18.5645C13.5164 18.5645 14.5522 21.1178 14.5522 24.2427C14.5522 27.3675 14.3604 35.4839 14.3604 35.4839" stroke="#394971" stroke-width="0.2475" stroke-miterlimit="10"/>
<path d="M7.70386 35.2712L11.3082 18.6582" stroke="#394971" stroke-width="0.2475" stroke-miterlimit="10"/>
<path opacity="0.3" d="M13.9001 18.602L9.44971 22.2852C9.44971 22.2852 10.0961 19.9047 10.8309 18.5254L13.9001 18.602Z" fill="#394971"/>
<path d="M12.3655 35.4824L15.0127 35.5208" stroke="#394971" stroke-width="0.2475" stroke-miterlimit="10"/>
<path d="M6.61035 35.2917L9.36826 35.2891" stroke="#394971" stroke-width="0.2475" stroke-miterlimit="10"/>
<path d="M17.9958 16.0974C17.9958 16.0974 15.2927 19.846 14.6592 19.3991C14.6592 19.3991 13.9325 18.8862 14.298 16.7919C14.2987 16.5885 14.2997 16.4475 14.2925 16.4156C14.2925 16.4156 14.1354 14.348 13.7955 13.9198C13.7582 13.8728 13.6455 13.7854 13.6606 13.7817C14.6986 13.5222 15.0957 16.1317 15.3818 17.3389C15.3937 17.3889 17.3751 15.4593 17.3751 15.4593C17.3751 15.4593 18.413 14.0871 18.4854 14.1655C18.5902 14.2792 18.1881 14.8911 18.1881 14.8911C18.1881 14.8911 18.2144 14.9611 18.293 14.996C18.3717 15.0309 18.4154 15.0835 18.4416 15.1884C18.4678 15.2932 18.5728 15.3545 18.5902 15.4156C18.6077 15.4766 18.2172 15.9371 17.9958 16.0974Z" fill="#EECFC2"/>
<path d="M17.4099 15.4504C17.4099 15.4504 17.6198 14.8559 17.7071 14.8734C17.7946 14.8909 18.1793 15.057 18.1705 15.2056C18.1618 15.3542 17.8295 15.2318 17.8295 15.2318C17.8295 15.2318 17.8908 15.564 17.7246 15.6077C17.5586 15.6516 17.4099 15.4504 17.4099 15.4504Z" fill="#EECFC2"/>
<path d="M17.9257 15.207C17.9257 15.207 17.917 15.3556 18.0393 15.3819C18.0393 15.3819 18.0656 15.5393 18.223 15.5042C18.223 15.5042 18.1792 15.5742 18.2754 15.5917C18.2754 15.5917 17.8644 16.0376 17.9257 15.207Z" fill="#E6B6B3"/>
<path d="M17.8473 14.918C17.9707 14.9702 18.093 15.0142 18.2087 15.0847C18.2276 15.0993 18.2476 15.1174 18.2569 15.1468C18.2667 15.1764 18.2535 15.2114 18.2336 15.2294C18.1388 15.3112 18.0157 15.2906 17.915 15.2972C17.9078 15.2968 17.9142 15.326 17.9165 15.3464L17.9302 15.4774L17.9277 15.4779L17.903 15.3489C17.9019 15.3284 17.8863 15.3043 17.9035 15.2844C17.9232 15.2698 17.9473 15.2765 17.9684 15.2752C18.054 15.275 18.1485 15.268 18.2151 15.2107C18.2307 15.1963 18.2389 15.1741 18.2328 15.1536C18.2086 15.0908 18.1333 15.0723 18.0799 15.0404C18.0803 15.0394 17.8399 14.921 17.8473 14.918Z" fill="#394971"/>
<path d="M18.1975 14.875C18.1769 14.9391 18.1259 14.989 18.0625 15.0114C18.0969 14.9675 18.1536 14.9101 18.1975 14.875Z" fill="#394971"/>
<path d="M18.3756 15.0957C18.3221 15.1957 18.0417 15.4976 17.9355 15.3546C17.9694 15.3853 18.0195 15.3875 18.0612 15.3604C18.179 15.2913 18.2842 15.1894 18.3756 15.0957Z" fill="#394971"/>
<path d="M18.0337 15.3811C18.0999 15.6099 18.2407 15.48 18.3509 15.3672C18.3892 15.333 18.4283 15.2866 18.4689 15.2598C18.436 15.3013 18.4015 15.3416 18.366 15.381C18.2572 15.5183 18.0653 15.6362 18.0337 15.3811Z" fill="#394971"/>
<path d="M18.2154 15.4766C18.2266 15.5194 18.2468 15.5664 18.2768 15.5966C18.3099 15.6136 18.3552 15.6014 18.3964 15.5909C18.4311 15.5864 18.4547 15.584 18.4841 15.5632L18.4861 15.5649C18.4665 15.5919 18.434 15.6055 18.4028 15.6124C18.3593 15.6272 18.3013 15.6445 18.261 15.6129C18.2323 15.5774 18.209 15.5176 18.2154 15.4766Z" fill="#394971"/>
<path d="M13.4117 13.7397C13.4117 13.7397 14.3326 13.6862 14.6007 14.2341C14.8689 14.782 15.4633 17.2298 15.4633 17.2298L15.9669 16.7812L16.608 17.9468C16.608 17.9468 15.405 19.7825 14.729 19.5727C14.0529 19.3628 13.4039 14.4866 13.4117 13.7397Z" fill="#394971"/>
<path opacity="0.3" d="M15.5788 17.7844C15.7402 18.0794 15.9068 18.3706 16.0757 18.6603C15.6685 19.1504 15.1136 19.693 14.729 19.5736C14.119 19.3842 13.531 15.3961 13.4277 14.0703C14.124 15.3185 14.8918 16.5292 15.5788 17.7844Z" fill="#394971"/>
<path d="M13.4205 13.7669C13.3912 13.8378 14.6015 16.0221 14.5667 16.7176C14.5316 17.4183 14.0711 18.4835 14.1084 18.589C14.1084 18.589 12.0281 18.6048 10.7348 18.6203C9.81284 17.8137 10.2269 14.7246 10.5367 13.8565C10.5367 13.8565 11.5594 13.3898 11.8136 13.3711C11.8136 13.3711 13.7647 16.5419 13.4205 13.7669Z" fill="#394971"/>
<g opacity="0.3">
<path d="M10.4883 14.3408C10.4883 14.3408 10.7182 14.1368 10.9899 13.916C11.0094 13.949 11.0302 13.9815 11.0498 14.0144C10.9225 14.1841 10.9663 14.3801 11.0354 14.6517C11.4059 16.1072 11.5785 16.9512 12.1924 18.6393C11.4435 18.6564 11.6381 18.6093 10.7344 18.6201C9.81256 17.8136 10.1786 15.2089 10.4883 14.3408Z" fill="#394971"/>
</g>
<path d="M10.9551 23.1556L8.23193 21.8274L10.0094 18.1543L12.7326 19.4826L10.9551 23.1556Z" fill="white"/>
<path opacity="0.3" d="M10.9551 23.1556L8.23193 21.8274L10.0094 18.1543L12.7326 19.4826L10.9551 23.1556Z" fill="white"/>
<path d="M12.1294 19.3043L10.5996 18.5581L10.701 18.3503C10.7164 18.3186 10.7546 18.3055 10.7862 18.321L12.2015 19.0113C12.2331 19.0267 12.2463 19.0649 12.2308 19.0966L12.1294 19.3043Z" fill="#C94B58"/>
<path d="M11.6603 18.3247C11.5329 18.2625 11.3829 18.308 11.3253 18.426C11.2677 18.5442 11.3242 18.6902 11.4517 18.7524C11.5791 18.8145 11.7291 18.7692 11.7867 18.6511C11.8443 18.533 11.7877 18.3869 11.6603 18.3247ZM11.5065 18.6399C11.4462 18.6105 11.4193 18.5413 11.4466 18.4853C11.4739 18.4294 11.545 18.4079 11.6053 18.4374C11.6656 18.4668 11.6925 18.536 11.6652 18.5919C11.6379 18.6479 11.5669 18.6693 11.5065 18.6399Z" fill="#C94B58"/>
<path d="M7.359 17.2828C7.72829 17.9215 8.34532 18.7398 8.82531 19.3467C8.82531 19.3467 8.82765 19.3498 8.83073 19.3537C8.85238 19.3855 8.9322 19.5047 8.93369 19.507C9.15203 19.7966 9.41602 20.1426 9.65676 20.4523C9.77904 20.6079 9.89527 20.755 9.99739 20.8812C9.99898 20.8835 10.0012 20.885 10.0028 20.8866C10.2072 21.1405 10.3558 21.3085 10.3759 21.2938C10.427 21.2597 10.2459 20.9586 10.1382 20.7975C10.2288 20.9129 10.3287 21.0469 10.4138 21.1522C10.509 21.2676 10.5872 21.3473 10.6174 21.3294C10.6693 21.2993 10.5168 21.0121 10.3851 20.8069C10.3696 20.7822 10.3541 20.7589 10.3395 20.738C10.3534 20.7542 10.3682 20.7721 10.3844 20.793C10.5447 20.9927 10.8242 21.3891 10.8736 21.3581C10.9441 21.314 10.639 20.7899 10.5895 20.7039C10.6414 20.7806 10.9433 21.2281 11.0037 21.1537C11.0284 21.1234 10.9224 20.9469 10.8147 20.7712C10.7102 20.6017 10.6034 20.4344 10.6104 20.4019C10.6197 20.3578 10.7063 20.4647 10.773 20.5204C10.8071 20.5498 10.8357 20.5646 10.8458 20.5406C10.8536 20.5212 10.787 20.3927 10.6855 20.2169C10.4185 19.7562 9.91374 18.9666 9.89198 18.9334C9.89124 18.9327 9.89124 18.9327 9.89124 18.9327C9.56611 18.3544 9.186 17.5229 8.96224 17.0761C9.20383 16.847 11.8987 13.9639 11.8987 13.9639C11.8987 13.9639 11.0409 13.2486 9.74338 14.2914C8.55273 15.249 7.78083 15.9636 7.39063 16.466C7.16231 16.7587 7.17399 16.9623 7.359 17.2828Z" fill="#EECFC2"/>
<path d="M8.96225 17.0757C9.01691 17.1846 9.37951 17.8211 9.44967 17.9666C9.04907 18.207 8.31125 18.6994 7.915 18.9468C7.69029 18.6309 7.38607 17.5768 7.22441 17.2971C7.03876 16.9759 7.16274 16.7585 7.39064 16.4658C7.78147 15.9639 8.55316 15.249 9.7437 14.2917C11.041 13.2487 11.899 13.9636 11.899 13.9636C11.899 13.9636 13.0433 14.7008 8.96225 17.0757Z" fill="#394971"/>
<g opacity="0.3">
<path d="M14.0468 15.5191C13.5336 15.8452 13.0258 16.2494 12.6601 16.7397C12.4955 16.9603 12.3609 17.2225 12.3598 17.5039C12.3591 17.6967 12.4295 17.9351 12.6279 18.0106C12.8318 18.0882 13.0364 17.9388 13.1197 17.7585C13.2315 17.5167 13.2034 17.2082 13.1578 16.9538C13.0515 16.36 12.7149 15.8305 12.3419 15.368C11.8698 14.7825 11.3232 14.256 10.7321 13.7919C10.703 13.769 10.6616 13.8099 10.691 13.8329C11.1284 14.1764 11.5386 14.5534 11.9149 14.963C12.2787 15.359 12.6258 15.7837 12.8643 16.2688C12.9798 16.5036 13.0677 16.7535 13.1091 17.0125C13.1509 17.2748 13.1841 17.6547 12.9822 17.8616C12.881 17.9653 12.7181 18.0135 12.5911 17.926C12.472 17.8437 12.4248 17.6841 12.4186 17.5469C12.4065 17.2758 12.5292 17.0201 12.684 16.8048C13.0429 16.306 13.5616 15.8962 14.0761 15.5693C14.1075 15.5492 14.0785 15.499 14.0468 15.5191Z" fill="#6B6EAD"/>
</g>
<g opacity="0.3">
<path d="M10.0214 14.1881C9.98267 14.9287 9.67707 15.6482 9.15727 16.1799C8.63737 16.7117 7.92735 17.0355 7.18708 17.0921C7.15004 17.095 7.14972 17.153 7.18708 17.1502C7.94232 17.0924 8.66783 16.7644 9.19835 16.2209C9.72877 15.6776 10.0399 14.9446 10.0795 14.1882C10.0815 14.1508 10.0233 14.1509 10.0214 14.1881Z" fill="#6B6EAD"/>
</g>
<g opacity="0.3">
<path d="M8.08038 15.7697C8.36549 16.5922 8.25542 17.5165 7.78476 18.2488C7.76449 18.2803 7.81469 18.3095 7.83486 18.2781C8.31316 17.534 8.4261 16.5901 8.13632 15.7543C8.12422 15.7192 8.06817 15.7343 8.08038 15.7697Z" fill="#6B6EAD"/>
</g>
<g opacity="0.3">
<path d="M14.2553 13.9894C14.1877 14.2463 14.2421 14.5391 14.2844 14.7959C14.3433 15.1529 14.4287 15.506 14.526 15.8544C14.6121 16.1623 14.7193 16.462 14.8217 16.7648C14.9276 17.0777 15.0297 17.3953 15.1852 17.688C15.3764 18.048 15.6527 18.3472 15.9508 18.6216C15.9783 18.6469 16.0194 18.6059 15.9919 18.5805C15.7225 18.3327 15.4689 18.065 15.2841 17.7466C15.1242 17.4713 15.0202 17.1692 14.9182 16.869C14.7081 16.2506 14.5053 15.6375 14.3792 14.995C14.319 14.6881 14.2294 14.3159 14.3113 14.0049C14.3208 13.9687 14.2649 13.9532 14.2553 13.9894Z" fill="#6B6EAD"/>
</g>
<g opacity="0.3">
<path d="M16.387 17.9081C16.0459 17.715 15.622 17.8012 15.3126 18.0179C14.9568 18.267 14.7454 18.6672 14.5473 19.0416C14.5299 19.0747 14.58 19.1041 14.5974 19.0709C14.7805 18.7246 14.9716 18.3625 15.2825 18.1126C15.5778 17.8752 16.0124 17.7628 16.3575 17.9582C16.3902 17.9767 16.4195 17.9265 16.387 17.9081Z" fill="#6B6EAD"/>
</g>
<path d="M21.5191 13.1323L21.3001 13.118L21.318 12.8385C21.3221 12.7755 21.2738 12.7212 21.2105 12.717C21.1474 12.713 21.0926 12.7606 21.0886 12.8235L21.0705 13.1031L20.8519 13.0888C20.8 13.0854 20.7552 13.1243 20.7519 13.1757C20.7487 13.2272 20.788 13.2715 20.8397 13.2749L21.0588 13.2892L21.0076 14.0861C21.0036 14.1491 21.0516 14.2034 21.1152 14.2075C21.1782 14.2116 21.2332 14.164 21.2371 14.1012L21.2881 13.3041L21.5069 13.3185C21.5587 13.3219 21.6033 13.2829 21.6068 13.2314C21.6103 13.18 21.5709 13.1357 21.5191 13.1323Z" fill="#EFC83E"/>
<path d="M29.0077 13.2726L28.7888 13.2585L28.8066 12.979C28.8106 12.9161 28.7624 12.8618 28.6992 12.8577C28.6359 12.8535 28.5812 12.9012 28.5772 12.964L28.5593 13.2435L28.3403 13.2293C28.2886 13.2259 28.2438 13.2649 28.2404 13.3163C28.2372 13.3678 28.2767 13.4122 28.3282 13.4156L28.5472 13.4299L28.4962 14.227C28.4922 14.2898 28.5403 14.3442 28.6036 14.3483C28.6669 14.3523 28.7217 14.3048 28.7257 14.2418L28.7768 13.4449L28.9955 13.4592C29.0474 13.4626 29.0922 13.4236 29.0953 13.3722C29.0988 13.3205 29.0593 13.276 29.0077 13.2726Z" fill="#EFC83E"/>
<path d="M28.0945 10.6888L27.8755 10.6745L27.8933 10.395C27.8974 10.3322 27.8493 10.2778 27.786 10.2737C27.7225 10.2695 27.668 10.3171 27.6639 10.38L27.646 10.6594L27.4271 10.6451C27.3753 10.6417 27.3307 10.6808 27.3274 10.7321C27.324 10.7836 27.3634 10.8281 27.4151 10.8315L27.6342 10.8457L27.5832 11.6429C27.579 11.7057 27.627 11.7601 27.6905 11.7642C27.7537 11.7682 27.8085 11.7207 27.8124 11.6579L27.8635 10.8608L28.0825 10.875C28.1342 10.8784 28.1789 10.8395 28.1822 10.788C28.1854 10.7367 28.1463 10.6922 28.0945 10.6888Z" fill="#EFC83E"/>
<path d="M22.6474 10.4231L22.4285 10.4089L22.4463 10.1294C22.4505 10.0664 22.4022 10.0121 22.3389 10.0081C22.2755 10.0039 22.221 10.0515 22.2168 10.1144L22.199 10.3939L21.9801 10.3797C21.9283 10.3763 21.8836 10.4152 21.8803 10.4667C21.8768 10.5181 21.9164 10.5626 21.9681 10.566L22.187 10.5803L22.1361 11.3774C22.1319 11.4403 22.18 11.4945 22.2435 11.4987C22.3067 11.5028 22.3615 11.4552 22.3654 11.3923L22.4165 10.5954L22.6354 10.6096C22.6871 10.613 22.7317 10.574 22.7353 10.5226C22.7384 10.4709 22.6992 10.4264 22.6474 10.4231Z" fill="#EFC83E"/>
<path d="M23.1431 9.45472C23.1431 9.45472 24.7578 4.53057 25.1111 4.75762C25.491 5.00165 26.9184 9.52838 26.9184 9.52838L25.2994 9.91264L23.1431 9.45472Z" fill="#304886"/>
<path d="M23.1064 10.3596C23.1477 10.2704 23.1431 9.4559 23.1431 9.4559C23.1431 9.4559 25.4403 9.20932 26.9185 9.52946L26.9097 10.4677C26.9097 10.4677 25.8932 11.1065 25.7687 11.0927C25.6441 11.0789 23.1064 10.3596 23.1064 10.3596Z" fill="#E0A248"/>
<path d="M23.7547 11.4345C23.7523 11.4999 23.6971 11.5507 23.6315 11.5481L23.4923 11.5426C23.4267 11.5401 23.3754 11.485 23.378 11.4197L23.4369 9.86346C23.4395 9.79829 23.4947 9.74745 23.5604 9.7501L23.6993 9.75551C23.7649 9.75817 23.8163 9.81315 23.8138 9.87843L23.7547 11.4345Z" fill="#2C4175"/>
<path d="M24.6729 11.4618C24.6705 11.5271 24.6154 11.578 24.5495 11.5754L24.4105 11.5699C24.3449 11.5674 24.2936 11.5124 24.296 11.447L24.3551 9.89091C24.3574 9.82563 24.4128 9.77489 24.4785 9.77744L24.6175 9.78285C24.6831 9.7854 24.7344 9.84049 24.732 9.90577L24.6729 11.4618Z" fill="#2C4175"/>
<path d="M25.6134 11.4735C25.611 11.5388 25.5557 11.5896 25.4901 11.5871L25.3511 11.5816C25.2855 11.5789 25.2341 11.5239 25.2367 11.4587L25.2956 9.90263C25.298 9.83735 25.3534 9.78651 25.419 9.78916L25.558 9.79468C25.6235 9.79723 25.6749 9.85221 25.6724 9.91749L25.6134 11.4735Z" fill="#2C4175"/>
<path d="M26.5485 11.5225C26.546 11.5877 26.4909 11.6385 26.4252 11.636L26.2861 11.6306C26.2205 11.6279 26.1692 11.573 26.1717 11.5077L26.2308 9.95156C26.2333 9.88628 26.2886 9.83543 26.3542 9.83798L26.4932 9.84361C26.5586 9.84615 26.6102 9.90114 26.6077 9.96642L26.5485 11.5225Z" fill="#2C4175"/>
<path d="M26.9098 10.468C26.9098 10.468 24.6656 9.94796 23.1067 10.3599L22.1462 11.3493L22.2274 12.3287L27.6674 12.4614L27.815 11.6951L26.9098 10.468Z" fill="#304886"/>
<path d="M22.842 13.618L22.1873 13.2638L22.2273 12.3291C22.2273 12.3291 24.5693 11.9622 27.6672 12.4617L27.6409 13.2728L25.9257 13.9595L22.842 13.618Z" fill="#EFC83E"/>
<path d="M23.152 14.3056C23.151 14.3743 23.0946 14.4294 23.0252 14.4286L22.879 14.4268C22.8098 14.426 22.7543 14.3697 22.7549 14.3009L22.7716 12.662C22.7723 12.5932 22.8289 12.5382 22.898 12.5391L23.0443 12.5408C23.1137 12.5416 23.1692 12.598 23.1683 12.6667L23.152 14.3056Z" fill="#2C4175"/>
<path d="M24.1188 14.3095C24.118 14.3783 24.0614 14.4332 23.9921 14.4324L23.8459 14.4307C23.7768 14.4298 23.7213 14.3735 23.7219 14.3048L23.7385 12.6659C23.7392 12.5971 23.7959 12.542 23.8652 12.543L24.0115 12.5447C24.0806 12.5456 24.1361 12.602 24.1353 12.6708L24.1188 14.3095Z" fill="#2C4175"/>
<path d="M25.1083 14.2941C25.1076 14.3627 25.0509 14.4178 24.9816 14.417L24.8353 14.4152C24.7661 14.4143 24.7106 14.358 24.7114 14.2892L24.728 12.6503C24.7286 12.5815 24.7853 12.5265 24.8546 12.5274L25.0008 12.5292C25.07 12.5299 25.1255 12.5864 25.1249 12.6552L25.1083 14.2941Z" fill="#2C4175"/>
<path d="M26.0933 14.3193C26.0926 14.3881 26.036 14.4432 25.9669 14.4423L25.8207 14.4406C25.7513 14.4396 25.6958 14.3832 25.6965 14.3146L25.7132 12.6758C25.7138 12.607 25.7706 12.5519 25.8397 12.5527L25.9859 12.5545C26.0552 12.5554 26.1107 12.6118 26.11 12.6804L26.0933 14.3193Z" fill="#2C4175"/>
<path d="M27.0143 14.3643C27.0136 14.4331 26.9569 14.4881 26.8879 14.4872L26.7415 14.4855C26.6724 14.4846 26.6168 14.4283 26.6174 14.3595L26.634 12.7207C26.6347 12.6519 26.6913 12.5968 26.7607 12.5977L26.9068 12.5995C26.976 12.6002 27.0315 12.6567 27.0309 12.7254L27.0143 14.3643Z" fill="#2C4175"/>
<path d="M20.9915 14.1013C20.9915 14.1013 22.0248 13.3078 22.1874 13.2632C22.3498 13.2186 23.5502 12.9132 27.6409 13.2722L28.7326 14.2383L25.9281 15.3679L20.9915 14.1013Z" fill="#E0A248"/>
<path d="M21.7307 36.7183L21.3865 20.5312L28.1908 20.5851L27.2215 36.8182L21.7307 36.7183Z" fill="#EFC83E"/>
<path d="M21.3864 20.5307L20.8962 19.2559L28.6928 19.4615L28.1908 20.5845L21.3864 20.5307Z" fill="#E0A248"/>
<path d="M20.8962 19.2562C20.8962 19.2562 20.5343 15.9602 20.9915 14.1012C20.9915 14.1012 24.0184 13.5284 28.7327 14.2382C28.7327 14.2382 29.2083 17.3587 28.6928 19.4618L20.8962 19.2562Z" fill="#EFC83E"/>
<path d="M21.4094 18.8966C21.4094 18.8966 21.1057 15.9548 21.5198 14.2976C21.5198 14.2976 24.2016 13.7969 28.3705 14.4459C28.3705 14.4459 28.7759 17.2317 28.3088 19.1063L21.4094 18.8966Z" fill="#EFC83E"/>
<path opacity="0.2" d="M28.3705 14.444C24.2016 13.795 21.5198 14.2957 21.5198 14.2957C21.1057 15.9529 21.4094 18.8947 21.4094 18.8947L28.3088 19.1043C28.7758 17.2299 28.3705 14.444 28.3705 14.444ZM28.0272 18.9008L21.7013 18.7087C21.7013 18.7087 21.4227 16.0113 21.8025 14.4918C21.8025 14.4918 24.2614 14.0326 28.0839 14.6277C28.0839 14.6277 28.4553 17.1821 28.0272 18.9008Z" fill="url(#paint0_linear_831_75815)"/>
<path d="M27.1528 16.74C27.0539 18.0193 25.892 18.9718 24.5576 18.8672C23.2235 18.7627 22.2218 17.6409 22.321 16.3616C22.4199 15.0823 23.5819 14.1299 24.9161 14.2344C26.2503 14.3388 27.2518 15.4606 27.1528 16.74Z" fill="url(#paint1_radial_831_75815)"/>
<path d="M26.9315 16.7226C27.0214 15.5605 26.1117 14.5415 24.8998 14.4466C23.6876 14.3517 22.6323 15.2168 22.5425 16.3789C22.4524 17.5409 23.3623 18.5599 24.574 18.6548C25.7861 18.7498 26.8415 17.8846 26.9315 16.7226ZM24.5849 18.5132C23.4549 18.4248 22.606 17.4743 22.69 16.3903C22.7738 15.3064 23.7583 14.4995 24.8887 14.5881C26.0193 14.6766 26.8677 15.6271 26.7837 16.711C26.7001 17.7949 25.7155 18.6018 24.5849 18.5132Z" fill="#2C4175"/>
<path d="M26.5599 16.6934C26.6346 15.7282 25.8789 14.8816 24.8721 14.8028C23.8655 14.724 22.9887 15.4425 22.914 16.4078C22.8392 17.3731 23.5951 18.2196 24.6016 18.2983C25.6084 18.3773 26.4851 17.6587 26.5599 16.6934ZM24.605 18.2551C23.6233 18.1784 22.8861 17.3527 22.9591 16.4114C23.032 15.47 23.887 14.7692 24.8687 14.8462C25.8506 14.923 26.5876 15.7487 26.5145 16.69C26.4418 17.6313 25.5869 18.3321 24.605 18.2551Z" fill="#2C4175"/>
<path d="M25.2405 4.35957L25.2358 3.08645C25.2354 3.0235 25.184 2.97244 25.1206 2.97266C25.0571 2.97276 25.0057 3.02382 25.0061 3.08687L25.0108 4.35989C24.8596 4.40829 24.7503 4.54947 24.751 4.71591C24.7517 4.92215 24.9208 5.08901 25.1283 5.08869C25.3359 5.08838 25.5038 4.92088 25.503 4.71463C25.5024 4.5483 25.3921 4.40755 25.2405 4.35957Z" fill="#EFC83E"/>
<mask id="mask0_831_75815" style="mask-type:luminance" maskUnits="userSpaceOnUse" x="20" y="19" width="9" height="2">
<path d="M21.3864 20.5307L20.8962 19.2559L28.6928 19.4615L28.1908 20.5845L21.3864 20.5307Z" fill="white"/>
</mask>
<g mask="url(#mask0_831_75815)">
<path d="M22.378 21.6556C22.3805 21.7243 22.3236 21.7821 22.2504 21.7847L22.1182 21.7893C22.0452 21.7921 21.984 21.7383 21.9813 21.6698L21.9107 19.8038C21.9083 19.7352 21.9654 19.6773 22.0383 19.6747L22.1706 19.67C22.2436 19.6675 22.3047 19.7211 22.3074 19.7897L22.378 21.6556Z" fill="#304886"/>
<path d="M23.31 21.6582C23.3101 21.7269 23.2507 21.7826 23.1778 21.7825L23.0455 21.7822C22.9723 21.7822 22.9131 21.7265 22.913 21.6575L22.9119 19.7904C22.9118 19.7215 22.971 19.666 23.044 19.666L23.1763 19.6664C23.2495 19.6663 23.3086 19.7223 23.3089 19.7911L23.31 21.6582Z" fill="#304886"/>
<path d="M24.3315 21.6645C24.3302 21.7331 24.2699 21.7879 24.1969 21.7864L24.0645 21.7835C23.9915 21.7821 23.9333 21.7251 23.9346 21.6564L23.969 19.7898C23.9705 19.721 24.0307 19.6663 24.1039 19.668L24.2362 19.6706C24.3091 19.6721 24.3673 19.729 24.3662 19.7977L24.3315 21.6645Z" fill="#304886"/>
<path d="M25.4114 21.693C25.4076 21.7616 25.3453 21.814 25.2724 21.8098L25.1402 21.8022C25.0672 21.7978 25.0112 21.7393 25.0151 21.6704L25.119 19.8065C25.1227 19.7379 25.185 19.6854 25.258 19.6897L25.3902 19.6972C25.4632 19.7016 25.5192 19.7604 25.5154 19.8292L25.4114 21.693Z" fill="#304886"/>
<path d="M26.4536 21.7265C26.4497 21.7952 26.3872 21.8473 26.3142 21.8431L26.1823 21.8352C26.1093 21.8309 26.0532 21.7719 26.0573 21.7031L26.1654 19.8394C26.1693 19.7707 26.2318 19.7186 26.3048 19.7229L26.437 19.7307C26.5098 19.7349 26.5658 19.7942 26.5618 19.8628L26.4536 21.7265Z" fill="#304886"/>
<path d="M27.4627 21.8462C27.4562 21.9149 27.3918 21.9645 27.319 21.9576L27.1874 21.9449C27.1147 21.9378 27.0609 21.8769 27.0674 21.8081L27.2447 19.95C27.2511 19.8814 27.3156 19.8315 27.3882 19.8386L27.5201 19.8513C27.5928 19.8583 27.6465 19.9193 27.6398 19.9879L27.4627 21.8462Z" fill="#304886"/>
</g>
<path opacity="0.4" d="M22.5527 28.708C22.5548 28.7767 22.5005 28.8341 22.4313 28.836L22.2434 28.8415C22.1742 28.8433 22.1163 28.7892 22.1141 28.7207L22.0174 25.6099C22.0154 25.5414 22.0694 25.4841 22.1388 25.4819L22.3267 25.4766C22.396 25.4747 22.4539 25.5286 22.4561 25.5973L22.5527 28.708Z" fill="#E0A248"/>
<path opacity="0.4" d="M23.4235 28.6878C23.4251 28.7576 23.3702 28.8156 23.301 28.8168L23.1129 28.8208C23.0437 28.8219 22.9863 28.7665 22.9848 28.6967L22.9134 25.5334C22.9119 25.4637 22.9665 25.406 23.0357 25.4046L23.2237 25.4004C23.2932 25.3993 23.3504 25.4546 23.3521 25.5245L23.4235 28.6878Z" fill="#E0A248"/>
<path opacity="0.4" d="M26.3652 28.8844C26.3581 28.953 26.4083 29.0139 26.4771 29.0213L26.6642 29.0405C26.7332 29.0478 26.7947 28.998 26.8015 28.9297L27.1199 25.8345C27.1267 25.7661 27.0768 25.7049 27.0078 25.698L26.8208 25.6784C26.752 25.6715 26.6903 25.7212 26.6832 25.7893L26.3652 28.8844Z" fill="#E0A248"/>
<path opacity="0.4" d="M25.5195 28.7641C25.5138 28.8325 25.5651 28.8928 25.6343 28.8985L25.8216 28.9141C25.8904 28.9199 25.9511 28.8689 25.9567 28.8004L26.2108 25.6991C26.2162 25.6307 26.165 25.5706 26.0959 25.5646L25.9087 25.5493C25.8397 25.5435 25.7791 25.5942 25.7735 25.6628L25.5195 28.7641Z" fill="#E0A248"/>
<path opacity="0.4" d="M24.6797 28.7124C24.6755 28.7814 24.7286 28.8406 24.7978 28.8452L24.9855 28.8562C25.0545 28.8607 25.1138 28.8079 25.1177 28.7387L25.2946 25.615C25.2986 25.5461 25.2456 25.4866 25.1763 25.4826L24.9887 25.4709C24.9198 25.4671 24.8602 25.5194 24.8564 25.5886L24.6797 28.7124Z" fill="#E0A248"/>
<path opacity="0.4" d="M23.8135 28.6361C23.8113 28.7046 23.8653 28.7624 23.9344 28.7649L24.1223 28.7718C24.1915 28.7742 24.2498 28.7207 24.2521 28.652L24.3608 25.5421C24.3631 25.4736 24.3091 25.4157 24.2399 25.4131L24.0521 25.4063C23.9827 25.4038 23.9247 25.4575 23.9223 25.5264L23.8135 28.6361Z" fill="#E0A248"/>
<path opacity="0.4" d="M22.539 24.6401C22.5414 24.7154 22.4818 24.7781 22.4061 24.7802L22.2001 24.7861C22.1244 24.7883 22.0609 24.7289 22.0586 24.6538L21.9525 21.2457C21.9501 21.1705 22.0098 21.1077 22.0856 21.1055L22.2915 21.0997C22.3673 21.0975 22.4307 21.1568 22.4331 21.2319L22.539 24.6401Z" fill="#E0A248"/>
<path opacity="0.4" d="M23.4928 24.6187C23.4945 24.6953 23.4346 24.7586 23.3588 24.76L23.1527 24.7644C23.077 24.766 23.0139 24.7051 23.0123 24.6286L22.9339 21.1633C22.9323 21.0866 22.992 21.0235 23.0681 21.0216L23.2739 21.0176C23.3495 21.0162 23.4128 21.0767 23.4144 21.1536L23.4928 24.6187Z" fill="#E0A248"/>
<path opacity="0.4" d="M26.7156 24.8336C26.7078 24.9087 26.7628 24.9757 26.8382 24.9833L27.0432 25.0046C27.1187 25.0123 27.1861 24.9579 27.1939 24.883L27.5422 21.4921C27.55 21.4172 27.4952 21.35 27.4197 21.3423L27.2148 21.321C27.1393 21.3134 27.072 21.3675 27.0643 21.4427L26.7156 24.8336Z" fill="#E0A248"/>
<path opacity="0.4" d="M25.7893 24.7023C25.7829 24.7771 25.8392 24.8432 25.9151 24.8496L26.1202 24.8665C26.1959 24.8727 26.2621 24.8171 26.2684 24.742L26.5466 21.3446C26.5528 21.2693 26.4965 21.2035 26.421 21.1971L26.2156 21.1802C26.1401 21.174 26.0738 21.2296 26.0675 21.3046L25.7893 24.7023Z" fill="#E0A248"/>
<path opacity="0.4" d="M24.8691 24.6452C24.8648 24.7204 24.9227 24.7856 24.9984 24.79L25.204 24.8024C25.2797 24.807 25.3448 24.7495 25.3488 24.674L25.5427 21.2516C25.547 21.176 25.4889 21.111 25.4132 21.1064L25.2075 21.094C25.1319 21.0895 25.0669 21.1471 25.0627 21.2227L24.8691 24.6452Z" fill="#E0A248"/>
<path opacity="0.4" d="M23.9205 24.5617C23.9177 24.637 23.977 24.7001 24.0529 24.7029L24.2587 24.7104C24.3346 24.7132 24.3984 24.6544 24.4006 24.5795L24.5199 21.1722C24.5226 21.0971 24.4633 21.0336 24.3875 21.0309L24.1815 21.0235C24.1057 21.0207 24.0421 21.0795 24.0395 21.1549L23.9205 24.5617Z" fill="#E0A248"/>
<path d="M24.7131 15.0644C24.7136 15.0898 24.6932 15.1107 24.6673 15.111C24.6415 15.1114 24.6202 15.091 24.6196 15.0658L24.6082 14.5271C24.6076 14.5016 24.6281 14.4808 24.654 14.4805C24.6798 14.4801 24.7011 14.5003 24.7017 14.5257L24.7131 15.0644Z" fill="#2C4175"/>
<path d="M24.7864 18.5331C24.7869 18.5586 24.7663 18.5795 24.7406 18.5798C24.7147 18.5803 24.6934 18.5599 24.6929 18.5344L24.6814 17.9958C24.681 17.9705 24.7014 17.9495 24.7273 17.9492C24.753 17.9488 24.7744 17.9692 24.7751 17.9945L24.7864 18.5331Z" fill="#2C4175"/>
<path d="M26.1889 16.555C26.1631 16.5554 26.1417 16.5351 26.1411 16.5096C26.1406 16.4843 26.1612 16.4634 26.1871 16.463L26.735 16.4551C26.7608 16.4547 26.7825 16.475 26.7828 16.5003C26.7833 16.5258 26.7627 16.5467 26.737 16.547L26.1889 16.555Z" fill="#2C4175"/>
<path d="M22.6599 16.606C22.634 16.6063 22.6127 16.586 22.6121 16.5605C22.6115 16.5352 22.6322 16.5144 22.658 16.5139L23.2061 16.5059C23.232 16.5055 23.2533 16.5258 23.254 16.5512C23.2544 16.5767 23.234 16.5976 23.208 16.5979L22.6599 16.606Z" fill="#2C4175"/>
<path d="M25.7629 15.5115C25.745 15.5297 25.7155 15.53 25.6966 15.5124C25.6782 15.4947 25.6775 15.4656 25.6953 15.4474L26.0747 15.0608C26.0927 15.0426 26.1224 15.0422 26.141 15.0598C26.1598 15.0775 26.1603 15.1066 26.1424 15.1249L25.7629 15.5115Z" fill="#2C4175"/>
<path d="M23.3194 17.9996C23.3015 18.0179 23.2719 18.0183 23.2531 18.0006C23.2344 17.983 23.234 17.9539 23.2518 17.9356L23.6314 17.5491C23.6494 17.5309 23.6791 17.5305 23.6974 17.5481C23.7161 17.5658 23.7169 17.595 23.6989 17.6132L23.3194 17.9996Z" fill="#2C4175"/>
<path d="M25.7402 17.583C25.7216 17.5653 25.7209 17.5362 25.7388 17.5179C25.7568 17.4996 25.7865 17.4992 25.8051 17.5168L26.2006 17.8921C26.2194 17.9099 26.2201 17.9389 26.2021 17.9571C26.1841 17.9754 26.1546 17.9757 26.136 17.9581L25.7402 17.583Z" fill="#2C4175"/>
<path d="M23.1931 15.1669C23.1745 15.1492 23.1738 15.1201 23.1916 15.1019C23.2095 15.0836 23.2393 15.0832 23.2578 15.101L23.6536 15.4762C23.6719 15.4939 23.6727 15.5229 23.6548 15.5412C23.6369 15.5595 23.6073 15.5599 23.5887 15.5423L23.1931 15.1669Z" fill="#2C4175"/>
<path opacity="0.4" d="M22.6259 37.089C22.6278 37.1577 22.5796 37.2151 22.5184 37.217L22.3521 37.2223C22.2909 37.2241 22.2396 37.1702 22.2377 37.1015L22.1521 33.9908C22.1503 33.9222 22.1982 33.8649 22.2597 33.8628L22.4259 33.8575C22.4873 33.8556 22.5384 33.9095 22.5403 33.9782L22.6259 37.089Z" fill="#E0A248"/>
<path opacity="0.4" d="M23.3965 37.0686C23.3979 37.1385 23.3493 37.1964 23.2882 37.1977L23.1217 37.2016C23.0605 37.2028 23.0096 37.1474 23.0084 37.0775L22.9451 33.9143C22.9437 33.8445 22.9921 33.7869 23.0534 33.7855L23.2197 33.7813C23.2812 33.7802 23.3318 33.8355 23.3333 33.9054L23.3965 37.0686Z" fill="#E0A248"/>
<path opacity="0.4" d="M25.9999 37.2654C25.9936 37.334 26.038 37.3949 26.099 37.4022L26.2645 37.4214C26.3255 37.4288 26.38 37.379 26.3861 37.3106L26.6678 34.2154C26.6739 34.1469 26.6297 34.0858 26.5686 34.0789L26.4032 34.0592C26.3422 34.0523 26.2877 34.102 26.2814 34.1702L25.9999 37.2654Z" fill="#E0A248"/>
<path opacity="0.4" d="M25.2514 37.1449C25.2464 37.2133 25.2918 37.2735 25.3529 37.2793L25.5186 37.2949C25.5797 37.3006 25.6332 37.2497 25.6383 37.1812L25.8632 34.0799C25.868 34.0114 25.8227 33.9514 25.7615 33.9453L25.5957 33.9301C25.5347 33.9244 25.4811 33.975 25.4761 34.0437L25.2514 37.1449Z" fill="#E0A248"/>
<path opacity="0.4" d="M24.5083 37.0933C24.5046 37.1623 24.5516 37.2215 24.6128 37.2261L24.7788 37.2371C24.84 37.2416 24.8924 37.1888 24.8959 37.1196L25.0524 33.9959C25.0559 33.9269 25.0091 33.8675 24.9477 33.8634L24.7816 33.8518C24.7206 33.8479 24.668 33.9003 24.6646 33.9695L24.5083 37.0933Z" fill="#E0A248"/>
<path opacity="0.4" d="M23.7418 37.0169C23.7397 37.0855 23.7876 37.1432 23.8488 37.1458L24.0151 37.1527C24.0763 37.1551 24.1279 37.1015 24.13 37.0328L24.2262 33.923C24.2282 33.8545 24.1805 33.7965 24.1192 33.794L23.953 33.7872C23.8916 33.7846 23.8403 33.8384 23.8381 33.9072L23.7418 37.0169Z" fill="#E0A248"/>
<path opacity="0.4" d="M22.6141 33.019C22.6161 33.0944 22.5635 33.157 22.4965 33.1591L22.3142 33.165C22.2472 33.1672 22.1911 33.1078 22.189 33.0327L22.095 29.6246C22.093 29.5494 22.1458 29.4866 22.2128 29.4844L22.395 29.4786C22.4621 29.4764 22.5182 29.5357 22.5204 29.6108L22.6141 33.019Z" fill="#E0A248"/>
<path opacity="0.4" d="M23.4585 32.9976C23.46 33.0742 23.407 33.1375 23.34 33.1389L23.1576 33.1433C23.0905 33.1449 23.0347 33.084 23.0333 33.0075L22.9639 29.5422C22.9625 29.4655 23.0154 29.4025 23.0828 29.4005L23.2649 29.3965C23.3319 29.3951 23.3879 29.4556 23.3893 29.5325L23.4585 32.9976Z" fill="#E0A248"/>
<path opacity="0.4" d="M26.3105 33.2127C26.3036 33.2877 26.3523 33.3547 26.4189 33.3623L26.6005 33.3837C26.6672 33.3913 26.7269 33.3371 26.7338 33.262L27.0421 29.871C27.049 29.7961 27.0005 29.7289 26.9337 29.7212L26.7523 29.6999C26.6855 29.6923 26.6259 29.7464 26.619 29.8216L26.3105 33.2127Z" fill="#E0A248"/>
<path opacity="0.4" d="M25.4907 33.0813C25.485 33.1562 25.5348 33.2222 25.6019 33.2286L25.7834 33.2454C25.8504 33.2516 25.909 33.196 25.9145 33.1209L26.1608 29.7235C26.1663 29.6482 26.1164 29.5824 26.0496 29.576L25.8678 29.5591C25.801 29.5529 25.7423 29.6085 25.7368 29.6835L25.4907 33.0813Z" fill="#E0A248"/>
<path opacity="0.4" d="M24.6765 33.0241C24.6726 33.0993 24.7239 33.1645 24.7909 33.1689L24.9729 33.1813C25.0399 33.1859 25.0974 33.1284 25.1011 33.0529L25.2727 29.6305C25.2765 29.5549 25.2251 29.4899 25.1582 29.4853L24.9761 29.4729C24.9092 29.4684 24.8516 29.526 24.848 29.6017L24.6765 33.0241Z" fill="#E0A248"/>
<path opacity="0.4" d="M23.8368 32.9406C23.8343 33.0159 23.8866 33.079 23.9539 33.0818L24.1361 33.0893C24.2033 33.0921 24.2596 33.0333 24.2617 32.9584L24.3672 29.5512C24.3695 29.476 24.3171 29.4125 24.25 29.4098L24.0677 29.4024C24.0006 29.3996 23.9444 29.4584 23.9421 29.5339L23.8368 32.9406Z" fill="#E0A248"/>
<path d="M20.7422 37.7041C20.7422 37.7041 21.1628 36.6767 21.4846 36.5604C21.6772 36.4908 27.369 36.5352 27.7513 36.6553C28.1333 36.7752 28.4534 37.7929 28.4534 37.7929L20.7422 37.7041Z" fill="#2C4175"/>
<path d="M19.7925 38.3543C19.7925 38.3543 20.322 37.4855 20.5692 37.3254C20.8164 37.1652 28.4681 37.3177 28.8038 37.4936C29.1397 37.6695 29.2202 38.0167 29.3913 38.4989L19.7925 38.3543Z" fill="#E0A248"/>
<path d="M24.999 15.831L24.7007 15.2422L24.4346 15.8462L24.6546 15.8402L24.6793 16.7592C24.6803 16.7934 24.709 16.8206 24.7434 16.8196C24.7775 16.8187 24.8046 16.7901 24.8038 16.7559L24.7789 15.837L24.999 15.831Z" fill="#2C4175"/>
<path d="M23.9969 16.6953L23.4768 17.1016L24.1208 17.2461L24.0724 17.0313L24.6961 16.8932C24.7296 16.8857 24.7505 16.8523 24.743 16.819C24.7355 16.7855 24.7023 16.7645 24.6688 16.7721L24.0453 16.9103L23.9969 16.6953Z" fill="#2C4175"/>
<path d="M24.8975 16.7778C24.8997 16.8601 24.8347 16.9287 24.7524 16.9308C24.6701 16.9331 24.6015 16.8681 24.5994 16.7858C24.5972 16.7036 24.6622 16.635 24.7445 16.6329C24.8267 16.6305 24.8953 16.6955 24.8975 16.7778Z" fill="#2C4175"/>
<defs>
<linearGradient id="paint0_linear_831_75815" x1="21.2098" y1="16.0537" x2="28.6296" y2="17.295" gradientUnits="userSpaceOnUse">
<stop stop-color="#E3A741"/>
<stop offset="1" stop-color="#CC5A31"/>
</linearGradient>
<radialGradient id="paint1_radial_831_75815" cx="0" cy="0" r="1" gradientUnits="userSpaceOnUse" gradientTransform="translate(24.7505 16.6321) rotate(9.13735) scale(4.00945)">
<stop offset="0.3731" stop-color="#FDFDFD"/>
<stop offset="0.5044" stop-color="#F8F8F9"/>
<stop offset="0.6646" stop-color="#E9EBEE"/>
<stop offset="0.8392" stop-color="#D0D5DB"/>
<stop offset="1" stop-color="#B3BBC5"/>
</radialGradient>
</defs>
</svg>
