<svg width="32" height="38" viewBox="0 0 32 38" fill="none" xmlns="http://www.w3.org/2000/svg">
<path d="M28.7886 15.1443C28.7886 22.956 22.456 29.2886 14.6443 29.2886C6.83263 29.2886 0.5 22.956 0.5 15.1443C0.5 7.33263 6.83263 1 14.6443 1C22.456 1 28.7886 7.33263 28.7886 15.1443Z" fill="#666666" stroke="#54BEDE"/>
<path d="M13.7207 35.9857V32.4414H15.5681V35.9857H13.7207Z" fill="#FFC000" stroke="#54BEDE"/>
<path d="M15.0771 35.9857V32.4414H15.5679V35.9857H15.0771Z" fill="#E28D00" stroke="#54BEDE"/>
<path d="M25.3148 36.0889C26.2058 36.0889 26.9542 36.6832 27.1886 37.5H2.10065C2.33559 36.6854 3.08403 36.0889 3.97392 36.0889H25.3148Z" fill="#FFC000" stroke="#54BEDE"/>
<mask id="path-5-inside-1_939_39396" fill="white">
<path d="M1.60575 37.4434C1.56261 37.6207 1.52905 37.8077 1.52905 37.9946H27.7642C27.7594 37.8029 27.7306 37.6207 27.6875 37.4434H1.60575Z"/>
</mask>
<path d="M1.60575 37.4434C1.56261 37.6207 1.52905 37.8077 1.52905 37.9946H27.7642C27.7594 37.8029 27.7306 37.6207 27.6875 37.4434H1.60575Z" fill="#E28D00"/>
<path d="M1.60575 37.4434V36.4434H0.819834L0.634082 37.207L1.60575 37.4434ZM1.52905 37.9946H0.529053V38.9946H1.52905V37.9946ZM27.7642 37.9946V38.9946H28.7895L28.7639 37.9696L27.7642 37.9946ZM27.6875 37.4434L28.6592 37.207L28.4734 36.4434H27.6875V37.4434ZM0.634082 37.207C0.582416 37.4194 0.529053 37.6939 0.529053 37.9946H2.52905C2.52905 37.9215 2.5428 37.822 2.57742 37.6797L0.634082 37.207ZM1.52905 38.9946H27.7642V36.9946H1.52905V38.9946ZM28.7639 37.9696C28.757 37.6926 28.7155 37.4385 28.6592 37.207L26.7158 37.6797C26.7458 37.8029 26.7618 37.9131 26.7645 38.0196L28.7639 37.9696ZM27.6875 36.4434H1.60575V38.4434H27.6875V36.4434Z" fill="#54BEDE" mask="url(#path-5-inside-1_939_39396)"/>
<path d="M26.0466 2.97351L26.3655 3.27241L26.6519 3.56939C29.5478 6.57244 31.3341 10.644 31.3341 15.1439C31.3341 24.3637 23.8596 31.8336 14.6444 31.8336C9.53644 31.8336 4.97091 29.5372 1.90981 25.9259L2.32976 25.5006C2.50594 25.7072 2.68606 25.9088 2.86895 26.1062L3.22198 26.4873L3.22823 26.481L3.5026 26.745C6.39095 29.5246 10.315 31.2421 14.6444 31.2421C23.5346 31.2421 30.7426 24.0341 30.7426 15.1439C30.7426 10.8148 29.0301 6.89085 26.2506 3.99761L25.8972 3.62974L25.8915 3.63544L25.6089 3.37045C25.352 3.12958 25.088 2.89635 24.8156 2.67232L25.2305 2.25032C25.5085 2.48043 25.7799 2.7234 26.0466 2.97351Z" fill="#54BEDE" stroke="#54BEDE"/>
<path d="M28.1847 15.1438C28.1847 22.622 22.1224 28.6842 14.6443 28.6842C7.16621 28.6842 1.104 22.622 1.104 15.1438C1.104 7.66573 7.16622 1.60352 14.6443 1.60352C22.1224 1.60352 28.1847 7.66573 28.1847 15.1438Z" fill="#54BEDE" stroke="#54BEDE"/>
<path d="M21.626 5.13018L21.6257 5.13016C21.454 5.11585 21.2781 5.08862 21.1225 5.06453C21.089 5.05935 21.0565 5.05432 21.0251 5.04959C20.8371 5.02122 20.6762 5.001 20.525 5.00005C20.2477 4.9983 20.0166 5.05944 19.7846 5.29458C19.5611 5.52123 19.3088 5.6784 19.0892 5.79626C18.98 5.85488 18.8734 5.90657 18.782 5.95087L18.7807 5.95153C18.6849 5.99794 18.61 6.03437 18.5459 6.06957C18.5435 6.07089 18.5411 6.07219 18.5388 6.07347C18.8809 6.54347 18.9961 7.07311 18.9575 7.54021C18.9197 7.99674 18.7263 8.45935 18.3706 8.72404C18.1826 8.8639 17.9419 8.93437 17.7815 8.97858C17.7185 8.99592 17.6619 9.0107 17.6097 9.02432C17.497 9.05374 17.4049 9.07777 17.3141 9.11065C17.2791 9.1233 17.2528 9.13456 17.2334 9.14383C17.2342 9.14588 17.2351 9.14799 17.2359 9.15016C17.337 9.39608 17.389 9.6282 17.3629 9.85591C17.3356 10.0927 17.2305 10.2576 17.1596 10.3602C17.1395 10.3891 17.1233 10.4121 17.1099 10.431C17.0706 10.4867 17.0555 10.508 17.0398 10.5451C17.0314 10.5648 17.0199 10.5974 17.0161 10.6545C17.0974 10.6579 17.2128 10.6494 17.3646 10.6287C17.4121 10.6223 17.4591 10.6153 17.5074 10.608L17.5141 10.607C17.5592 10.6003 17.6064 10.5932 17.6511 10.5871C17.7349 10.5757 17.8521 10.5612 17.9591 10.5668C18.0102 10.5694 18.1052 10.5781 18.2052 10.6235C18.3211 10.676 18.47 10.7936 18.5166 11.0031C18.5558 11.179 18.4983 11.3221 18.4664 11.3878C18.4303 11.4623 18.3831 11.5259 18.3425 11.575L18.3393 11.5789L18.3393 11.5789L18.3393 11.5789L18.3391 11.5791L18.3385 11.5798L18.3359 11.5829L18.3254 11.5954L18.2847 11.6441C18.2492 11.6865 18.198 11.7481 18.1352 11.8242C18.0096 11.9765 17.8383 12.1863 17.6552 12.4167C17.28 12.8889 16.8851 13.4109 16.7128 13.7107C16.6591 13.8042 16.6018 13.8963 16.5486 13.9816L16.5373 13.9996C16.4869 14.0803 16.4401 14.1552 16.3956 14.2308C16.2995 14.394 16.23 14.5342 16.1909 14.6671C16.1535 14.7938 16.145 14.9098 16.1701 15.0294C16.1955 15.1509 16.2623 15.3077 16.4225 15.5042L16.4232 15.5052C16.6145 15.7411 16.7663 15.9409 16.8905 16.1042C16.8999 16.1166 16.9091 16.1288 16.9182 16.1408C17.0514 16.3159 17.1413 16.4321 17.2203 16.5184C17.2953 16.6003 17.341 16.633 17.3743 16.6505C17.405 16.6665 17.4527 16.6841 17.5513 16.693L17.5064 17.191M21.626 5.13018L26.3699 11.6986C26.662 12.2446 26.9812 12.5609 27.2838 12.7556C27.3066 12.7703 27.3291 12.7841 27.3512 12.7972C27.2192 12.8805 27.062 12.9657 26.8959 13.0422C26.6865 13.1386 26.4783 13.214 26.3039 13.2554C26.1427 13.2938 26.0645 13.2898 26.0468 13.2889C26.045 13.2888 26.0439 13.2888 26.0433 13.2888C26.0373 13.2856 26.0118 13.2723 25.9648 13.2362C25.9064 13.1914 25.8352 13.1274 25.752 13.044C25.5854 12.8768 25.3995 12.6607 25.2094 12.4313C25.141 12.3488 25.0706 12.2627 25.0009 12.1775C24.8849 12.0358 24.771 11.8965 24.6717 11.7801C24.5904 11.6849 24.5097 11.5939 24.4349 11.5183C24.3709 11.4536 24.2734 11.3603 24.1617 11.3003C24.1183 11.277 24.055 11.2476 23.9777 11.231C23.9021 11.2148 23.7718 11.2024 23.6311 11.2658C23.3043 11.4133 23.3088 11.7489 23.3116 11.8118C23.3163 11.9193 23.3458 12.0226 23.3717 12.0995C23.4003 12.1845 23.4386 12.2772 23.4829 12.3741C23.6576 12.7563 23.9795 13.3177 24.4096 13.9895C24.9043 14.7662 25.497 15.1081 26.0718 15.2412C26.3468 15.3049 26.6033 15.3175 26.8133 15.3199C26.8758 15.3206 26.93 15.3206 26.9783 15.3204C26.9646 15.3622 26.9481 15.4098 26.9283 15.4636C26.8694 15.6232 26.7967 15.7986 26.7146 15.9968C26.6823 16.0747 26.6486 16.1561 26.6137 16.2414C26.4934 16.5351 26.3651 16.8619 26.2613 17.1962C25.8527 18.5127 25.7313 20.0048 25.6974 21.1694C25.6842 21.6214 25.4969 22.083 25.2239 22.5128C24.953 22.9391 24.6189 23.3008 24.3624 23.5439C24.1535 23.7418 24.0656 23.7279 24.0253 23.7207C23.9217 23.7023 23.7504 23.6113 23.4296 23.3338C23.3646 23.2758 23.2605 23.1203 23.1475 22.8274C23.0403 22.5494 22.9464 22.2053 22.869 21.8377C22.7134 21.0992 22.637 20.3278 22.637 19.9233C22.637 19.2882 22.3309 18.8925 22.0518 18.6127C21.9892 18.55 21.9254 18.4904 21.8694 18.4382L21.859 18.4285C21.7981 18.3717 21.7466 18.3233 21.6996 18.2753C21.6055 18.1791 21.554 18.1081 21.5254 18.0436L21.5247 18.0418C21.3867 17.7328 21.1858 17.3479 21.0106 17.0367C20.9227 16.8807 20.8379 16.7372 20.7676 16.627C20.7329 16.5727 20.6977 16.5202 20.6649 16.4762C20.6488 16.4546 20.6282 16.4283 20.6047 16.4025L20.6034 16.4011C20.5896 16.3859 20.534 16.3245 20.4487 16.2793C20.3401 16.2218 20.2364 16.2196 20.219 16.2192C20.2182 16.2192 20.2176 16.2192 20.2172 16.2192C20.1823 16.2181 20.1518 16.2203 20.1326 16.222C20.0926 16.2256 20.0504 16.2322 20.0136 16.2386C19.9376 16.2518 19.8401 16.2721 19.7337 16.2953C19.6342 16.317 19.5202 16.3427 19.3989 16.37L19.3677 16.377C19.234 16.4071 19.0911 16.4392 18.9446 16.4712C18.6503 16.5354 18.3482 16.5976 18.0863 16.6403C17.8077 16.6858 17.6277 16.6998 17.551 16.693L17.5064 17.191M21.626 5.13018C21.8386 5.14778 22.0376 5.14295 22.2142 5.08275C22.4239 5.01128 22.5422 4.88336 22.6156 4.78203C22.6298 4.76251 22.6426 4.7435 22.6508 4.73133L22.6519 4.72973C22.6533 4.72766 22.6546 4.72575 22.6558 4.72396M21.626 5.13018L22.6558 4.72396M17.5064 17.191C17.8806 17.2245 18.8378 17.0089 19.5082 16.8579C19.8942 16.771 20.185 16.7055 20.2148 16.7212C20.2963 16.7644 20.8092 17.6656 21.0681 18.2456L16.2793 13.4616C16.2272 13.5524 16.1702 13.6436 16.1125 13.7358C15.7409 14.3306 15.3418 14.9693 16.0348 15.82C16.221 16.0497 16.3686 16.2439 16.4927 16.4072C16.9025 16.9463 17.0576 17.1505 17.5064 17.191ZM22.6558 4.72396C24.5317 6.16737 26.0079 8.09758 26.8892 10.3329C26.7987 10.347 26.7056 10.3719 26.6168 10.4139C26.3883 10.5219 26.2135 10.7349 26.1919 11.0293C26.1743 11.2682 26.2638 11.5004 26.3699 11.6986L22.6558 4.72396ZM16.9248 10.6419C16.9248 10.6419 16.9252 10.642 16.926 10.6423L16.9248 10.6419ZM18.4685 5.96593C18.4686 5.96597 18.4693 5.9675 18.4702 5.97041C18.4688 5.96735 18.4684 5.96589 18.4685 5.96593Z" fill="#7EDE88" stroke="#54BEDE"/>
<path d="M1.75947 12.4928C2.43407 9.19821 4.33882 6.35486 6.97851 4.46232C7.26074 4.4486 7.48953 4.44521 7.66032 4.46538C7.68443 4.46823 7.70534 4.47134 7.72335 4.47451C7.6733 4.50433 7.60487 4.54245 7.51085 4.59223C7.44898 4.62498 7.3751 4.66331 7.29157 4.70665C7.14058 4.78499 6.95806 4.87968 6.75792 4.98739C6.09333 5.34374 5.6754 5.69013 5.44032 6.01195C5.32227 6.17355 5.23785 6.34621 5.2065 6.52414C5.17605 6.69695 5.1912 6.91778 5.33501 7.10185L5.3355 7.10247C5.43763 7.23278 5.53248 7.35038 5.62469 7.44057C5.72609 7.53976 5.84716 7.62927 6.00856 7.67917C6.15239 7.72364 6.29196 7.72364 6.38697 7.72273C6.41966 7.72242 6.45114 7.72181 6.48319 7.7212C6.56029 7.71971 6.64063 7.71815 6.74861 7.72054L6.74984 7.72056C6.93788 7.72425 7.08341 7.64255 7.17804 7.55631C7.26263 7.47922 7.31624 7.39088 7.34773 7.3334C7.38623 7.26312 7.43329 7.15404 7.46694 7.07606C7.4795 7.04695 7.49019 7.02217 7.49786 7.00536C7.59346 6.79606 7.65057 6.76276 7.692 6.75275L7.57455 6.26674M1.75947 12.4928L10.2491 7.46805C10.2489 7.46769 10.245 7.45988 10.2331 7.4449C10.2263 7.43631 10.2175 7.42627 10.2066 7.41485M1.75947 12.4928C1.8186 12.2966 1.93705 12.1353 2.09048 12.0078C2.27583 11.8537 2.51344 11.747 2.75536 11.6597C3.00343 11.5701 3.30371 11.4848 3.64198 11.3927C4.04462 11.2832 4.39608 11.2767 4.69788 11.3814C4.83986 11.4307 4.95734 11.4998 5.05463 11.5779M1.75947 12.4928L5.05463 11.5779M7.57455 6.26674C7.77207 6.22065 7.9159 6.13951 8.04272 6.06798C8.28521 5.93119 8.46549 5.82949 8.84004 6.075C8.97146 6.16114 9.17589 6.25898 9.40282 6.36759C10.1609 6.7304 11.17 7.21336 10.5465 7.7815C10.0877 8.19959 9.51975 8.42549 8.93143 8.65947C8.48096 8.83863 8.01858 9.02252 7.58413 9.30107M7.57455 6.26674L7.68816 6.75366C7.88832 6.70695 8.0455 6.63467 8.16863 6.56949C8.24005 6.5317 8.28257 6.50723 8.31503 6.48856C8.35189 6.46734 8.37576 6.45361 8.41421 6.43632C8.4255 6.43124 8.43297 6.42843 8.43748 6.42694M7.57455 6.26674C7.23447 6.34892 7.09713 6.66901 6.99115 6.916C6.91787 7.08679 6.85958 7.22262 6.75964 7.22066C6.64066 7.21803 6.54468 7.21988 6.46472 7.22142L8.43748 6.42694M7.58413 9.30107L7.31569 8.87924C7.31545 8.87939 7.31521 8.87954 7.31497 8.8797M7.58413 9.30107L7.31426 8.88015C7.3145 8.88 7.31473 8.87985 7.31497 8.8797M7.58413 9.30107C6.58228 9.93861 5.84886 10.6816 5.65233 11.2808C5.582 11.4969 5.54114 11.6897 5.50536 11.8585C5.48672 11.9465 5.46946 12.0279 5.45013 12.1027C5.41956 12.0389 5.37772 11.9572 5.32132 11.8725C5.25565 11.7739 5.1691 11.6697 5.05463 11.5779M7.31497 8.8797C7.79297 8.57335 8.30373 8.37059 8.75141 8.19286C8.81924 8.16593 8.88563 8.13958 8.95024 8.11352C9.46041 7.90779 9.87429 7.71644 10.2066 7.41485M7.31497 8.8797C6.78856 9.21475 6.32359 9.58303 5.95893 9.95555C5.60095 10.3213 5.30955 10.7216 5.17723 11.125L5.17687 11.1261C5.1253 11.2846 5.08595 11.4405 5.05463 11.5779M10.2066 7.41485C10.1976 7.40558 10.1873 7.3954 10.1752 7.38435C10.1203 7.33401 10.0436 7.27714 9.94451 7.2147C9.74413 7.08848 9.49789 6.9676 9.24514 6.84645C9.2234 6.83603 9.20133 6.82548 9.17903 6.81483C8.9638 6.71197 8.72744 6.59903 8.56595 6.49317C8.49105 6.44408 8.45098 6.43046 8.43748 6.42694M10.2066 7.41485L8.43748 6.42694M2.90771 14.0599C3.04757 14.3046 3.13142 14.4803 3.19962 14.6287C3.06822 14.5788 2.94879 14.5345 2.83904 14.4939C2.25069 14.2759 1.94055 14.161 1.55637 13.834C1.59512 13.4431 1.65094 13.0572 1.7231 12.6772C1.72225 12.6856 1.72151 12.6941 1.72087 12.7027C1.70118 12.9651 1.7829 13.2226 1.88941 13.4575C1.99036 13.6801 2.14015 13.9328 2.40895 14.0415C2.60752 14.1217 2.79272 14.0881 2.90387 14.0532C2.90514 14.0554 2.90642 14.0576 2.90771 14.0599ZM8.44311 6.42539C8.44308 6.42543 8.44245 6.4256 8.44135 6.42576L8.44311 6.42539ZM7.71392 26.3458C7.5875 26.2671 7.46237 26.1861 7.33834 26.103C7.26182 25.3337 7.22457 24.5881 7.19342 23.9647C7.17665 23.629 7.16165 23.3287 7.14325 23.0793L7.14298 23.0759C7.1143 22.7203 6.94285 22.4102 6.76691 22.1569C6.62559 21.9534 6.44836 21.7422 6.2806 21.5424C6.23976 21.4938 6.19949 21.4458 6.16043 21.3987C5.73447 20.8858 5.37936 20.3965 5.29379 19.8127C5.25041 19.5168 5.2724 19.1818 5.32938 18.8204C5.36923 18.5676 5.42112 18.3281 5.47328 18.0874C5.49727 17.9767 5.52131 17.8657 5.54426 17.7531C5.60968 17.4321 5.67609 17.0573 5.6294 16.7416C5.60428 16.5717 5.54125 16.3768 5.39139 16.2133C5.38752 16.2091 5.38363 16.2049 5.3797 16.2008C5.43876 16.1802 5.49217 16.1593 5.53831 16.1412L5.54543 16.1384C5.86023 16.015 6.02264 15.9564 6.25989 16.0416L6.26138 16.0421C6.53093 16.138 6.78326 16.1751 6.99996 16.2006C7.05314 16.2068 7.10283 16.2123 7.15001 16.2175C7.3066 16.2347 7.43551 16.2488 7.57263 16.2785C7.87604 16.344 8.21821 16.4869 8.6612 17.0214C9.20187 17.6737 9.66596 18.0579 10.1524 18.3234C10.5318 18.5305 10.9209 18.6602 11.3122 18.7906C11.4021 18.8206 11.4921 18.8506 11.5822 18.8816C11.7219 18.9297 11.7737 18.9932 11.8035 19.0584C11.8426 19.1438 11.8672 19.2896 11.8412 19.5231C11.7883 19.9987 11.5544 20.6208 11.2569 21.3127C10.9781 21.9608 10.9037 21.9805 10.8919 21.9836C10.8912 21.9838 10.8908 21.9839 10.8905 21.9841C10.8836 21.9884 10.8742 21.994 10.8626 22.0008C10.8027 22.036 10.6843 22.1057 10.5535 22.2191C10.3978 22.3541 10.2205 22.5493 9.99416 22.8596C9.72332 23.2291 9.43474 23.4395 9.10714 23.6783C8.9823 23.7693 8.8518 23.8644 8.71445 23.9741C8.47949 24.1616 8.23909 24.3878 8.0543 24.699C7.86695 25.0144 7.75408 25.3875 7.72731 25.8482L7.72723 25.8497C7.71739 26.0281 7.71337 26.193 7.71392 26.3458Z" fill="#4CA14D" stroke="#54BEDE"/>
<path d="M15.0771 29.2726V1.0065C22.6877 1.23537 28.7886 7.47857 28.7886 15.1347C28.7886 22.8005 22.6875 29.0437 15.0771 29.2726Z" fill="#474747" stroke="#54BEDE"/>
<path d="M26.0465 2.97351L26.3653 3.27243L26.6517 3.56939C29.5476 6.57239 31.334 10.6439 31.334 15.1487C31.334 24.2237 24.0924 31.6033 15.0771 31.8329V31.2412C23.7672 31.0117 30.7425 23.8941 30.7425 15.1487C30.7425 10.8196 29.03 6.89564 26.2505 4.0024L25.9841 3.72505L25.9855 3.72363L25.9576 3.69745L25.8971 3.63453L25.8939 3.63775L25.6088 3.37045C25.3518 3.12958 25.0878 2.89635 24.8155 2.67232L25.2304 2.25032C25.5084 2.48043 25.7797 2.7234 26.0465 2.97351Z" fill="#287BA1" stroke="#54BEDE"/>
<path d="M15.0771 28.6726V1.61029C22.3567 1.83858 28.1846 7.80427 28.1846 15.139C28.1846 22.474 22.3565 28.4441 15.0771 28.6726Z" fill="#287BA1" stroke="#54BEDE"/>
<path d="M21.6255 5.13018L21.6252 5.13016C21.4535 5.11585 21.2776 5.08862 21.122 5.06453C21.0885 5.05935 21.056 5.05432 21.0247 5.04959C20.8366 5.02122 20.6757 5.001 20.5245 5.00005C20.2472 4.9983 20.0161 5.05944 19.7841 5.29458C19.5606 5.52123 19.3083 5.6784 19.0887 5.79626C18.9795 5.85488 18.8729 5.90657 18.7815 5.95087L18.7802 5.95153C18.6844 5.99794 18.6095 6.03437 18.5454 6.06957C18.543 6.07089 18.5407 6.07219 18.5384 6.07347C18.8804 6.54347 18.9956 7.07311 18.957 7.54021C18.9192 7.99674 18.7258 8.45935 18.3701 8.72404C18.1822 8.8639 17.9415 8.93437 17.781 8.97858C17.718 8.99592 17.6614 9.0107 17.6092 9.02432C17.4965 9.05374 17.4044 9.07777 17.3136 9.11065C17.2786 9.1233 17.2524 9.13456 17.2329 9.14383C17.2337 9.14588 17.2346 9.14799 17.2355 9.15016C17.3365 9.39608 17.3885 9.6282 17.3624 9.85591C17.3352 10.0927 17.2301 10.2576 17.1591 10.3602C17.139 10.3891 17.1228 10.4121 17.1094 10.431C17.0701 10.4867 17.0551 10.508 17.0393 10.5451C17.0309 10.5648 17.0195 10.5974 17.0156 10.6545C17.0969 10.6579 17.2123 10.6494 17.3641 10.6287C17.4116 10.6223 17.4587 10.6153 17.5069 10.608L17.5137 10.607C17.5587 10.6003 17.6059 10.5932 17.6506 10.5871C17.7344 10.5757 17.8516 10.5612 17.9586 10.5668C18.0097 10.5694 18.1048 10.5781 18.2047 10.6235C18.3206 10.676 18.4695 10.7936 18.5161 11.0031C18.5553 11.179 18.4978 11.3221 18.466 11.3878C18.4298 11.4623 18.3826 11.5259 18.342 11.575L18.3388 11.5789L18.3388 11.5789L18.3388 11.5789L18.3386 11.5791L18.338 11.5798L18.3354 11.5829L18.3249 11.5954L18.2842 11.6441C18.2487 11.6865 18.1975 11.7481 18.1347 11.8242C18.0091 11.9765 17.8378 12.1863 17.6547 12.4167C17.2795 12.8889 16.8846 13.4109 16.7124 13.7107C16.6586 13.8042 16.6013 13.8963 16.5481 13.9816L16.5368 13.9996C16.4864 14.0803 16.4396 14.1552 16.3951 14.2308C16.299 14.394 16.2295 14.5342 16.1904 14.6671C16.153 14.7938 16.1445 14.9098 16.1696 15.0294C16.195 15.1509 16.2619 15.3077 16.422 15.5042L16.4227 15.5052C16.614 15.7411 16.7659 15.9409 16.89 16.1042C16.8994 16.1166 16.9086 16.1288 16.9178 16.1408C17.0509 16.3159 17.1408 16.4321 17.2198 16.5184C17.2948 16.6003 17.3405 16.633 17.3738 16.6505C17.4045 16.6665 17.4522 16.6841 17.5509 16.693L17.506 17.191M21.6255 5.13018L26.3694 11.6986C26.6615 12.2446 26.9807 12.5609 27.2833 12.7556C27.3061 12.7703 27.3286 12.7841 27.3507 12.7972C27.2187 12.8805 27.0615 12.9657 26.8954 13.0422C26.686 13.1386 26.4778 13.214 26.3034 13.2554C26.1422 13.2938 26.064 13.2898 26.0463 13.2889C26.0445 13.2888 26.0434 13.2888 26.0428 13.2888C26.0368 13.2856 26.0113 13.2723 25.9643 13.2362C25.9059 13.1914 25.8347 13.1274 25.7516 13.044C25.5849 12.8768 25.399 12.6607 25.2089 12.4313C25.1405 12.3488 25.0701 12.2627 25.0004 12.1775C24.8844 12.0358 24.7705 11.8965 24.6712 11.7801C24.59 11.6849 24.5092 11.5939 24.4344 11.5183C24.3704 11.4536 24.273 11.3603 24.1612 11.3003C24.1178 11.277 24.0545 11.2476 23.9772 11.231C23.9016 11.2148 23.7713 11.2024 23.6307 11.2658C23.3038 11.4133 23.3083 11.7489 23.3111 11.8118C23.3158 11.9193 23.3453 12.0226 23.3712 12.0995C23.3998 12.1845 23.4381 12.2772 23.4824 12.3741C23.6572 12.7563 23.979 13.3177 24.4091 13.9895C24.9038 14.7662 25.4965 15.1081 26.0713 15.2412C26.3463 15.3049 26.6028 15.3175 26.8129 15.3199C26.8753 15.3206 26.9296 15.3206 26.9778 15.3204C26.9641 15.3622 26.9476 15.4098 26.9278 15.4636C26.8689 15.6232 26.7962 15.7986 26.7141 15.9968C26.6818 16.0747 26.6481 16.1561 26.6132 16.2414C26.493 16.5351 26.3646 16.8619 26.2608 17.1962C25.8522 18.5127 25.7309 20.0048 25.6969 21.1694C25.6837 21.6214 25.4964 22.083 25.2234 22.5128C24.9525 22.9391 24.6184 23.3008 24.3619 23.5439C24.1531 23.7418 24.0651 23.7279 24.0248 23.7207C23.9213 23.7023 23.75 23.6113 23.4291 23.3338C23.3641 23.2758 23.26 23.1203 23.147 22.8274C23.0398 22.5494 22.9459 22.2053 22.8685 21.8377C22.7129 21.0992 22.6365 20.3278 22.6365 19.9233C22.6365 19.2882 22.3304 18.8925 22.0513 18.6127C21.9887 18.55 21.9249 18.4904 21.8689 18.4382L21.8585 18.4285C21.7976 18.3717 21.7461 18.3233 21.6992 18.2753C21.605 18.1791 21.5535 18.1081 21.5249 18.0436L21.5242 18.0418C21.3863 17.7328 21.1853 17.3479 21.0101 17.0367C20.9222 16.8807 20.8374 16.7372 20.7671 16.627C20.7324 16.5727 20.6972 16.5202 20.6644 16.4762C20.6483 16.4546 20.6277 16.4283 20.6042 16.4025L20.6029 16.4011C20.5891 16.3859 20.5335 16.3245 20.4483 16.2793C20.3396 16.2218 20.2359 16.2196 20.2185 16.2192C20.2177 16.2192 20.2172 16.2192 20.2167 16.2192C20.1818 16.2181 20.1513 16.2203 20.1321 16.222C20.0921 16.2256 20.0499 16.2322 20.0131 16.2386C19.9371 16.2518 19.8396 16.2721 19.7332 16.2953C19.6337 16.317 19.5197 16.3427 19.3984 16.37L19.3672 16.377C19.2335 16.4071 19.0906 16.4392 18.9441 16.4712C18.6498 16.5354 18.3477 16.5976 18.0858 16.6403C17.8072 16.6858 17.6272 16.6998 17.5505 16.693L17.506 17.191M21.6255 5.13018C21.8381 5.14778 22.0371 5.14295 22.2137 5.08275C22.4234 5.01128 22.5417 4.88336 22.6151 4.78203C22.6293 4.76251 22.6421 4.7435 22.6503 4.73133L22.6514 4.72973C22.6528 4.72766 22.6541 4.72575 22.6553 4.72396M21.6255 5.13018L22.6553 4.72396M17.506 17.191C17.8801 17.2245 18.8374 17.0089 19.5077 16.8579C19.8937 16.771 20.1845 16.7055 20.2143 16.7212C20.2958 16.7644 20.8087 17.6656 21.0676 18.2456L16.2788 13.4616C16.2267 13.5524 16.1697 13.6436 16.112 13.7358C15.7404 14.3306 15.3413 14.9693 16.0343 15.82C16.2205 16.0497 16.3681 16.2439 16.4923 16.4072C16.902 16.9463 17.0572 17.1505 17.506 17.191ZM22.6553 4.72396C24.5312 6.16737 26.0075 8.09758 26.8887 10.3329C26.7982 10.347 26.7051 10.3719 26.6163 10.4139C26.3878 10.5219 26.213 10.7349 26.1914 11.0293C26.1738 11.2682 26.2633 11.5004 26.3694 11.6986L22.6553 4.72396ZM16.9243 10.6419C16.9244 10.6419 16.9248 10.642 16.9255 10.6423L16.9243 10.6419ZM18.468 5.96593C18.4681 5.96597 18.4688 5.9675 18.4697 5.97041C18.4683 5.96735 18.4679 5.96589 18.468 5.96593Z" fill="#7EDE88" stroke="#54BEDE"/>
</svg>
