<svg width="65" height="64" viewBox="0 0 65 64" fill="none" xmlns="http://www.w3.org/2000/svg">
<g filter="url(#filter0_d_543_32305)">
<circle cx="32.7258" cy="28" r="24" fill="#EF8114"/>
<path d="M38.6601 27.9834C40.2384 27.9834 41.752 28.6104 42.868 29.7264C43.984 30.8424 44.611 32.356 44.611 33.9343C44.611 35.5125 43.984 37.0261 42.868 38.1421C41.752 39.2581 40.2384 39.8851 38.6601 39.8851C37.0819 39.8851 35.5683 39.2581 34.4523 38.1421C33.3363 37.0261 32.7093 35.5125 32.7093 33.9343C32.7093 32.356 33.3363 30.8424 34.4523 29.7264C35.5683 28.6104 37.0819 27.9834 38.6601 27.9834ZM38.6601 30.1474L38.5628 30.156C38.4547 30.1758 38.3552 30.228 38.2775 30.3057C38.1998 30.3834 38.1476 30.4829 38.1278 30.591L38.1192 30.6884V33.3933H35.4121L35.3147 33.403C35.2066 33.4228 35.1071 33.475 35.0294 33.5527C34.9517 33.6304 34.8995 33.7299 34.8797 33.838L34.8711 33.9354L34.8797 34.0327C34.8995 34.1408 34.9517 34.2403 35.0294 34.318C35.1071 34.3957 35.2066 34.4479 35.3147 34.4677L35.4121 34.4763H38.1192V37.1845L38.1278 37.2819C38.1476 37.39 38.1998 37.4895 38.2775 37.5672C38.3552 37.6449 38.4547 37.6971 38.5628 37.7168L38.6601 37.7255L38.7575 37.7168C38.8656 37.6971 38.9651 37.6449 39.0428 37.5672C39.1205 37.4895 39.1727 37.39 39.1925 37.2819L39.2011 37.1845V34.4753H41.9104L42.0077 34.4677C42.1158 34.4479 42.2154 34.3957 42.2931 34.318C42.3708 34.2403 42.423 34.1408 42.4427 34.0327L42.4514 33.9354L42.4427 33.838C42.4229 33.7297 42.3705 33.6301 42.2926 33.5524C42.2147 33.4747 42.115 33.4226 42.0067 33.403L41.9093 33.3944H39.2011V30.6895L39.1925 30.5921C39.1729 30.4838 39.1208 30.384 39.0431 30.3061C38.9654 30.2282 38.8658 30.1759 38.7575 30.156L38.6601 30.1474ZM34.7921 17.7091C35.2163 17.7091 35.6331 17.8199 36.0013 18.0305C36.3695 18.2412 36.6762 18.5444 36.8911 18.9101L37.7718 20.4108H40.0126C40.945 20.4108 41.8393 20.7811 42.4987 21.4403C43.1581 22.0995 43.5287 22.9937 43.529 23.9261V28.8598C43.0466 28.3962 42.5004 28.0039 41.9071 27.6946L41.906 23.9261C41.906 23.4239 41.7066 22.9423 41.3515 22.5872C40.9964 22.2321 40.5148 22.0326 40.0126 22.0326H37.3077C37.1662 22.0327 37.0272 21.9958 36.9044 21.9256C36.7816 21.8554 36.6793 21.7543 36.6076 21.6323L35.4911 19.7313C35.4195 19.6095 35.3173 19.5085 35.1948 19.4383C35.0722 19.3681 34.9334 19.3311 34.7921 19.331H30.6774C30.559 19.3311 30.442 19.3571 30.3347 19.4072C30.2275 19.4572 30.1324 19.5302 30.0563 19.6209L29.986 19.7183L28.8034 21.6453C28.7309 21.7636 28.6293 21.8613 28.5082 21.9291C28.3872 21.9969 28.2508 22.0326 28.112 22.0326H25.4071C25.1584 22.0325 24.9121 22.0814 24.6822 22.1765C24.4524 22.2715 24.2435 22.411 24.0676 22.5868C23.8916 22.7627 23.7521 22.9714 23.6568 23.2012C23.5616 23.431 23.5126 23.6773 23.5126 23.9261V34.2048C23.5126 35.2499 24.3609 36.0982 25.406 36.0982H31.966C32.1532 36.6749 32.4118 37.2202 32.7331 37.7212H25.406C24.4734 37.7212 23.579 37.3507 22.9196 36.6912C22.2601 36.0318 21.8896 35.1374 21.8896 34.2048V23.9261C21.8896 22.9935 22.2601 22.0991 22.9196 21.4396C23.579 20.7802 24.4734 20.4097 25.406 20.4097H27.6565L28.6033 18.869C28.8209 18.5143 29.1259 18.2214 29.489 18.0181C29.8521 17.8149 30.2613 17.7081 30.6774 17.708L34.7921 17.7091ZM32.7093 23.6556C33.7387 23.6552 34.7418 23.9811 35.5744 24.5864C36.407 25.1918 37.0263 26.0455 37.3434 27.0248C36.801 27.1287 36.2841 27.2906 35.7929 27.5106C35.5531 26.7759 35.059 26.1509 34.3994 25.7481C33.7399 25.3453 32.9582 25.1911 32.195 25.3134C31.4319 25.4356 30.7375 25.8262 30.2367 26.4149C29.736 27.0035 29.4617 27.7516 29.4634 28.5244C29.4634 30.0716 30.5454 31.3646 31.9931 31.6914C31.8204 32.2057 31.7078 32.7383 31.6576 33.2786C30.489 33.0166 29.4579 32.3332 28.7613 31.359C28.0647 30.3848 27.7516 29.188 27.8817 27.9974C28.0118 26.8069 28.5761 25.706 29.4667 24.9053C30.3573 24.1045 31.5117 23.66 32.7093 23.6567" fill="white"/>
</g>
<defs>
<filter id="filter0_d_543_32305" x="0.72583" y="0" width="64" height="64" filterUnits="userSpaceOnUse" color-interpolation-filters="sRGB">
<feFlood flood-opacity="0" result="BackgroundImageFix"/>
<feColorMatrix in="SourceAlpha" type="matrix" values="0 0 0 0 0 0 0 0 0 0 0 0 0 0 0 0 0 0 127 0" result="hardAlpha"/>
<feOffset dy="4"/>
<feGaussianBlur stdDeviation="4"/>
<feComposite in2="hardAlpha" operator="out"/>
<feColorMatrix type="matrix" values="0 0 0 0 0 0 0 0 0 0 0 0 0 0 0 0 0 0 0.17 0"/>
<feBlend mode="normal" in2="BackgroundImageFix" result="effect1_dropShadow_543_32305"/>
<feBlend mode="normal" in="SourceGraphic" in2="effect1_dropShadow_543_32305" result="shape"/>
</filter>
</defs>
</svg>
