<svg width="32" height="33" viewBox="0 0 32 33" fill="none" xmlns="http://www.w3.org/2000/svg">
<path d="M9.158 15.9912C9.085 17.3872 9.169 18.8732 7.922 19.8082C7.63531 20.0227 7.40266 20.3012 7.24259 20.6215C7.08253 20.9418 6.99946 21.2951 7 21.6532C7 22.6502 7.782 23.5002 8.8 23.5002H23.2C24.218 23.5002 25 22.6502 25 21.6532C25 20.9272 24.658 20.2432 24.078 19.8082C22.831 18.8732 22.915 17.3872 22.842 15.9912C22.752 14.2372 21.9919 12.5849 20.7186 11.3753C19.4454 10.1657 17.7562 9.49121 16 9.49121C14.2438 9.49121 12.5546 10.1657 11.2814 11.3753C10.0081 12.5849 9.24799 14.2372 9.158 15.9912Z" stroke="#4D4D4D" stroke-width="1.5" stroke-linecap="round" stroke-linejoin="round"/>
<path d="M19 23.5C19 24.2956 18.6839 25.0587 18.1213 25.6213C17.5587 26.1839 16.7956 26.5 16 26.5C15.2044 26.5 14.4413 26.1839 13.8787 25.6213C13.3161 25.0587 13 24.2956 13 23.5M14.5 7.625C14.5 8.453 15.172 9.5 16 9.5C16.828 9.5 17.5 8.453 17.5 7.625C17.5 6.797 16.828 6.5 16 6.5C15.172 6.5 14.5 6.797 14.5 7.625Z" stroke="#4D4D4D" stroke-width="1.5" stroke-linecap="round" stroke-linejoin="round"/>
</svg>
