<svg width="27" height="33" viewBox="0 0 27 33" fill="none" xmlns="http://www.w3.org/2000/svg">
<path d="M7.20013 13.7476C7.13234 13.7282 5.50881 13.247 2.84425 10.9793C0.0906372 8.63583 0.00243111 4.76581 5.40483e-05 4.60226C-0.00189854 4.46931 0.0491232 4.34108 0.141913 4.24582C0.234619 4.15061 0.361495 4.09615 0.494441 4.09467L5.2194 4.03906L5.23112 5.03955L1.03985 5.08892C1.15862 6.14556 1.63131 8.63324 3.49276 10.2174C5.96593 12.3222 7.46263 12.7819 7.47744 12.7862L7.20013 13.7476Z" fill="#FCAB28"/>
<path d="M19.2593 13.7476L18.9844 12.7856C18.9968 12.7819 20.4935 12.3222 22.9667 10.2174C24.828 8.63333 25.3007 6.14599 25.4196 5.08892L21.2283 5.03955L21.24 4.03906L25.965 4.09467C26.0979 4.0962 26.2248 4.15061 26.3175 4.24582C26.4103 4.34112 26.4613 4.46931 26.4594 4.60226C26.457 4.76581 26.3688 8.63583 23.6152 10.9793C20.9506 13.2471 19.3271 13.7283 19.2593 13.7476Z" fill="#FCAB28"/>
<path d="M5.00334 4.09467C5.00334 4.09467 4.39189 3.87233 4.39189 3.26087C4.39189 2.64942 4.28072 2.37147 4.83661 1.81558C5.39246 1.25968 9.59863 0.5 12.9895 0.5C16.3803 0.5 21.0126 1.42646 21.5685 1.92675C22.1244 2.42703 21.902 3.76112 21.7908 3.9835C21.6797 4.20584 21.2349 4.15027 21.2349 4.15027L5.00334 4.09467Z" fill="#FFCF3F"/>
<path d="M12.9517 2.37207C10.8586 2.37207 6.44797 2.65002 4.83594 3.81737C4.83594 3.81737 4.83594 9.82085 6.50357 12.8782C8.17121 15.9355 11.1174 18.4369 11.1174 18.4369H12.6182H13.0629H15.1197C15.1197 18.4369 18.0658 15.9355 19.7334 12.8782C21.4011 9.82085 21.4011 3.81737 21.4011 3.81737C19.6222 2.65002 15.0448 2.37207 12.9517 2.37207Z" fill="#FFD733"/>
<path d="M12.9517 2.37207C10.8586 2.37207 6.44797 2.65002 4.83594 3.81737C4.83594 3.81737 4.83594 9.82085 6.50357 12.8782C7.29361 14.3266 8.37033 15.6497 9.28508 16.6417C9.92501 16.9134 10.6607 17.0845 11.5065 17.1028C16.6206 17.214 17.9547 12.8782 18.5105 11.3217C19.3864 8.86943 19.8847 5.01901 20.0805 3.2321C17.9316 2.55264 14.6369 2.37207 12.9517 2.37207Z" fill="#FFE266"/>
<path d="M18.8446 25.941C18.3443 24.4401 17.2882 24.6625 17.2882 24.6625C17.2882 24.6625 17.2864 24.18 16.5471 24.1108C16.0891 23.9698 14.9086 23.5165 14.5088 22.4945C14.0085 21.216 14.2308 19.604 14.2308 19.604L13.1191 19.459L12.0073 19.604C12.0073 19.604 12.2297 21.2161 11.7294 22.4945C11.3295 23.5165 10.1491 23.9698 9.69111 24.1108C8.9518 24.18 8.95002 24.6625 8.95002 24.6625C8.95002 24.6625 7.89384 24.4401 7.39355 25.941H18.8446Z" fill="#FFCE45"/>
<path d="M8.94922 24.6628C9.64408 24.618 10.3389 24.5879 11.0338 24.5726C11.7286 24.5541 12.4234 24.5492 13.1183 24.5469C13.8132 24.5489 14.508 24.5538 15.2028 24.5723C15.8977 24.5875 16.5925 24.6178 17.2874 24.6628C16.5925 24.708 15.8977 24.7382 15.2028 24.7534C14.508 24.7719 13.8132 24.7768 13.1183 24.7789C12.4234 24.7765 11.7286 24.7716 11.0338 24.7531C10.3389 24.7378 9.64404 24.7077 8.94922 24.6628Z" fill="#FCAB28"/>
<path d="M15.12 19.2146H11.1732C10.9276 19.2146 10.7285 19.0155 10.7285 18.7699C10.7285 18.5243 10.9276 18.3252 11.1732 18.3252H15.12C15.3656 18.3252 15.5647 18.5243 15.5647 18.7699C15.5647 19.0155 15.3656 19.2146 15.12 19.2146Z" fill="#FCAB28"/>
<path d="M14.8976 19.7765H11.3956C11.1776 19.7765 11.001 19.5998 11.001 19.3819C11.001 19.164 11.1776 18.9873 11.3956 18.9873H14.8976C15.1155 18.9873 15.2922 19.164 15.2922 19.3819C15.2922 19.5999 15.1155 19.7765 14.8976 19.7765Z" fill="#FCAB28"/>
<path d="M7.24793 25.8857H19.3789C19.7898 25.8857 20.1229 26.2189 20.1229 26.6298V31.7567C20.1229 32.1676 19.7898 32.5007 19.3789 32.5007H7.24793C6.83699 32.5007 6.50391 32.1676 6.50391 31.7567V26.6298C6.50391 26.2189 6.83703 25.8857 7.24793 25.8857Z" fill="#6C554F"/>
<path d="M9.29385 27.0303H17.3318C17.5222 27.0303 17.6765 27.1846 17.6765 27.3749V30.1765C17.6765 30.3669 17.5222 30.5212 17.3318 30.5212H9.29385C9.10352 30.5212 8.94922 30.3669 8.94922 30.1765V27.3749C8.94922 27.1846 9.10352 27.0303 9.29385 27.0303Z" fill="#FCAB28"/>
<path d="M10.4027 27.0303H13.1673C13.2328 27.0303 13.2859 27.1846 13.2859 27.3749V30.1765C13.2859 30.3669 13.2328 30.5212 13.1673 30.5212H10.4027C10.3372 30.5212 10.2842 30.3669 10.2842 30.1765V27.3749C10.2841 27.1846 10.3372 27.0303 10.4027 27.0303Z" fill="#FFD733"/>
<path d="M11.1172 18.4369C11.4507 18.413 11.7843 18.4017 12.1178 18.3924C12.4513 18.3818 12.7848 18.3803 13.1183 18.3789C13.4518 18.3802 13.7854 18.3818 14.1189 18.3923L14.6192 18.4085C14.786 18.4181 14.9527 18.4237 15.1195 18.4369C14.9527 18.45 14.786 18.4557 14.6192 18.4653L14.1189 18.4815C13.7854 18.492 13.4518 18.4936 13.1183 18.4949C12.7848 18.4934 12.4513 18.4919 12.1178 18.4813C11.7842 18.472 11.4507 18.4608 11.1172 18.4369Z" fill="#FFE266"/>
<path d="M11.1357 19.1029C11.4754 19.079 11.8152 19.0678 12.1549 19.0585C12.4946 19.0478 12.8343 19.0464 13.174 19.0449C13.5137 19.0462 13.8534 19.0478 14.1931 19.0583L14.7027 19.0745C14.8725 19.0841 15.0424 19.0898 15.2122 19.1029C15.0424 19.1161 14.8725 19.1218 14.7027 19.1314L14.1931 19.1476C13.8534 19.1581 13.5137 19.1596 13.174 19.1609C12.8343 19.1595 12.4946 19.158 12.1549 19.1473C11.8152 19.138 11.4754 19.1268 11.1357 19.1029Z" fill="#FFE266"/>
<path d="M12.0459 19.8441C12.4036 19.7985 12.7612 19.788 13.1189 19.7861C13.4766 19.7877 13.8343 19.7982 14.1919 19.8441C13.8343 19.89 13.4766 19.9005 13.1189 19.9021C12.7612 19.9003 12.4036 19.8897 12.0459 19.8441Z" fill="#FFE266"/>
<path d="M7.63379 25.4031C8.5479 25.3583 9.462 25.3282 10.3761 25.3129C11.2902 25.2944 12.2043 25.2894 13.1184 25.2871C14.0325 25.2891 14.9466 25.2941 15.8608 25.3125C16.7749 25.3277 17.689 25.358 18.6031 25.4031C17.6889 25.4482 16.7749 25.4785 15.8608 25.4937C14.9466 25.5122 14.0325 25.5171 13.1184 25.5191C12.2043 25.5168 11.2902 25.5119 10.3761 25.4934C9.46196 25.478 8.54785 25.4479 7.63379 25.4031Z" fill="#FCAB28"/>
<g opacity="0.48">
<path d="M10.1431 0.648438C9.20921 0.739275 8.30389 0.865259 7.51054 1.00869C7.4186 3.75369 7.38935 8.34061 8.06058 10.8764C9.06115 14.6563 10.84 16.5464 10.84 16.5464C10.84 16.5464 9.72821 10.9876 9.83938 6.09586C9.89261 3.75335 10.0223 1.92233 10.1431 0.648438Z" fill="#FFFFFD"/>
</g>
<path d="M21.4011 3.8168C20.7853 3.46436 20.1026 3.26278 19.4171 3.10606C18.7302 2.9488 18.0329 2.83886 17.3329 2.75315C16.6324 2.67119 15.9297 2.60629 15.2254 2.56443C14.5214 2.52058 13.8159 2.49185 13.1113 2.48883C12.4071 2.482 11.7016 2.50615 10.9974 2.54542C10.2928 2.58171 9.58989 2.64453 8.88951 2.72556C8.18976 2.81059 7.49184 2.91662 6.80563 3.07597C6.12133 3.23472 5.43784 3.4403 4.83594 3.8168C5.12416 3.61259 5.43551 3.43372 5.76796 3.30752C5.85035 3.27433 5.93197 3.23837 6.01526 3.20743L6.26769 3.12185C6.43523 3.06141 6.60621 3.01332 6.77749 2.96569C7.46348 2.77841 8.16319 2.64712 8.86591 2.54597C10.2724 2.34608 11.6914 2.2552 13.1127 2.25686C14.5332 2.27295 15.951 2.37223 17.3569 2.57432C18.0594 2.67611 18.7583 2.81122 19.4446 2.99638C19.6169 3.03934 19.7858 3.09592 19.955 3.15017C20.1254 3.20034 20.2908 3.26652 20.4563 3.33087C20.6241 3.38944 20.7822 3.47234 20.9428 3.5476C21.0242 3.58326 21.0998 3.63021 21.1749 3.67758L21.4011 3.8168Z" fill="#FCAB28"/>
<path d="M9.49236 5.03274L10.0114 4.12305L10.4973 5.05091L11.4071 5.57004L10.4792 6.05594L9.96009 6.96567L9.47419 6.03781L8.56445 5.51868L9.49236 5.03274Z" fill="white"/>
<g opacity="0.35">
<path d="M7.82422 32.5007H9.88432L15.0293 25.8857H12.662L7.82422 32.5007Z" fill="white"/>
</g>
<g opacity="0.35">
<path d="M12.91 32.5007L18.0129 25.8857H17.0454L11.8896 32.5007H12.91Z" fill="white"/>
</g>
</svg>
