<svg width="32" height="32" viewBox="0 0 32 32" fill="none" xmlns="http://www.w3.org/2000/svg">
<g clip-path="url(#clip0_757_33758)">
<path d="M32 16.0098C32 7.17327 24.8365 0.00976562 16 0.00976562C7.1635 0.00976562 0 7.17327 0 16.0098C0 23.9958 5.851 30.6151 13.5 31.8154V20.6348H9.4375V16.0098H13.5V12.4848C13.5 8.47477 15.8888 6.25977 19.5435 6.25977C21.294 6.25977 23.125 6.57227 23.125 6.57227V10.5098H21.1075C19.1199 10.5098 18.5 11.7431 18.5 13.0085V16.0098H22.9375L22.2281 20.6348H18.5V31.8154C26.149 30.6151 32 23.9959 32 16.0098Z" fill="#1877F2"/>
<path d="M22.2281 20.6348L22.9375 16.0098H18.5V13.0085C18.5 11.743 19.1199 10.5098 21.1075 10.5098H23.125V6.57227C23.125 6.57227 21.294 6.25977 19.5434 6.25977C15.8888 6.25977 13.5 8.47477 13.5 12.4848V16.0098H9.4375V20.6348H13.5V31.8154C14.327 31.945 15.1629 32.01 16 32.0098C16.8371 32.01 17.673 31.945 18.5 31.8154V20.6348H22.2281Z" fill="white"/>
</g>
<defs>
<clipPath id="clip0_757_33758">
<rect width="32" height="32" fill="white" transform="translate(0 0.00976562)"/>
</clipPath>
</defs>
</svg>
