<svg width="83" height="80" viewBox="0 0 83 80" fill="none" xmlns="http://www.w3.org/2000/svg">
  <path
    d="M41.4199 79.9985C30.2475 79.9985 19.075 79.9985 7.90261 79.9985C3.58217 79.9985 0.844635 77.2637 0.844635 72.9459C0.844635 61.0092 0.844635 49.0697 0.844635 37.1329C0.844635 33.7611 2.46005 31.4844 5.63398 30.4192C5.96736 30.308 6.12728 30.1996 6.10017 29.8175C6.05952 29.2456 6.08933 28.6709 6.08933 28.0963C6.09204 25.2124 7.80775 23.5292 10.7133 23.6187C15.7981 23.7759 20.8368 24.3478 25.8322 25.31C26.2469 25.3913 26.4149 25.4455 26.4745 24.8872C27.2009 18.3604 32.7058 12.8149 39.2678 11.9503C47.437 10.8742 54.6305 15.9509 56.3408 24.0036C56.6336 25.375 56.6308 25.3615 58.0511 25.1094C62.8161 24.2638 67.6162 23.7434 72.4544 23.6133C75.2109 23.5401 76.9673 25.2287 76.8751 28.0015C76.829 29.4217 76.9727 30.2836 78.5718 30.9314C80.9489 31.8936 82.1279 34.0403 82.1333 36.6288C82.1632 48.8935 82.1604 61.1609 82.1388 73.4257C82.1333 77.1742 79.2332 79.9904 75.425 79.9931C64.0927 80.0039 52.7576 79.9985 41.4199 79.9985ZM40.1866 76.586C40.1866 76.231 40.1866 75.9328 40.1866 75.6374C40.1866 68.8911 40.1866 62.1421 40.1839 55.3959C40.1839 54.8809 40.3221 54.2683 40.0891 53.8834C39.8858 53.5473 39.2298 53.8211 38.7799 53.7642C38.0644 53.672 37.5656 53.1326 37.5683 52.4496C37.5738 51.7639 38.0725 51.1784 38.7935 51.1649C40.5959 51.1296 42.3983 51.1296 44.2008 51.1649C44.9191 51.1784 45.4232 51.772 45.4259 52.455C45.4286 53.1353 44.9245 53.6829 44.2089 53.7615C44.0192 53.7831 43.8213 53.7967 43.637 53.7669C42.9675 53.653 42.7859 53.8889 42.7886 54.5827C42.8185 61.657 42.8076 68.7339 42.8076 75.8082C42.8076 76.0467 42.8076 76.2852 42.8076 76.502C43.1031 76.6104 43.2928 76.4478 43.4852 76.3746C52.866 72.8375 62.5721 71.0188 72.5872 70.821C73.7527 70.7966 74.2704 70.2707 74.2704 69.089C74.2758 64.4189 74.2731 59.7461 74.2731 55.076C74.2731 46.0882 74.2731 37.1004 74.2731 28.1126C74.2731 26.7899 73.7608 26.2017 72.5736 26.2397C67.4075 26.4077 62.2848 26.9444 57.2163 27.9716C56.7637 28.0638 56.6119 28.2075 56.5577 28.6845C56.0969 32.7149 54.3378 36.103 51.172 38.6318C49.2693 40.1496 48.2122 41.9467 48.0794 44.3888C47.9493 46.7496 46.0466 48.4734 43.6966 48.5168C42.2493 48.5439 40.8019 48.5439 39.3545 48.5168C36.9639 48.4707 35.0395 46.6005 34.9555 44.2126C34.8796 42.0226 33.996 40.2852 32.2667 38.9435C28.9356 36.3577 27.0058 32.9507 26.4827 28.7739C26.4068 28.1695 26.1791 28.0367 25.6641 27.9391C20.723 26.9823 15.7385 26.4213 10.7106 26.2451C9.18736 26.1909 8.71303 26.6734 8.71303 28.2237C8.71303 41.7461 8.71303 55.2685 8.71303 68.7908C8.71303 70.4035 9.11689 70.7938 10.7486 70.8318C19.0642 71.0215 27.1928 72.3361 35.1181 74.8785C36.7959 75.4124 38.4574 76.0006 40.1866 76.586ZM37.7716 30.1969C39.2949 32.0265 40.7233 33.772 42.1869 35.485C42.6206 35.9918 42.8266 36.5122 42.8185 37.1871C42.7914 39.8623 42.8158 42.5402 42.7995 45.2182C42.7968 45.7006 42.8429 45.9446 43.4364 45.9147C44.6805 45.8551 45.4151 45.2344 45.4801 43.9497C45.6292 40.9492 46.9356 38.6128 49.2883 36.7562C53.7497 33.238 55.2241 27.2209 52.9826 22.0006C50.7492 16.7938 45.3527 13.7039 39.7177 14.5902C34.4541 15.4196 30.9169 18.496 29.4641 23.597C28.0276 28.6493 29.4099 33.1052 33.4241 36.5014C35.8418 38.5451 37.3705 40.8733 37.5087 44.0744C37.5602 45.2453 38.3354 45.8578 39.5036 45.9066C39.9969 45.9256 40.2056 45.8443 40.1975 45.2669C40.1595 42.7544 40.1704 40.2418 40.192 37.7292C40.1948 37.3091 40.0484 37.0164 39.7909 36.7128C37.8936 34.455 36.0153 32.1837 34.1207 29.9259C33.706 29.4326 33.4485 28.9311 33.7656 28.2888C34.0583 27.6952 34.5625 27.5353 35.1859 27.5353C39.3925 27.5434 43.5964 27.5434 47.8029 27.5353C48.467 27.5353 48.9739 27.7413 49.2422 28.3836C49.5051 29.0125 49.2449 29.4976 48.8139 29.9286C47.4072 31.3407 46.0005 32.7556 44.583 34.1569C43.946 34.7857 43.1627 34.8291 42.6179 34.3032C42.0379 33.7422 42.0812 32.9724 42.7534 32.284C43.412 31.6118 44.0869 30.9558 44.8459 30.1996C42.4498 30.1969 40.1975 30.1969 37.7716 30.1969ZM49.1799 77.3748C57.7801 77.3748 66.383 77.3748 74.9832 77.3748C77.9999 77.3748 79.5259 75.8569 79.5259 72.8619C79.5259 60.9821 79.5259 49.1022 79.5259 37.2224C79.5259 36.9486 79.5368 36.6749 79.5151 36.4038C79.3985 34.8182 78.252 33.3627 76.9049 33.1242C76.9049 33.5633 76.9049 33.9997 76.9049 34.4333C76.9049 45.9852 76.9076 57.5371 76.9022 69.089C76.9022 71.5501 75.2732 73.3688 72.9558 73.4338C67.871 73.5802 62.8323 74.1087 57.8397 75.0845C54.9097 75.6564 52.0096 76.3611 49.1799 77.3748ZM6.08933 33.1269C4.46578 33.5741 3.46834 35.0513 3.46834 36.9595C3.46563 48.9748 3.46563 60.9929 3.46834 73.0083C3.46834 75.7865 5.05394 77.3721 7.83214 77.3721C16.2426 77.3748 24.6531 77.3721 33.0636 77.3721C33.3157 77.3721 33.5677 77.3721 33.8198 77.3721C33.6843 77.2067 33.5433 77.1444 33.3997 77.101C25.9568 74.9137 18.3595 73.6886 10.6049 73.4555C7.66409 73.3661 6.08933 71.7832 6.08933 68.8369C6.08933 57.2308 6.08933 45.622 6.08933 34.0159C6.08933 33.7259 6.08933 33.4359 6.08933 33.1269Z"
    fill="#800080" />
  <path
    d="M50.803 11.6902C50.2637 11.7038 49.8408 11.4761 49.605 10.9963C49.3584 10.4949 49.3746 9.95552 49.7731 9.54896C51.028 8.26421 52.2938 6.99031 53.6002 5.75706C54.1233 5.26105 54.8958 5.3532 55.3593 5.86819C55.8417 6.40756 55.9176 7.04723 55.4243 7.56492C54.1694 8.88761 52.8576 10.1534 51.562 11.4327C51.3587 11.636 51.0795 11.6821 50.803 11.6902Z"
    fill="#800080" />
  <path
    d="M40.1864 3.9248C40.1864 3.07915 40.1702 2.2362 40.1918 1.39054C40.2135 0.555728 40.7394 0.00822067 41.482 8.9357e-05C42.2247 -0.00804195 42.7912 0.539465 42.802 1.36073C42.8237 3.07643 42.8237 4.79214 42.802 6.51056C42.7912 7.32911 42.2138 7.87662 41.4712 7.86307C40.7312 7.8468 40.2108 7.29388 40.1918 6.45906C40.1702 5.61612 40.1864 4.77046 40.1864 3.9248Z"
    fill="#800080" />
  <path
    d="M33.459 10.4352C33.4075 10.858 33.2042 11.2483 32.7488 11.4841C32.261 11.7389 31.7487 11.7308 31.3719 11.3676C30.0791 10.1181 28.7997 8.8496 27.5719 7.53504C27.0813 7.01193 27.1735 6.36684 27.6668 5.8356C28.1492 5.3179 28.8919 5.24743 29.4286 5.76242C30.6889 6.96856 31.9005 8.2262 33.1229 9.47029C33.3614 9.71152 33.4725 10.0259 33.459 10.4352Z"
    fill="#800080" />
  <path
    d="M68.8824 59.1772C69.6657 59.1474 70.281 59.5837 70.3406 60.3969C70.3975 61.1992 69.8066 61.7467 68.8011 61.8172C62.1117 62.2806 55.547 63.4326 49.126 65.3814C48.7357 65.5006 48.3454 65.6063 47.9253 65.5819C47.1637 65.5359 46.6324 65.113 46.5674 64.4327C46.4915 63.6657 46.8574 63.167 47.5838 62.9691C49.5543 62.4324 51.522 61.8768 53.5088 61.4052C58.4797 60.2207 63.5239 59.5079 68.8824 59.1772Z"
    fill="#800080" />
  <path
    d="M14.3887 59.0363C21.4331 59.516 28.3257 60.8062 35.0747 62.8688C36.064 63.1724 36.495 63.8825 36.2294 64.7011C35.9854 65.4546 35.2157 65.7852 34.267 65.4898C29.0006 63.8446 23.634 62.6872 18.1535 62.0448C16.8524 61.8931 15.5487 61.7711 14.245 61.6572C13.1717 61.5624 12.5781 61.0393 12.654 60.2126C12.7299 59.4049 13.3587 58.9766 14.3887 59.0363Z"
    fill="#800080" />
  <path
    d="M68.7467 52.4659C69.6926 52.4361 70.3079 52.9213 70.3404 53.7208C70.3702 54.4798 69.8254 55.0245 68.9256 55.0896C62.1034 55.5856 55.4113 56.7755 48.8737 58.8056C48.6406 58.8788 48.394 58.9113 48.1528 58.9547C47.3694 59.0956 46.7433 58.7297 46.578 58.0386C46.41 57.3257 46.765 56.6562 47.4995 56.434C52.0151 55.0652 56.5931 53.9702 61.2631 53.2817C63.7486 52.9104 66.2449 52.6502 68.7467 52.4659Z"
    fill="#800080" />
  <path
    d="M14.5613 46.0586C21.5488 46.5357 28.3872 47.834 35.0847 49.8722C35.99 50.1487 36.4182 50.8426 36.177 51.5798C35.9222 52.3658 35.2283 52.664 34.2363 52.3631C29.9267 51.0648 25.5467 50.0836 21.0934 49.4331C18.879 49.1079 16.6537 48.91 14.4257 48.7203C13.1491 48.6119 12.607 48.1728 12.6504 47.2865C12.6938 46.3893 13.2982 46.0017 14.5613 46.0586Z"
    fill="#800080" />
  <path
    d="M70.3421 47.4436C70.3448 48.1429 69.8677 48.6606 69.041 48.7528C67.6858 48.9073 66.3252 49.0075 64.9673 49.1431C59.5274 49.6879 54.2068 50.8127 48.973 52.382C48.7399 52.4525 48.4959 52.4905 48.2574 52.5501C47.4199 52.7615 46.7829 52.4606 46.5905 51.7532C46.3872 51.016 46.7477 50.3546 47.5419 50.108C50.3255 49.2406 53.1389 48.4871 55.993 47.8963C60.1644 47.0316 64.371 46.4299 68.6263 46.1616C69.659 46.0992 70.3393 46.5898 70.3421 47.4436Z"
    fill="#800080" />
  <path
    d="M14.3697 52.4768C21.3626 52.9457 28.2092 54.2304 34.9148 56.2579C35.8092 56.5289 36.2104 57.1496 35.999 57.8868C35.7713 58.681 35.0937 59.0144 34.183 58.7406C28.4477 57.0141 22.6013 55.8703 16.641 55.2875C15.8252 55.2089 15.0093 55.1493 14.1908 55.0924C13.1852 55.0219 12.597 54.4879 12.654 53.6802C12.7136 52.8644 13.3451 52.4199 14.3697 52.4768Z"
    fill="#800080" />
  <path
    d="M14.2259 36.8567C17.6303 37.125 20.7174 37.4503 23.7748 38.0032C24.6638 38.1631 25.1653 38.7594 25.0541 39.4885C24.9295 40.2881 24.2085 40.7489 23.2625 40.6161C21.6986 40.3992 20.1374 40.1472 18.5708 39.9601C17.0827 39.7812 15.5866 39.6755 14.0986 39.5183C12.8951 39.3909 12.2853 38.3583 12.8626 37.4584C13.2665 36.8269 13.8871 36.816 14.2259 36.8567Z"
    fill="#800080" />
  <path
    d="M14.8006 31.4981C16.0474 31.6255 17.7035 31.7827 19.3568 31.9643C20.1402 32.051 20.6172 32.6148 20.5793 33.3385C20.544 34.0514 19.9884 34.6205 19.2186 34.569C17.3972 34.4417 15.5758 34.2709 13.7598 34.0595C13.0171 33.9728 12.5536 33.2653 12.6621 32.5769C12.784 31.8098 13.3722 31.4358 14.8006 31.4981Z"
    fill="#800080" />
</svg>
