<svg width="33" height="32" viewBox="0 0 33 32" fill="none" xmlns="http://www.w3.org/2000/svg">
<path d="M29.5741 13.3988H28.5001V13.3434H16.5001V18.6768H24.0354C22.9361 21.7814 19.9821 24.0101 16.5001 24.0101C12.0821 24.0101 8.50008 20.4281 8.50008 16.0101C8.50008 11.5921 12.0821 8.01009 16.5001 8.01009C18.5394 8.01009 20.3947 8.77942 21.8074 10.0361L25.5787 6.26476C23.1974 4.04542 20.0121 2.67676 16.5001 2.67676C9.13675 2.67676 3.16675 8.64676 3.16675 16.0101C3.16675 23.3734 9.13675 29.3434 16.5001 29.3434C23.8634 29.3434 29.8334 23.3734 29.8334 16.0101C29.8334 15.1161 29.7414 14.2434 29.5741 13.3988Z" fill="#FFC107"/>
<path d="M4.7041 9.80409L9.08477 13.0168C10.2701 10.0821 13.1408 8.01009 16.5001 8.01009C18.5394 8.01009 20.3948 8.77942 21.8074 10.0361L25.5788 6.26476C23.1974 4.04542 20.0121 2.67676 16.5001 2.67676C11.3788 2.67676 6.93743 5.56809 4.7041 9.80409Z" fill="#FF3D00"/>
<path d="M16.4999 29.3436C19.9439 29.3436 23.0732 28.0256 25.4392 25.8822L21.3125 22.3902C19.9291 23.4429 18.2383 24.0121 16.4999 24.0102C13.0319 24.0102 10.0872 21.7989 8.97788 18.7129L4.62988 22.0629C6.83655 26.3809 11.3179 29.3436 16.4999 29.3436Z" fill="#4CAF50"/>
<path d="M29.574 13.3981H28.5V13.3428H16.5V18.6761H24.0353C23.5095 20.1537 22.5622 21.4449 21.3107 22.3901L21.3127 22.3888L25.4393 25.8808C25.1473 26.1461 29.8333 22.6761 29.8333 16.0094C29.8333 15.1154 29.7413 14.2428 29.574 13.3981Z" fill="#1976D2"/>
</svg>
