<svg width="33" height="32" viewBox="0 0 33 32" fill="none" xmlns="http://www.w3.org/2000/svg">
<path d="M5.83366 15.3333L5.18699 15.4947C4.61009 15.6389 4.09793 15.9718 3.73193 16.4404C3.36593 16.9091 3.16708 17.4867 3.16699 18.0813V20.584C3.16708 21.1787 3.36593 21.7562 3.73193 22.2249C4.09793 22.6936 4.61009 23.0265 5.18699 23.1707L7.50699 23.7507C7.62488 23.78 7.74791 23.7822 7.86674 23.7569C7.98557 23.7316 8.09709 23.6796 8.19282 23.6048C8.28856 23.53 8.36601 23.4344 8.41929 23.3252C8.47257 23.216 8.50028 23.0962 8.50033 22.9747V15.6907C8.50033 15.569 8.4726 15.449 8.41925 15.3397C8.36589 15.2304 8.28831 15.1347 8.19241 15.0599C8.09651 14.9851 7.98481 14.9331 7.86581 14.9079C7.74681 14.8828 7.62364 14.8851 7.50566 14.9147L5.83366 15.3333ZM5.83366 15.3333V14.6667C5.83366 11.8377 6.95747 9.12458 8.95785 7.12419C10.9582 5.12381 13.6713 4 16.5003 4C19.3293 4 22.0424 5.12381 24.0428 7.12419C26.0432 9.12458 27.167 11.8377 27.167 14.6667V15.3333M27.167 15.3333L27.8137 15.4947C28.3906 15.6389 28.9027 15.9718 29.2687 16.4404C29.6347 16.9091 29.8336 17.4867 29.8337 18.0813V20.584C29.8336 21.1787 29.6347 21.7562 29.2687 22.2249C28.9027 22.6936 28.3906 23.0265 27.8137 23.1707L27.167 23.3333M27.167 15.3333L25.4937 14.9147C25.3758 14.8853 25.2527 14.8832 25.1339 14.9085C25.0151 14.9337 24.9036 14.9857 24.8078 15.0605C24.7121 15.1353 24.6346 15.2309 24.5814 15.3401C24.5281 15.4493 24.5004 15.5692 24.5003 15.6907V22.9747C24.5004 23.0962 24.5281 23.216 24.5814 23.3252C24.6346 23.4344 24.7121 23.53 24.8078 23.6048C24.9036 23.6796 25.0151 23.7316 25.1339 23.7569C25.2527 23.7822 25.3758 23.78 25.4937 23.7507L27.167 23.3333M27.167 23.3333V24.6667C27.167 25.3739 26.886 26.0522 26.3859 26.5523C25.8858 27.0524 25.2076 27.3333 24.5003 27.3333H20.5003M20.5003 27.3333C20.5003 26.8029 20.2896 26.2942 19.9145 25.9191C19.5395 25.544 19.0308 25.3333 18.5003 25.3333H14.5003C13.9699 25.3333 13.4612 25.544 13.0861 25.9191C12.711 26.2942 12.5003 26.8029 12.5003 27.3333C12.5003 27.8638 12.711 28.3725 13.0861 28.7475C13.4612 29.1226 13.9699 29.3333 14.5003 29.3333H18.5003C19.0308 29.3333 19.5395 29.1226 19.9145 28.7475C20.2896 28.3725 20.5003 27.8638 20.5003 27.3333Z" stroke="white" stroke-width="1.5"/>
</svg>
