<svg width="32" height="32" viewBox="0 0 32 32" fill="none" xmlns="http://www.w3.org/2000/svg">
<path d="M15 24C15 24.2652 15.1054 24.5196 15.2929 24.7071C15.4804 24.8946 15.7348 25 16 25C16.2652 25 16.5196 24.8946 16.7071 24.7071C16.8946 24.5196 17 24.2652 17 24V20C17 19.7348 16.8946 19.4804 16.7071 19.2929C16.5196 19.1054 16.2652 19 16 19C15.7348 19 15.4804 19.1054 15.2929 19.2929C15.1054 19.4804 15 19.7348 15 20V24Z" fill="white"/>
<path fill-rule="evenodd" clip-rule="evenodd" d="M16.0003 1.66699C15.0563 1.66699 14.199 1.93766 13.267 2.38966C12.3683 2.82699 11.3283 3.47233 10.031 4.27766L7.27499 5.98833C6.04833 6.75099 5.06299 7.36166 4.30566 7.94166C3.52033 8.54166 2.91766 9.15499 2.48166 9.95099C2.04699 10.7443 1.85233 11.5897 1.75766 12.5883C1.66699 13.555 1.66699 14.739 1.66699 16.223V18.3737C1.66699 20.9123 1.66699 22.9163 1.87099 24.483C2.07899 26.0897 2.51899 27.387 3.51099 28.4123C4.50699 29.443 5.77366 29.9043 7.34433 30.1217C8.86433 30.3337 10.8083 30.3337 13.2563 30.3337H18.7443C21.1923 30.3337 23.1363 30.3337 24.6563 30.1217C26.2257 29.9043 27.4937 29.443 28.491 28.4123C29.4817 27.387 29.9217 26.0897 30.131 24.483C30.3337 22.9163 30.3337 20.9123 30.3337 18.3737V16.223C30.3337 14.739 30.3337 13.5563 30.243 12.5883C30.1497 11.5883 29.9537 10.7443 29.519 9.95099C29.083 9.15499 28.479 8.54299 27.695 7.94166C26.9377 7.36032 25.9537 6.75099 24.7257 5.98833L21.9697 4.27766C20.6723 3.47233 19.6323 2.82699 18.7323 2.38966C17.803 1.93633 16.9457 1.66699 16.0003 1.66699ZM11.0403 6.00566C12.3937 5.16566 13.347 4.57633 14.143 4.18833C14.9177 3.81099 15.467 3.66699 16.0003 3.66699C16.5337 3.66699 17.083 3.81099 17.8577 4.18833C18.655 4.57499 19.607 5.16566 20.9603 6.00566L23.627 7.66033C24.9083 8.45633 25.8083 9.01499 26.4803 9.52966C27.1323 10.0297 27.507 10.4417 27.7643 10.911C28.0217 11.3817 28.1723 11.9323 28.251 12.775C28.3323 13.639 28.3337 14.7283 28.3337 16.2723V18.3003C28.3337 20.927 28.331 22.8017 28.147 24.2243C27.9657 25.6217 27.623 26.4323 27.0537 27.023C26.487 27.6083 25.7163 27.9563 24.3817 28.1417C23.0137 28.331 21.2097 28.3337 18.667 28.3337H13.3337C10.7897 28.3337 8.98699 28.331 7.61899 28.1417C6.28433 27.955 5.51366 27.6083 4.94833 27.0217C4.37766 26.4323 4.03499 25.6217 3.85499 24.2243C3.66833 22.8017 3.66699 20.9283 3.66699 18.3003V16.2723C3.66699 14.7283 3.66699 13.639 3.74966 12.775C3.82833 11.9323 3.97899 11.3817 4.23633 10.911C4.49366 10.4417 4.86832 10.0297 5.52166 9.52966C6.19233 9.01499 7.09233 8.45633 8.37366 7.66033L11.0403 6.00566Z" fill="white"/>
</svg>
