<svg width="110" height="122" viewBox="0 0 110 122" fill="none" xmlns="http://www.w3.org/2000/svg">
<path d="M88.0022 39.1029C85.7886 42.0432 85.1916 45.8353 82.7598 48.6319C82.1665 49.3119 82.813 49.8823 82.9836 50.4438C85.1247 57.3754 84.775 64.1137 81.4209 70.6014C79.4873 74.3413 76.4471 77.1996 73.5652 80.1732C71.2947 82.5165 68.9799 84.828 67.3098 87.6665C66.8307 88.4774 66.4057 89.3431 66.1175 90.2346C65.6437 91.6884 65.5355 92.8794 67.5676 93.4503C69.4883 93.9912 69.9004 96.2008 68.4962 97.631C67.8039 98.3333 67.418 98.6592 68.1163 99.7675C69.3921 101.799 68.1104 103.875 65.5438 103.932C64.0558 103.962 63.1879 104.438 62.3884 105.624C60.7969 107.991 58.353 108.813 55.6247 109.038C54.9483 109.092 54.1739 108.831 53.648 109.628C52.4175 111.493 50.775 111.219 49.3322 110.085C47.8091 108.891 46.2167 108.718 44.417 108.899C43.1273 109.027 41.7983 109.087 40.5188 108.939C38.1957 108.67 36.3266 106.854 36.3239 104.617C36.3218 103.154 35.6273 102.693 34.5104 102.386C31.7761 101.636 29.0182 100.957 26.2993 100.155C22.8634 99.1398 20.5841 96.9469 19.3113 93.5122C18.7465 91.9966 16.806 91.7801 15.4545 91.646C12.3344 91.34 10.3601 89.7526 8.98244 87.1305C8.71119 86.6192 8.52414 86.0274 8.13926 85.6228C6.31336 83.71 6.01772 82.4485 7.74561 80.7057C9.02313 79.415 8.81205 78.6808 7.67254 77.6675C7.27383 77.3096 6.51362 76.7746 7.03105 76.2732C7.65312 75.6758 8.1722 76.4471 8.49914 76.9616C9.42825 78.4323 10.4801 78.5801 11.757 77.3983C11.9663 77.2063 12.2411 77.0403 12.5162 76.9693C14.6395 76.428 15.7775 75.4045 14.5953 73.0785C14.4218 72.739 14.324 72.1258 14.9463 72.041C15.4825 71.9696 15.7031 72.5129 15.7383 72.9256C15.8993 74.8834 16.638 75.7231 18.8571 75.5615C20.3441 75.4505 21.8708 76.3853 21.463 78.4965C21.3089 79.2896 21.817 79.8856 22.064 80.5534C23.0264 83.1574 23.2728 85.6286 21.8932 88.2978C19.253 93.4083 21.4232 97.6177 27.1591 99.2583C29.9631 100.06 32.8996 100.327 35.6151 101.459C36.7256 101.924 37.4075 102.585 37.4886 103.86C37.6591 106.463 38.812 107.657 41.4003 107.856C42.4782 107.938 43.5853 107.828 44.6693 107.704C46.3986 107.509 47.9527 107.766 49.4598 108.75C50.2355 109.258 51.1287 110.33 52.4287 109.257C50.9829 108.203 49.2487 107.992 47.9338 106.895C46.7854 105.94 45.6484 104.956 45.2337 103.552C44.7918 102.062 43.9985 101.348 42.5382 100.866C39.4406 99.8479 38.9804 97.7948 41.3109 95.5513C41.9035 94.9801 41.5625 94.8112 41.348 94.4079C39.9951 91.8906 40.7905 90.3322 43.6767 89.9851C44.8074 89.851 44.8226 89.2401 44.7889 88.3344C44.6618 84.895 42.9685 82.0761 41.3079 79.2466C39.4295 76.0456 37.3123 72.9918 35.6008 69.6816C28.929 56.7664 35.8127 40.1159 48.8347 34.9057C52.0409 33.6227 52.7156 31.0671 54.1492 28.7515C54.5648 28.0767 54.6072 27.1348 55.1056 26.55C57.1001 24.1965 55.7543 22.8069 53.8924 21.3544C52.1282 19.9787 50.5322 18.3946 48.8178 16.9533C46.9155 15.3519 47.9597 13.6693 48.6239 12.0113C49.2808 10.3598 50.5036 11.2353 51.5539 11.4348C60.0996 13.0397 68.6437 14.6725 77.1991 16.229C78.1822 16.4065 78.9404 16.7555 79.7041 17.3773C86.7354 23.1356 93.7978 28.8636 100.854 34.5941C101.686 35.2714 102.707 35.7485 101.852 37.1932C101.039 38.569 100.666 40.319 98.5154 40.0333C95.9244 39.6862 93.3414 39.2948 90.7536 38.9157C89.7714 38.7719 89.2023 38.8066 89.2057 40.1701C89.2071 42.9947 88.9399 45.8264 88.7611 48.6505C88.7143 49.4007 88.6976 50.0871 89.3956 50.6115C89.7548 50.8778 89.9794 51.4228 89.7754 51.7925C88.7324 53.6749 89.7601 55.3034 90.3064 56.9968C90.5082 57.6229 90.824 58.2611 90.1961 58.8135C89.6009 59.3314 88.9517 59.4481 88.1779 59.1024C87.5254 58.8096 86.8126 58.6448 86.1129 58.4709C85.3845 58.2856 85.1682 57.8151 85.3962 57.1701C86.0861 55.2328 87.3814 53.4081 86.4378 51.1864C88.6698 47.5795 87.4637 43.4878 88.0787 39.6506C88.0873 39.4737 88.0206 39.2716 88.0022 39.1029ZM48.4857 104.779C49.065 104.91 49.6402 105.039 50.2194 105.17C50.3255 105.416 50.4729 105.404 50.643 105.239C51.5717 105.66 52.876 105.102 53.4991 106.327C53.419 106.827 52.8156 107.342 53.335 107.814C53.6935 108.142 53.8801 107.661 54.0401 107.378C57.0602 108.531 60.726 106.928 61.8143 103.929C56.5006 103.781 51.2636 103.046 46.0029 101.964C46.1165 103.087 46.5969 103.8 47.1331 104.493C47.8281 106.027 49.4578 106.452 50.6398 107.406C50.9589 107.666 51.6459 108.039 51.9123 107.31C52.1224 106.734 51.5953 106.448 51.1133 106.204C50.2263 105.761 49.1034 105.732 48.4857 104.779ZM17.5331 89.9999C20.5055 88.9467 21.7836 87.1294 21.6958 84.0805C21.7129 82.7489 21.3084 81.5581 20.5856 80.44C16.8548 84.0441 14.7735 85.1243 10.0014 85.941C11.0967 89.5235 13.8767 91.0184 17.5331 89.9999ZM64.5772 92.4365C65.0442 89.9976 65.8694 87.7438 67.2978 85.6683C69.8972 81.8895 73.3367 78.8862 76.4111 75.5479C83.2718 68.0959 84.713 59.58 81.5883 50.1214C81.3263 49.3242 81.1179 48.6907 79.9088 48.5326C69.634 47.1939 60.6552 43.1575 53.6657 35.2894C52.9385 34.4686 52.3501 34.695 51.5594 34.9405C39.429 38.7445 31.9127 51.8305 34.7826 64.1732C35.7628 68.3791 38.098 71.9231 40.3383 75.5148C42.4209 78.8587 44.5419 82.1656 45.6754 86.0101C46.0687 87.3483 45.1723 89.2558 46.4881 89.9215C47.7194 90.5489 49.4402 90.2081 50.9497 90.2912C51.093 90.3007 51.2624 90.2447 51.3837 90.2977C52.237 90.6703 52.4859 90.1997 52.7572 89.4818C53.9475 86.3338 54.8143 83.1284 55.1943 79.7625C55.3843 78.0677 55.0038 77.3658 53.2708 76.9376C49.3412 75.9584 46.48 72.3048 46.6521 68.9844C46.7296 67.5487 47.2875 66.4084 48.5606 65.7851C49.8378 65.1635 51.1347 65.3993 52.2836 66.2218C53.2325 66.9029 54.035 67.7253 54.6357 68.7568C55.7639 70.7054 56.1137 72.8569 56.2981 75.0424C56.3736 75.9504 56.4829 76.5587 57.6498 76.5008C58.6906 76.4496 58.8994 76.0438 59.0392 75.06C59.372 72.6721 60.0382 70.3408 61.1469 68.1856C61.8886 66.7387 63.0232 65.6759 64.773 65.9068C66.3908 66.1231 67.3144 67.2736 67.6515 68.8126C67.9771 70.309 67.5719 71.6856 66.603 72.8807C65.1079 74.7304 63.2048 76.0903 61.0165 76.9143C59.9559 77.3136 59.7777 77.893 59.7623 78.8029C59.7318 81.2541 59.6973 83.7036 59.639 86.1533C59.5956 87.8732 58.8317 90.0801 59.6233 91.1686C60.3813 92.2105 62.7331 92.097 64.3832 92.4828C64.4447 92.5072 64.5216 92.4571 64.5772 92.4365ZM86.8418 33.2021C83.8309 30.9034 81.5019 28.4535 78.647 27.1708C76.7101 26.3008 74.7753 25.6878 73.3169 24.0921C72.9854 23.7324 72.1058 23.7242 72.5324 22.8308C72.8529 22.1561 73.3093 21.844 74.0488 21.8107C76.2573 21.7114 77.9324 22.7384 78.7878 24.6211C79.3043 25.7568 79.9929 26.5196 80.9058 27.2197C83.1867 28.967 85.4521 30.7414 87.7575 32.451C88.4383 32.959 89.017 33.6401 89.9697 33.7627C93.1284 34.1743 96.2839 34.6415 99.6376 35.1116C94.1287 30.5853 88.7537 26.2593 83.4832 21.8136C80.2389 19.0756 76.915 16.6808 72.4487 16.4422C70.9474 16.3624 69.4642 15.9149 67.9715 15.6344C62.6087 14.631 57.2499 13.6291 51.4446 12.5447C58.2994 18.4844 64.7858 24.0734 71.2215 29.7183C72.3085 30.6727 73.4569 31.1864 74.8806 31.3778C78.6562 31.897 82.4173 32.5244 86.8418 33.2021ZM49.8905 12.6574C48.6311 14.4157 48.7284 15.603 50.4268 16.8339C52.2795 18.1783 53.8495 19.8992 55.5731 21.4248C60.529 25.8261 65.5012 30.2102 70.6523 34.765C70.8582 33.2569 72.564 32.3216 70.7019 30.7504C63.7087 24.8363 56.8692 18.7508 49.8905 12.6574ZM52.1353 91.8449C50.0202 91.5779 48.2546 91.1842 46.4839 91.1729C44.0852 91.1538 43.2909 92.4943 44.2279 94.6374C44.4854 95.2191 44.4755 95.6139 44.0868 96.2092C42.8841 98.0518 43.164 98.8276 45.1745 99.6557C49.5447 101.46 54.1528 101.76 58.8044 101.712C59.1565 101.71 59.5258 101.652 59.7235 101C56.989 100.548 54.2916 99.8362 51.5716 99.7416C49.1752 99.657 49.6434 97.0477 48.0256 96.4137C47.8535 96.3452 48.2113 95.4813 48.6215 95.4166C50.9048 95.0338 50.1076 94.0191 49.1083 93.0473C49.8985 92.1703 51.0448 92.8682 52.1353 91.8449ZM20.1629 78.6866C20.5145 78.0053 20.5565 77.2674 19.7899 76.8201C18.8609 76.2797 17.6218 76.2568 16.8997 76.7954C16.1367 77.3652 17.3796 77.6175 17.6474 78.0658C17.9983 78.6515 17.5591 78.9799 17.1675 79.332C16.7154 79.7407 16.2469 80.1192 15.628 79.8018C15.0959 79.5285 15.376 79.0988 15.5062 78.676C15.9848 77.1624 15.4861 76.7695 14.0863 77.5084C13.3778 77.8816 12.648 78.2131 11.9731 78.6329C11.5764 78.8785 10.856 78.9954 11.0317 79.6396C11.148 80.075 11.5565 80.4321 12.1683 80.4334C12.5385 80.4335 13.1372 80.4913 12.9984 81.1385C12.8288 81.9349 12.235 82.33 11.4672 82.4944C10.8745 82.6242 10.6182 82.2422 10.6493 81.7942C10.7052 81.0333 10.3965 80.2223 9.74343 80.4799C8.67305 80.9037 7.91095 81.9248 7.71674 83.1291C7.58564 83.936 8.06742 84.4788 8.92279 84.6672C12.1394 85.3628 18.9879 81.76 20.1629 78.6866ZM72.1387 33.9039C71.4336 35.1517 72.089 35.2937 73.0597 35.4188C77.629 36.0069 82.1943 36.6409 86.7539 37.3012C87.714 37.441 88.3085 37.3784 88.3103 36.1925C88.3117 35.2343 88.5322 34.5247 87.0275 34.3581C82.8703 33.8912 78.7357 33.2006 74.619 32.4413C73.1205 32.1633 72.4525 32.7092 72.1387 33.9039ZM52.9755 75.8187C53.5971 75.4252 54.6241 77.1389 55.1462 75.6236C55.9067 73.4011 53.6218 68.3108 51.5657 67.2035C50.736 66.7596 49.8548 66.3379 48.8994 66.9261C47.8876 67.5489 47.7199 68.5311 47.8514 69.5849C48.2218 72.6512 50.2415 74.399 52.9755 75.8187ZM53.711 90.5921C54.7398 90.726 55.7676 90.7077 56.6887 91.0171C57.9966 91.4518 58.2876 91.1737 58.298 89.7871C58.3203 86.1034 58.549 82.4258 58.6606 78.7444C58.676 78.2047 58.9176 77.3942 57.7625 77.6135C57.0748 77.7434 56.4453 77.4646 56.3985 78.6562C56.2353 82.7538 55.0636 86.6543 53.711 90.5921ZM60.0793 75.9056C60.9893 75.9685 61.5402 75.4425 62.1406 75.0785C64.0793 73.9036 65.9876 72.6977 66.4971 70.2234C66.7665 68.9257 66.4172 67.8945 65.1934 67.3318C63.877 66.7275 63.0191 67.345 62.3424 68.5092C61.0112 70.7943 60.523 73.3102 60.0793 75.9056ZM100.114 37.769C100.754 36.8038 100.355 36.3509 99.3114 36.2064C96.5327 35.8178 93.7638 35.381 90.9795 35.0662C90.5159 35.0147 89.4821 34.0577 89.4409 35.5933C89.4125 36.5835 89.0739 37.6734 90.6336 37.8571C93.1992 38.1608 95.7559 38.5465 98.3182 38.8584C99.1537 38.9535 99.9586 38.8749 100.114 37.769ZM56.0441 26.9707C55.5309 29.1919 52.9138 30.6048 53.6328 33.1405C54.2026 35.1565 58.3013 38.3957 60.0723 38.597C58.4535 36.6289 56.1781 35.2256 55.4618 32.4441C56.0838 32.6108 56.5639 32.7401 57.0457 32.8653C55.6162 30.982 57.2556 28.7815 56.0441 26.9707Z" fill="white"/>
<path d="M23.0594 48.8741C22.6101 48.6194 21.7881 48.7529 21.9358 48.0475C22.137 47.0881 22.9245 47.7335 23.3538 47.8236C25.8231 48.3216 28.2705 48.9106 30.7211 49.4914C31.1333 49.5889 31.6618 49.7279 31.5457 50.294C31.407 50.965 30.872 50.8661 30.3599 50.7336C27.9149 50.1029 25.4609 49.4828 23.0594 48.8741Z" fill="white"/>
<path d="M27.4657 75.9813C27.0841 75.5922 27.1204 75.2981 27.6079 74.9557C29.5069 73.6179 31.3788 72.2409 33.2737 70.9014C33.5575 70.7011 33.9534 70.4456 34.2563 70.7939C34.6404 71.2362 34.3266 71.5718 33.9365 71.8485C32.1053 73.1468 30.2701 74.4436 28.4455 75.7492C28.147 75.9628 27.8847 76.2286 27.4657 75.9813Z" fill="white"/>
<path d="M82.5708 85.3118C82.1935 85.8547 81.8209 85.8726 81.4177 85.3231C80.2221 83.6989 79.0094 82.0822 77.8212 80.4515C77.606 80.1571 77.4874 79.8109 77.8046 79.4909C78.0375 79.2513 78.3387 79.186 78.5424 79.4616C79.8734 81.2583 81.1881 83.0722 82.4929 84.8869C82.5668 84.9875 82.5459 85.1595 82.5708 85.3118Z" fill="white"/>
<path d="M93.278 69.2516C90.9535 68.6878 88.714 67.9821 86.6854 66.7339C86.3845 66.5477 85.9976 66.3511 86.131 65.9201C86.28 65.4382 86.6742 65.5808 87.0135 65.7063C89.2893 66.5355 91.4534 67.5624 93.278 69.2516Z" fill="white"/>
<path d="M36.2896 30.8984C37.5134 32.2964 38.8086 33.7656 40.0719 35.2553C40.1622 35.3624 40.1039 35.7237 39.9879 35.8484C39.6651 36.1946 39.256 35.9702 39.0344 35.7397C37.8461 34.4791 36.6872 33.1924 35.552 31.8818C35.3986 31.7068 35.3405 31.3277 35.4121 31.0999C35.5212 30.7779 35.8751 30.8189 36.2896 30.8984Z" fill="white"/>
<path d="M95.1249 46.6013C94.903 47.0636 90.5589 48.1171 90.22 47.7877C90.0083 47.5801 89.8397 47.2283 90.1694 47.0557C91.5839 46.3036 93.1534 46.0687 94.7073 45.8135C95.0528 45.7563 95.1791 46.2384 95.1249 46.6013Z" fill="white"/>
<path d="M52.1354 91.8449C51.0449 92.8682 49.8946 92.1686 49.1076 93.0374C50.107 94.0092 50.9041 95.024 48.6208 95.4068C48.2131 95.4772 47.8512 96.3395 48.0249 96.4038C49.6428 97.0378 49.1745 99.6471 51.5709 99.7317C54.2909 99.8264 56.9867 100.543 59.7229 100.99C59.5251 101.642 59.1559 101.7 58.8037 101.702C54.1521 101.75 49.5424 101.455 45.1739 99.6459C43.1609 98.812 42.8834 98.0419 44.0861 96.1994C44.4748 95.6041 44.4847 95.2093 44.2272 94.6275C43.2862 92.4829 44.0845 91.1439 46.4833 91.163C48.2547 91.1841 50.0203 91.5779 52.1354 91.8449Z" fill="#800080"/>
<path d="M56.0444 26.9707C57.2584 28.7873 55.6165 30.982 57.0419 32.8637C56.5618 32.7344 56.0816 32.6051 55.4581 32.4425C56.1743 35.224 58.4497 36.6273 60.0685 38.5954C58.2959 38.3982 54.1989 35.1549 53.629 33.1389C52.91 30.6032 55.5312 29.1919 56.0444 26.9707Z" fill="#800080"/>
<path d="M50.9122 40.3027C49.6809 40.9283 48.4323 41.5139 47.6124 42.716C46.4863 44.366 46.8999 45.6649 48.8057 46.1239C49.3637 46.2604 50.1103 46.1017 50.1585 46.8755C50.2175 47.7771 49.3207 47.7289 48.7519 47.906C46.8309 48.4994 44.8293 48.8899 43.208 50.2812C45.2502 51.8291 45.3011 51.8921 43.2495 53.4824C40.8821 55.3174 40.167 57.7478 40.3428 60.5753C40.3961 61.4081 40.4869 62.2416 40.3158 63.0896C37.6678 58.2915 36.5564 53.2219 38.9984 48.1085C41.2741 43.3418 45.132 40.3008 50.6271 39.8143C50.7224 39.9804 50.8153 40.1407 50.9122 40.3027Z" fill="white"/>
<path d="M50.6315 39.816C50.9431 39.5697 51.3418 39.4862 51.4883 39.8815C51.5986 40.1769 51.1696 40.2293 50.9142 40.2986C50.8156 40.1408 50.7228 39.9804 50.6315 39.816Z" fill="#800080"/>
<path d="M20.7905 84.2093C20.9307 86.8518 19.6449 88.5094 17.2233 89.383C16.739 89.2284 16.3409 88.7853 16.9285 88.5491C18.9727 87.7294 19.6281 85.7594 20.7905 84.2093Z" fill="white"/>
</svg>
