<svg width="170" height="171" viewBox="0 0 170 171" fill="none" xmlns="http://www.w3.org/2000/svg">
<path d="M169.983 160.842C169.21 162.743 168.719 164.777 167.333 166.391C165.083 169.016 162.196 170.418 158.776 170.435C144.998 170.493 131.22 170.472 117.442 170.46C115.828 170.46 114.759 169.382 114.776 167.935C114.792 166.483 115.845 165.489 117.509 165.484C126.419 165.468 135.326 165.447 144.237 165.505C145.535 165.513 145.884 165.21 145.805 163.887C145.227 154.007 144.719 144.123 144.204 134.238C143.937 129.159 143.642 124.08 143.459 118.996C143.376 116.733 145.439 115.447 147.232 116.517C148.068 117.012 148.401 117.777 148.455 118.73C148.622 121.6 148.821 124.471 148.988 127.341C149.021 127.948 149.013 128.352 149.89 128.235C153.339 127.786 156.796 127.37 160.261 127.087C161.368 126.996 161.484 126.592 161.376 125.677C160.74 120.306 160.137 114.927 159.525 109.553C159.246 107.094 159.101 104.611 158.165 102.273C156.338 97.7174 152.511 95.733 148.127 94.4684C147.706 94.3477 147.27 94.2936 146.804 94.198C146.533 96.9644 146.205 99.6934 145.402 102.352C143.226 109.553 137.448 112.282 130.521 109.349C127.705 108.155 125.134 106.545 122.854 104.523C121.939 103.712 121.39 103.837 120.529 104.548C118.058 106.595 115.395 108.342 112.367 109.499C105.39 112.161 99.9991 109.428 97.9357 102.235C97.1869 99.6226 96.9414 96.9353 96.5712 94.2104C93.4054 94.8428 90.5641 95.9826 88.1221 98.1001C85.0063 100.804 84.4613 104.515 84.0079 108.251C83.3173 113.95 82.7141 119.662 82.0527 125.365C81.9362 126.384 81.8821 127.021 83.3256 127.12C86.7951 127.353 90.2479 127.815 93.6966 128.26C94.72 128.393 94.591 127.794 94.616 127.191C94.7324 124.483 94.8281 121.775 94.9862 119.071C95.1152 116.824 96.8957 115.547 98.647 116.404C99.7827 116.962 100.153 117.998 100.095 119.167C99.6496 127.724 99.1795 136.285 98.7136 144.842C98.3558 151.411 98.0189 157.984 97.6237 164.553C97.5654 165.484 97.9814 165.501 98.672 165.493C100.831 165.468 102.99 165.472 105.145 165.489C107.03 165.501 108.223 166.512 108.19 168.018C108.157 169.474 106.992 170.468 105.224 170.472C84.7484 170.481 64.2768 170.481 43.8011 170.472C42.0414 170.472 40.8766 169.445 40.8724 167.98C40.8683 166.516 42.0248 165.493 43.7928 165.493C52.7577 165.48 61.7225 165.459 70.6874 165.518C72.0145 165.526 72.4263 165.326 72.339 163.849C71.7274 153.582 71.2366 143.307 70.7124 133.036C70.4794 128.506 70.234 123.98 70.026 119.449C69.9303 117.398 70.8247 116.196 72.3972 116.126C73.9281 116.059 74.9473 117.307 75.0305 119.291C75.147 121.941 75.2801 124.595 75.4424 127.245C75.4632 127.616 75.2593 128.219 75.9665 128.252C76.6737 128.285 76.6945 127.769 76.7528 127.249C77.3892 121.6 78.034 115.951 78.6913 110.301C79.1531 106.312 79.2987 102.248 81.3621 98.6326C81.7157 98.0086 81.387 97.7922 80.9752 97.4553C79.1406 95.9576 76.9816 95.1381 74.7476 94.5183C72.5761 93.9151 70.3671 93.4408 68.1914 92.8501C67.2637 92.6005 66.6688 92.8584 66.0947 93.6114C64.0938 96.253 62.0304 98.853 60.0003 101.474C57.2921 104.964 54.6338 105.218 51.3474 102.302C51.2393 102.206 51.0978 102.156 50.7567 101.956C50.7567 105.75 50.7692 109.374 50.7525 112.997C50.7484 114.424 50.3407 115.664 48.7515 116.026C47.0085 116.421 45.7397 115.352 45.6398 113.326C45.5483 111.45 45.6149 109.565 45.6149 107.685C45.6149 105.863 45.6149 104.036 45.6149 102.223C44.9742 102.027 44.8203 102.585 44.5249 102.834C41.9499 105.01 38.9588 104.76 36.8497 102.11C34.6116 99.2982 32.4151 96.461 30.2186 93.6156C29.7485 93.0082 29.3034 92.5797 28.4422 92.8168C26.1085 93.4533 23.7622 94.0482 21.4159 94.6389C15.0261 96.253 11.3903 100.272 10.6789 106.874C9.99664 113.184 9.31024 119.499 8.58223 125.806C8.47823 126.704 8.65295 127.012 9.62224 127.1C13.1416 127.42 16.6527 127.828 20.1596 128.269C21.0166 128.377 21.0623 127.948 21.0956 127.353C21.2537 124.591 21.4159 121.833 21.574 119.071C21.6739 117.282 22.639 116.138 24.0784 116.126C25.5926 116.109 26.6451 117.315 26.5578 119.183C26.2 126.917 25.8048 134.65 25.4013 142.38C25.0227 149.614 24.6441 156.848 24.2073 164.078C24.1366 165.256 24.4611 165.584 25.6301 165.526C27.6186 165.426 29.6112 165.476 31.6039 165.505C33.2554 165.53 34.2996 166.529 34.2913 167.997C34.2871 169.445 33.2138 170.476 31.5789 170.481C24.7731 170.497 17.9631 170.56 11.1615 170.451C4.87148 170.352 0.149833 165.513 0.00839191 159.236C-0.091449 154.905 0.72392 150.654 1.16072 146.373C1.81385 139.946 2.58762 133.535 3.3281 127.116C4.21835 119.387 4.9006 111.62 6.09037 103.937C7.20526 96.7522 11.8603 92.3675 18.6412 90.1752C21.0457 89.3973 23.4918 88.6859 25.9712 88.2283C29.1744 87.6376 31.9575 86.0984 34.857 84.7838C35.4436 84.5176 35.5809 84.1307 35.6433 83.5108C35.9012 80.9566 35.3521 79.2759 32.8228 77.6577C25.1433 72.7488 21.0707 65.4521 20.6006 56.2875C20.5423 55.181 20.2054 54.6818 19.1529 54.3198C15.0344 52.9054 12.58 49.5691 12.6175 45.7127C12.6258 44.8641 12.6882 43.9572 13.1084 43.3082C14.5519 41.0909 14.244 38.6573 14.2066 36.2611C14.1151 30.5577 14.9512 25.054 17.5346 19.8997C22.6348 9.72841 30.7053 3.42595 41.8875 1.12545C42.5365 0.99233 43.3227 1.14209 43.8302 0.509766C46.4885 0.509766 49.1426 0.509766 51.8009 0.509766C51.8716 0.767688 52.0754 0.800968 52.3042 0.821768C55.4118 1.07137 58.3571 1.9325 61.2109 3.15139C70.4212 7.08262 76.8235 13.6596 80.2222 23.1404C82.1275 28.4486 82.2523 33.944 82.2191 39.4727C82.2149 40.3504 82.1733 41.2032 82.6434 42.0394C85.2933 46.7611 82.7765 52.2065 77.7221 54.1077C76.187 54.6859 75.7918 55.4389 75.692 56.9032C75.0846 65.7433 70.9786 72.7363 63.6694 77.5412C61.2192 79.1511 60.4704 80.7444 60.7491 83.3527C60.8281 84.0766 60.9529 84.5134 61.656 84.867C64.8093 86.4561 68.0458 87.7416 71.5153 88.5237C76.0664 89.5512 80.7214 90.4331 84.3947 93.6821C84.9938 94.2104 85.3599 93.8402 85.7967 93.4783C87.5231 92.0639 89.4742 91.0738 91.5916 90.3874C96.8832 88.6693 102.325 87.5419 107.708 86.1732C108.253 86.036 108.86 86.0068 109.255 85.4369C108.681 84.9668 108.115 85.1582 107.599 85.1582C103.448 85.1416 99.3002 85.1665 95.1484 85.1457C91.0674 85.1291 88.326 82.6414 88.0514 78.6103C87.7561 74.2547 87.5813 69.8867 87.3234 65.527C86.9407 59.0706 86.5497 52.6142 86.1337 46.1579C85.6386 38.4035 85.6344 30.6908 88.3343 23.2568C90.3977 17.5784 93.784 13.0772 99.7494 11.0014C100.274 10.8183 100.715 10.5563 101.072 10.082C104.55 5.48101 109.255 2.85187 114.78 1.45409C116.248 1.08385 117.812 1.20865 119.202 0.509766C121.635 0.509766 124.073 0.509766 126.507 0.509766C126.694 1.04641 127.156 0.796808 127.497 0.825929C129.203 0.97153 130.887 1.22113 132.526 1.73698C146.517 6.13414 156.268 18.2523 157.632 32.9497C157.774 34.464 156.967 35.7328 155.685 36.0074C154.221 36.3194 153.094 35.5622 152.661 33.9357C152.536 33.4614 152.474 32.9622 152.411 32.4713C151.613 25.757 149.112 19.804 144.378 14.916C137.252 7.55271 128.554 4.48676 118.399 5.85957C113.032 6.58342 108.323 8.76328 105.02 13.2478C104.08 14.5208 103.032 15.3569 101.534 15.7896C99.1171 16.4843 97.2326 17.9819 95.7517 19.9829C92.0617 24.9708 91.238 30.8198 91.0175 36.7437C90.7263 44.7102 91.7455 52.6433 92.0825 60.5973C92.3238 66.23 92.6982 71.8586 93.0684 77.4829C93.2265 79.875 93.5344 80.0996 95.8973 80.1038C99.217 80.1079 102.537 80.137 105.856 80.0871C106.934 80.0705 108.793 80.5322 108.926 79.8334C109.139 78.7268 107.416 78.4065 106.505 77.7866C99.3168 72.911 95.1526 66.2342 94.279 57.5522C93.734 52.1441 94.1126 46.7195 94.0294 41.3072C93.9795 38.1415 95.656 35.9034 98.7094 35.1296C101.95 34.3059 104.687 32.7209 107.121 30.4496C110.341 27.4377 112.758 27.6457 115.712 30.9404C119.643 35.3293 124.41 38.5075 129.847 40.7706C134.594 42.7466 139.536 43.6743 144.624 44.0196C146.995 44.1818 149.25 45.9374 149.345 48.1547C149.57 53.4379 149.824 58.7461 147.935 63.8713C145.568 70.2944 141.404 75.1741 135.605 78.7309C135.164 79.0013 134.311 79.1345 134.465 79.7377C134.66 80.5073 135.509 80.0788 136.042 80.083C140.135 80.1246 144.229 80.1204 148.326 80.0996C150.19 80.0913 150.643 79.6045 150.743 77.7409C151.205 69.3501 151.663 60.9593 152.145 52.5685C152.295 49.9768 152.47 47.3809 152.744 44.8017C152.881 43.4829 153.805 42.7383 155.115 42.7133C156.521 42.6925 157.408 43.5162 157.632 44.8724C157.765 45.6753 157.653 46.5281 157.603 47.3518C156.983 57.6687 156.318 67.9856 155.739 78.3066C155.506 82.4958 152.881 85.1332 148.63 85.1499C144.316 85.1665 139.998 85.1457 135.684 85.1665C135.247 85.1707 134.685 84.892 134.353 85.5076C134.677 86.0651 135.255 86.0568 135.767 86.1857C140.568 87.3921 145.393 88.5112 150.161 89.8382C158.993 92.2968 163.485 97.8754 164.371 106.99C164.966 113.143 165.732 119.279 166.418 125.423C167.279 133.103 168.099 140.786 169.035 148.457C169.309 150.712 169.243 153.025 170 155.213C169.983 157.081 169.983 158.961 169.983 160.842ZM70.7706 49.386C70.7706 47.8385 70.6666 46.2827 70.7956 44.7434C70.987 42.4429 70.7457 40.4128 68.5367 39.0775C68.0916 38.8071 67.7879 38.2746 67.4676 37.8253C65.8576 35.5664 65.1879 32.9622 64.8135 30.279C64.6803 29.3139 64.3517 29.135 63.4282 29.2723C61.2483 29.5967 59.0476 29.8172 56.8553 30.0294C49.0012 30.7907 41.1761 30.304 33.3844 29.2764C31.8036 29.0684 31.2836 29.6342 31.1962 31.0777C30.9757 34.7843 29.5072 37.896 26.5453 40.1882C25.7507 40.8039 25.5053 41.4487 25.5177 42.4138C25.5677 46.4491 25.5261 50.4843 25.5427 54.5195C25.5885 66.7833 34.362 76.2557 46.5925 77.2625C56.5932 78.0861 66.0448 71.8835 69.4602 62.4735C71.0161 58.1804 70.7082 53.7832 70.7706 49.386ZM99.1504 49.2945C99.2086 49.2945 99.2627 49.2945 99.321 49.2945C99.321 52.2232 98.9341 55.2143 99.3875 58.0764C101.339 70.4025 111.947 78.0695 123.283 77.2541C133.1 76.5469 140.364 70.2195 143.251 61.8495C144.611 57.9016 144.432 53.7998 144.428 49.7147C144.428 48.8161 143.808 48.9784 143.284 48.9617C141.071 48.8744 138.891 48.5374 136.724 48.1048C126.96 46.1537 118.628 41.6276 111.905 34.2435C111.348 33.6278 111.04 33.6819 110.478 34.2269C107.62 37.0182 104.221 38.9069 100.361 39.9012C99.4 40.1508 99.1254 40.5834 99.1379 41.4944C99.1754 44.0945 99.1504 46.6945 99.1504 49.2945ZM48.4312 5.65157C46.2722 5.72229 44.1214 5.80965 42.004 6.2423C39.8366 6.68326 37.7691 7.41127 35.7806 8.3764C24.5693 13.8344 18.6537 24.6213 19.2402 36.5773C19.2569 36.9309 19.1154 37.3968 19.7727 37.3261C22.1689 37.0599 24.2739 36.3901 25.3264 33.8899C25.8505 32.6502 26.1376 31.3939 26.2499 30.0627C26.5827 26.0108 29.8317 23.6021 33.8628 24.2012C43.3185 25.5989 52.8076 25.7487 62.2509 24.2137C66.0615 23.5938 69.8221 25.9068 70.1009 30.1334C70.3962 34.5971 72.0478 36.2861 76.0123 37.1888C77.098 37.4384 77.0523 37.0349 77.0772 36.2653C77.331 27.4377 74.5979 19.7874 68.1248 13.6305C62.6086 8.39304 56.0524 5.68485 48.4312 5.65157ZM93.343 149.385C93.3513 149.385 93.3555 149.385 93.3638 149.385C93.6009 144.422 93.8048 139.455 94.1001 134.496C94.1542 133.585 94.0294 133.306 93.0518 133.227C89.5366 132.936 86.0255 132.566 82.5269 132.104C81.5742 131.979 81.3538 132.113 81.2498 133.074C80.5467 139.596 79.7355 146.103 79.0366 152.626C78.787 154.976 78.3669 157.322 78.6539 159.714C79.0366 162.88 80.8837 164.777 84.0203 165.256C86.5538 165.642 89.0956 165.351 91.6291 165.489C92.4652 165.534 92.6108 165.185 92.6399 164.436C92.8479 159.419 93.1017 154.402 93.343 149.385ZM155.057 165.434C155.057 165.447 155.057 165.459 155.057 165.472C155.997 165.472 156.937 165.489 157.878 165.468C162.682 165.376 165.337 162.273 164.812 157.472C164.284 152.646 163.847 147.813 163.331 142.983C162.974 139.638 162.541 136.302 162.167 132.957C162.088 132.242 161.934 131.954 161.06 132.067C157.67 132.516 154.271 132.945 150.86 133.169C149.504 133.261 149.291 133.71 149.358 134.912C149.849 143.794 150.311 152.676 150.718 161.561C150.897 165.43 150.831 165.434 154.729 165.426C154.837 165.434 154.949 165.434 155.057 165.434ZM14.71 165.468C14.71 165.464 14.71 165.464 14.71 165.459C15.6501 165.459 16.5986 165.372 17.5263 165.48C18.6578 165.613 19.0239 165.247 19.0697 164.091C19.2985 158.791 19.6271 153.499 19.9059 148.204C20.1388 143.79 20.3343 139.376 20.5839 134.962C20.6463 133.856 20.5798 133.248 19.1196 133.178C15.9289 133.024 12.7215 132.737 9.58064 132.167C7.7627 131.838 7.74606 132.724 7.6171 133.935C7.2219 137.662 6.78926 141.389 6.37741 145.117C5.92397 149.227 5.39564 153.333 5.05036 157.455C4.62187 162.572 7.42574 165.493 12.5551 165.468C13.2706 165.468 13.9903 165.468 14.71 165.468ZM129.178 81.4391C126.607 82.0298 124.161 82.45 121.673 82.4542C119.189 82.4583 116.747 82.0257 114.301 81.4558C113.944 83.7188 114.609 85.9736 113.798 88.1077C112.854 90.587 110.437 90.5954 108.39 91.236C114.468 99.5977 128.583 99.6143 135.18 91.0571C128.246 90.9531 129.198 85.9195 129.178 81.4391ZM40.8059 83.4193C40.8516 84.1598 40.5729 84.9544 41.3633 85.6532C43.4309 87.4795 45.4235 89.3931 47.3912 91.3275C48.0277 91.9557 48.4063 91.8725 48.997 91.2901C50.6901 89.6261 52.35 87.9121 54.197 86.427C55.4742 85.3953 55.8195 84.243 55.7446 82.7121C55.6946 81.722 55.6323 81.3767 54.4591 81.6679C50.5029 82.6455 46.4802 82.8036 42.5115 81.7803C40.8184 81.3434 40.4564 81.8676 40.8059 83.4193ZM127.709 101.869C129.735 103.292 131.615 104.432 133.737 105.072C136.994 106.058 138.804 105.122 140.181 101.986C141.292 99.4521 141.387 96.7522 141.645 94.0773C141.687 93.6572 142.103 93.0706 141.387 92.8002C140.776 92.5672 140.385 92.8667 140.006 93.366C136.878 97.4885 132.83 100.305 127.709 101.869ZM115.67 101.882C112.521 100.929 109.842 99.5561 107.454 97.6383C105.894 96.3903 104.504 94.9759 103.315 93.366C103.003 92.9416 102.686 92.6047 102.092 92.7794C101.767 92.8751 101.671 93.0706 101.701 93.3909C102.017 96.565 102.046 99.7932 103.564 102.726C104.816 105.143 106.518 105.879 109.18 105.185C111.506 104.577 113.519 103.367 115.67 101.882ZM55.2911 99.2358C57.5958 96.2863 59.7923 93.4783 62.0179 90.6286C61.111 90.1918 60.2998 89.8466 59.5344 89.4139C58.9686 89.0936 58.5817 89.131 58.0992 89.6011C56.2396 91.4066 54.3468 93.1787 52.4457 94.9426C51.9922 95.3628 51.7509 95.6415 52.3541 96.1948C53.3567 97.1183 54.2594 98.1583 55.2911 99.2358ZM44.5 95.5417C42.7861 93.9359 41.1012 92.3467 39.4081 90.7659C37.482 88.9605 37.4986 89.0021 35.1482 90.2459C34.4202 90.6286 34.4909 90.8783 34.9236 91.4274C36.9454 93.9733 38.938 96.5401 40.9265 99.0902C42.0997 97.9253 43.2312 96.798 44.5 95.5417ZM20.4383 42.5636C18.4374 43.4663 17.5429 44.7351 17.7218 46.2286C17.9049 47.7719 18.9449 48.866 20.4383 49.099C20.4383 46.9732 20.4383 44.8433 20.4383 42.5636ZM76.0456 42.5553C76.0456 44.9015 76.0456 47.0523 76.0456 49.3403C77.6222 48.5707 78.6539 47.5099 78.6289 45.8833C78.604 44.3441 77.6389 43.2874 76.0456 42.5553Z" fill="#EF8114"/>
</svg>
