<svg width="32" height="32" viewBox="0 0 32 32" fill="none" xmlns="http://www.w3.org/2000/svg">
<path d="M11.8398 11.3866C12.2471 10.503 12.9364 9.77984 13.7996 9.3309C14.6627 8.88195 15.6506 8.73269 16.6078 8.90658C17.2632 9.00884 17.8857 9.26249 18.4259 9.6474C18.9662 10.0323 19.4092 10.5379 19.7198 11.1239C19.9431 11.5935 20.0642 12.105 20.0754 12.6247C20.0866 13.1445 19.9875 13.6608 19.7847 14.1395C19.5819 14.6182 19.2799 15.0485 18.8987 15.402C18.5175 15.7556 18.0658 16.0243 17.5732 16.1906C17.0724 16.3829 16.6392 16.7182 16.3276 17.155C16.0161 17.5917 15.84 18.1104 15.8212 18.6466V19.6599" stroke="white" stroke-width="1.5" stroke-miterlimit="10" stroke-linecap="round"/>
<path d="M15.9473 22.8828H15.9585" stroke="white" stroke-width="2" stroke-linecap="round" stroke-linejoin="round"/>
<path d="M20.3337 3.66699H11.667C7.24871 3.66699 3.66699 7.24871 3.66699 11.667V20.3337C3.66699 24.7519 7.24871 28.3337 11.667 28.3337H20.3337C24.7519 28.3337 28.3337 24.7519 28.3337 20.3337V11.667C28.3337 7.24871 24.7519 3.66699 20.3337 3.66699Z" stroke="white" stroke-width="1.5"/>
</svg>
