<svg width="83" height="80" viewBox="0 0 83 80" fill="none" xmlns="http://www.w3.org/2000/svg">
  <path
    d="M0.711365 69.4755C0.711365 68.2529 0.711365 67.0324 0.711365 65.8097C1.00531 65.6244 0.926496 65.29 0.984006 65.0323C1.72951 61.6477 3.58262 59.0384 6.45814 57.1385C7.62965 56.3653 8.92683 55.8668 10.3752 55.4749C10.077 55.2406 9.87256 55.0851 9.67447 54.919C5.96611 51.8305 4.32813 47.8772 5.12688 43.1187C6.04279 37.6552 9.9109 33.9405 15.4276 32.9308C15.9324 32.8393 16.1114 32.6795 16.105 32.1321C16.0752 28.6793 16.0709 25.2266 16.1071 21.7738C16.1135 21.154 15.9005 20.9069 15.3403 20.7173C11.5318 19.4244 7.73189 18.1017 3.93195 16.7768C2.68163 16.3402 2.03197 15.4583 2.05114 14.3124C2.07031 13.1835 2.71997 12.3443 3.92769 11.9246C10.3539 9.69451 16.7823 7.46652 23.2107 5.24065C23.3854 5.18101 23.56 5.10859 23.7411 5.0809C24.3993 4.97866 24.9019 5.20018 25.1192 5.86049C25.3343 6.51866 25.0723 7.00431 24.4823 7.31103C24.2267 7.44522 23.9413 7.52616 23.6665 7.62201C17.515 9.75203 11.3614 11.8778 5.20995 14.0121C4.96287 14.0973 4.63485 14.0823 4.48575 14.4466C8.21541 15.7395 11.9152 17.0132 15.6087 18.3126C16.1625 18.5085 16.0858 18.1485 16.1263 17.8482C16.3329 16.3764 17.2381 15.3944 18.6376 15.1495C23.8455 14.24 29.0895 13.6244 34.372 13.4093C42.809 13.0663 51.1948 13.5839 59.5211 15.0004C60.3283 15.1388 61.1505 15.2475 61.8151 15.8077C62.6117 16.4807 62.912 17.3775 62.9206 18.4617C66.8419 17.1048 70.6759 15.7757 74.5291 14.4423C74.3737 14.0994 74.0968 14.1122 73.8923 14.0397C63.0186 10.2611 52.1363 6.49949 41.2604 2.72085C40.0527 2.30123 38.894 2.30549 37.6905 2.74002C35.2027 3.64101 32.6935 4.49089 30.1929 5.3578C29.1833 5.70713 28.5336 5.50691 28.261 4.76992C27.9798 4.0095 28.3398 3.46635 29.3771 3.10638C31.9523 2.2139 34.536 1.3406 37.1048 0.42682C38.6959 -0.139764 40.2551 -0.139764 41.8505 0.41191C52.8775 4.23529 63.9089 8.04375 74.9381 11.8629C76.4036 12.3698 76.9254 13.1089 76.9297 14.6468C76.9382 17.1709 76.9424 19.6928 76.9212 22.2169C76.9169 22.6748 77.0383 22.8942 77.4899 23.0795C80.4186 24.2745 81.4538 27.625 79.7136 30.2747C79.4687 30.6475 79.475 30.9137 79.6263 31.2801C80.425 33.212 81.2281 35.1439 81.9906 37.0908C82.9768 39.6063 81.4197 41.8961 78.7295 41.9131C77.1618 41.9216 75.5963 41.911 74.0286 41.9152C72.6334 41.9216 71.2042 42.0878 70.1179 40.8566C69.1359 43.5554 69.1786 47.1253 70.1392 49.6579C70.2755 50.0157 70.4502 50.1328 70.8144 50.1797C72.4013 50.3884 73.6409 51.5067 73.9753 53.019C74.1287 53.7155 74.0605 54.4184 73.8731 55.1682C74.1266 55.1682 74.3098 55.1618 74.4908 55.1703C76.6123 55.2683 78.148 56.7061 78.2865 58.7211C78.4164 60.5933 77.0617 62.2249 75.019 62.5934C74.6612 62.6573 74.5419 62.8022 74.4376 63.1068C73.4407 66.076 73.445 69.0367 74.4354 72.0102C74.5632 72.3958 74.7571 72.5427 75.1426 72.6194C77.1597 73.0241 78.4888 74.7217 78.278 76.5855C78.0458 78.6303 76.493 79.9956 74.3651 79.9956C53.9127 79.9978 33.4603 80.0063 13.0079 79.9914C7.23134 79.9871 2.24071 75.8954 0.994656 70.2487C0.939276 69.9888 1.00957 69.6566 0.711365 69.4755ZM43.3926 77.6036C53.5655 77.6036 63.7385 77.6036 73.9114 77.6036C74.1777 77.6036 74.4461 77.6271 74.7081 77.5887C75.3982 77.4844 75.8242 77.0541 75.8774 76.3768C75.9307 75.6994 75.5899 75.1967 74.9062 75.0135C74.6293 74.939 74.3311 74.9305 74.0414 74.9305C71.3852 74.9241 68.7291 74.9326 66.073 74.9241C65.172 74.9198 64.6587 74.4107 64.7247 73.6376C64.7843 72.9517 65.2764 72.547 66.1326 72.5406C67.8856 72.5278 69.6386 72.5193 71.3916 72.547C71.9178 72.5555 72.0818 72.4618 71.9177 71.8995C71.0785 69.0261 71.0828 66.1378 71.9028 63.2644C72.0647 62.6957 71.8943 62.6211 71.3767 62.6232C67.9772 62.6424 64.5777 62.6445 61.1761 62.6211C60.6585 62.6169 60.4987 62.7468 60.5073 63.2772C60.5392 65.1622 60.5243 67.0494 60.5179 68.9345C60.5136 70.3446 59.7809 70.926 58.5519 70.2764C56.5944 69.2433 54.7775 69.2199 52.8136 70.2679C51.5676 70.9324 50.8093 70.3232 50.8029 68.8727C50.7965 67.092 50.771 65.3135 50.8178 63.5349C50.8349 62.8469 50.7007 62.6126 49.936 62.6126C37.8503 62.6403 25.7646 62.6318 13.6789 62.6339C13.4126 62.6339 13.1464 62.6296 12.8823 62.6424C9.67021 62.8064 7.45286 65.9397 8.36664 69.0197C9.01842 71.2115 10.9269 72.5342 13.4595 72.5363C28.8659 72.5385 44.2723 72.5363 59.6766 72.5385C60.8992 72.5385 61.4764 72.9112 61.4999 73.7121C61.5233 74.562 60.9716 74.9305 59.668 74.9305C45.8549 74.9305 32.0439 74.9305 18.2307 74.9305C16.3989 74.9305 14.565 74.9667 12.7332 74.9092C8.35812 74.7729 5.03316 70.549 5.89369 66.2656C6.63281 62.5892 9.58287 60.244 13.4957 60.244C33.603 60.2419 53.7104 60.2419 73.8177 60.2419C74.084 60.2419 74.3502 60.2568 74.6143 60.2355C75.3322 60.1801 75.8732 59.6284 75.8945 58.9511C75.9158 58.31 75.4493 57.737 74.7634 57.6134C74.4525 57.5581 74.1287 57.5687 73.8113 57.5687C53.7828 57.5666 33.7564 57.5666 13.7279 57.5666C13.4616 57.5666 13.1975 57.5666 12.9313 57.5751C7.50398 57.7796 3.19283 62.0545 3.10337 67.3221C3.00539 73.0262 7.47416 77.5973 13.189 77.6015C23.2576 77.6122 33.324 77.6036 43.3926 77.6036ZM70.2393 35.1695C69.9006 35.1695 69.6386 35.1695 69.3745 35.1695C52.164 35.1695 34.9513 35.1695 17.7408 35.1695C17.3958 35.1695 17.0507 35.1737 16.7056 35.1887C10.8183 35.4464 6.30052 41.2379 7.48694 47.0038C8.50083 51.9348 12.4967 55.1661 17.6088 55.1682C35.0067 55.1725 52.4026 55.1703 69.8005 55.1703C69.9858 55.1703 70.1733 55.1767 70.3586 55.1639C71.1595 55.1086 71.66 54.5974 71.6558 53.8455C71.6536 53.1 71.1552 52.5973 70.3458 52.5398C70.0817 52.5206 69.8154 52.5291 69.5492 52.5291C57.5167 52.5291 45.4843 52.5291 33.4539 52.527C33.1366 52.527 32.8107 52.5376 32.504 52.4716C31.8735 52.3374 31.5455 51.9071 31.5753 51.2681C31.6072 50.6313 31.9629 50.2351 32.6126 50.1627C32.9023 50.1307 33.1962 50.1392 33.488 50.1392C44.6429 50.1392 55.7999 50.1328 66.9548 50.1499C67.5959 50.1499 67.7557 50.0583 67.564 49.3724C66.7759 46.5502 66.7887 43.7087 67.5832 40.8843C67.7195 40.3987 67.7259 40.1921 67.1039 40.1921C55.4165 40.2091 43.7313 40.207 32.0439 40.1942C31.5497 40.1942 31.4134 40.3305 31.4198 40.8204C31.4475 42.6799 31.4347 44.5394 31.4283 46.3989C31.424 47.8473 30.6636 48.4544 29.4154 47.7877C27.4516 46.7397 25.6368 46.7632 23.6793 47.7962C22.4524 48.4459 21.7176 47.8601 21.7133 46.4522C21.7069 44.5671 21.7112 42.6799 21.7112 40.7949C21.7112 40.5073 21.7772 40.1878 21.3065 40.2027C19.6877 40.2538 18.0625 40.0728 16.4522 40.3092C13.8621 40.6905 11.9877 43.3296 12.4371 45.9048C12.8844 48.4714 14.8376 50.1137 17.5257 50.1328C20.659 50.1541 23.7943 50.1328 26.9276 50.1414C27.8328 50.1435 28.327 50.5674 28.344 51.2958C28.3611 52.0477 27.835 52.5227 26.9084 52.527C23.7219 52.5376 20.5333 52.5909 17.3468 52.5163C12.1069 52.3907 8.66697 47.4192 10.4413 42.6267C11.5659 39.5871 14.2881 37.8171 17.8622 37.815C34.6744 37.8128 51.4888 37.815 68.301 37.815C68.514 37.815 68.727 37.8064 68.9379 37.8171C69.1551 37.8277 69.285 37.7298 69.3596 37.5317C69.645 36.7649 69.9304 36.0045 70.2393 35.1695ZM39.5245 32.7775C41.4372 32.7775 43.3479 32.7775 45.2606 32.7775C50.0936 32.7775 54.9266 32.7668 59.7596 32.7903C60.3411 32.7924 60.5541 32.6752 60.5137 32.0554C60.4561 31.1565 60.4647 30.2492 60.5115 29.3482C60.5392 28.805 60.4071 28.6282 59.8299 28.6389C57.7595 28.6772 55.687 28.6559 53.6167 28.6538C52.5431 28.6538 51.9808 28.2512 51.9638 27.478C51.9467 26.6643 52.4963 26.2639 53.6422 26.2618C55.7126 26.2596 57.7851 26.2426 59.8555 26.2745C60.3858 26.2831 60.5179 26.1276 60.5115 25.61C60.4838 23.4054 60.4987 21.203 60.4987 18.9984C60.4987 17.5671 60.4945 17.5862 59.1078 17.3583C54.654 16.6213 50.1788 16.1037 45.6675 15.8694C36.8322 15.4093 28.0586 15.9205 19.3426 17.4605C18.6589 17.582 18.4714 17.8866 18.4778 18.517C18.497 20.8281 18.5098 23.137 18.4693 25.4481C18.4586 26.1041 18.629 26.2809 19.2957 26.2788C28.4569 26.2554 37.6181 26.2639 46.7793 26.2639C47.0456 26.2639 47.3118 26.2532 47.5759 26.2724C48.2874 26.3235 48.7347 26.7708 48.7496 27.4269C48.7624 28.068 48.3108 28.5686 47.6313 28.6474C47.3949 28.6751 47.1542 28.658 46.9156 28.658C37.7544 28.658 28.5933 28.6666 19.4321 28.641C18.7036 28.6389 18.382 28.7475 18.4693 29.5612C18.5524 30.3216 18.5332 31.1033 18.4736 31.868C18.4203 32.5751 18.6141 32.803 19.3724 32.7988C26.0884 32.7626 32.8064 32.7775 39.5245 32.7775ZM62.8929 26.8773C62.8929 28.6282 62.9142 30.3791 62.8801 32.13C62.8694 32.6646 63.0377 32.7945 63.5511 32.7903C65.9388 32.7647 68.3244 32.769 70.7122 32.7903C71.1254 32.7945 71.3448 32.6625 71.4641 32.2791C71.5578 31.9766 71.6664 31.6741 71.8155 31.3951C72.0498 30.9585 72.0136 30.6219 71.7239 30.181C70.0583 27.6271 71.1254 24.2617 73.954 23.0966C74.3736 22.924 74.5654 22.7494 74.5526 22.2616C74.5164 20.6982 74.5249 19.1326 74.5462 17.567C74.5526 17.0814 74.4567 16.9919 73.9711 17.1645C70.4566 18.4063 66.9356 19.6289 63.4062 20.8217C62.9397 20.9793 62.8801 21.2136 62.8844 21.629C62.9014 23.3756 62.8929 25.1265 62.8929 26.8773ZM75.7028 39.5232C76.738 39.5232 77.7732 39.5382 78.8083 39.519C79.703 39.5019 80.1247 38.9119 79.8009 38.0812C79.0789 36.2345 78.3121 34.4048 77.5815 32.5602C77.4643 32.2684 77.3578 32.1214 77.0085 32.2258C76.1778 32.475 75.33 32.475 74.4993 32.2279C74.1521 32.1257 74.0329 32.2492 73.9157 32.5389C73.1894 34.3558 72.4396 36.1642 71.7261 37.9854C71.364 38.9098 71.7772 39.5041 72.757 39.5168C73.7389 39.5339 74.7208 39.5232 75.7028 39.5232ZM29.0406 45.1784C29.0406 43.5511 29.0363 42.0963 29.0448 40.6436C29.0469 40.3561 28.9745 40.1963 28.6486 40.1985C27.2705 40.207 25.8903 40.2048 24.5121 40.1985C24.2672 40.1985 24.1032 40.2474 24.1032 40.5414C24.1074 42.0367 24.1053 43.5298 24.1053 45.2487C25.7987 43.9835 27.3983 44.1709 29.0406 45.1784ZM53.1949 67.5606C53.5762 67.4264 53.9213 67.3604 54.2067 67.1943C55.195 66.6213 56.162 66.6383 57.1418 67.1921C57.2782 67.2688 57.44 67.3029 57.5828 67.3689C57.9449 67.5393 58.1472 67.5415 58.1366 67.0281C58.1089 65.7267 58.1174 64.4252 58.1344 63.1238C58.1387 62.7617 58.0663 62.6083 57.6552 62.6169C56.3282 62.6424 54.999 62.6318 53.672 62.6232C53.3611 62.6211 53.18 62.6701 53.1843 63.0493C53.2034 64.5296 53.1949 66.0078 53.1949 67.5606ZM75.7688 25.1329C74.4226 25.1243 73.3534 26.1893 73.3449 27.5504C73.3363 28.9072 74.3992 30.0042 75.7305 30.0149C77.0575 30.0255 78.1544 28.9307 78.1651 27.5866C78.1779 26.2405 77.1022 25.1392 75.7688 25.1329Z"
    fill="#800080" />
</svg>
