<svg width="80" height="100" viewBox="0 0 80 100" fill="none" xmlns="http://www.w3.org/2000/svg">
<path d="M40.1088 99.9966C28.8137 99.9966 17.5158 99.9966 6.22071 99.9966C3.07772 99.9966 0.900542 97.9859 0.889629 94.8347C0.867803 88.6087 0.447644 82.3555 1.04514 76.1677C1.91001 67.2026 6.74181 60.7447 14.8066 56.7669C18.0178 55.1845 21.48 54.5324 25.0541 54.5297C35.1242 54.5215 45.1971 54.5187 55.2672 54.5297C67.0589 54.5406 76.9489 62.7664 79.0988 74.3452C79.3662 75.7858 79.4426 77.2481 79.448 78.7105C79.4644 83.9843 79.4671 89.2581 79.4508 94.5319C79.4399 97.3366 78.0102 99.2409 75.5193 99.8957C75.0118 100.029 74.5071 99.9966 73.9996 99.9966C62.7018 99.9966 51.4067 99.9966 40.1088 99.9966ZM40.1088 97.5139C51.3003 97.5139 62.4917 97.5139 73.6832 97.5139C75.9695 97.5139 76.9135 96.5754 76.9135 94.3245C76.9135 90.4121 76.938 86.5025 76.9053 82.5901C76.8862 80.4184 77.069 78.2385 76.7498 76.0722C75.432 67.1153 70.4774 61.1649 61.9842 58.0928C61.2258 57.82 60.8793 57.9809 60.4782 58.6576C57.1361 64.2806 53.753 69.8818 50.3808 75.4857C49.5623 76.8444 48.853 76.9262 47.7398 75.8131C45.4072 73.4804 43.0608 71.1613 40.7581 68.7986C40.2752 68.3021 40.027 68.3485 39.5713 68.815C37.285 71.1477 34.966 73.4449 32.6524 75.7503C31.4383 76.9617 30.7862 76.8744 29.8914 75.3875C26.5192 69.7835 23.1361 64.1851 19.7885 58.5648C19.4229 57.9537 19.1119 57.8391 18.4325 58.0546C9.55741 60.862 3.43512 69.126 3.4133 78.4104C3.39966 83.6487 3.48151 88.887 3.38056 94.1226C3.32872 96.8264 4.88112 97.5466 6.84549 97.5384C17.9305 97.4921 29.021 97.5139 40.1088 97.5139ZM21.9493 57.2852C22.8442 58.7667 23.6327 60.0708 24.4157 61.3749C26.6502 65.0936 28.8792 68.815 31.1273 72.5282C31.2882 72.7956 31.3483 73.464 31.9349 72.872C34.0629 70.7248 36.2046 68.5913 38.3545 66.4359C35.3616 63.4457 32.4068 60.4855 29.4466 57.5308C29.2611 57.3453 29.1165 57.097 28.7946 57.1052C26.5574 57.1461 24.3147 56.9797 21.9493 57.2852ZM58.3229 57.3616C58.0937 57.2961 57.9382 57.2279 57.7772 57.2116C55.7092 57.0042 53.6329 57.1379 51.5594 57.0997C51.2375 57.0942 51.0847 57.3207 50.8992 57.5089C48.0618 60.3464 45.2298 63.1893 42.3733 66.0076C42.0213 66.3568 42.0241 66.5259 42.3706 66.867C44.3595 68.8204 46.3348 70.7903 48.2882 72.7792C48.7029 73.1993 48.8775 73.1311 49.1504 72.651C49.887 71.355 50.6755 70.0891 51.4421 68.8095C53.7284 65.009 56.012 61.2085 58.3229 57.3616ZM32.6578 57.1215C35.146 59.6125 37.4951 61.9479 39.8223 64.3051C40.2862 64.7744 40.4662 64.3242 40.6981 64.095C42.8398 61.967 44.9761 59.8307 47.1041 57.6863C47.2487 57.5417 47.5325 57.4517 47.437 57.1243C42.5861 57.1215 37.7407 57.1215 32.6578 57.1215Z" fill="#D9D9D9"/>
<path d="M64.6226 18.5679C62.59 19.2827 60.6256 20.003 58.6422 20.655C58.1047 20.8324 58.1183 21.1488 58.1183 21.5663C58.1238 25.0367 58.1292 28.5043 58.1211 31.9747C58.0992 40.697 52.0943 47.9952 43.5302 49.7195C33.5555 51.7275 23.5836 44.5467 22.3995 34.452C21.9194 30.3541 22.2495 26.2316 22.2413 22.1201C22.2386 21.0588 21.873 20.6932 20.9645 20.3795C16.3618 18.797 11.7838 17.1437 7.1866 15.5422C6.27535 15.2257 5.62602 14.7183 5.47323 13.7361C5.30954 12.672 5.91794 11.8399 7.1484 11.4061C13.107 9.29441 19.0656 7.18544 25.0242 5.0792C29.5177 3.49134 34.0193 1.91984 38.5046 0.307423C39.6123 -0.0909072 40.6518 -0.107279 41.765 0.288323C52.1707 3.98516 62.5818 7.65471 72.9902 11.3406C74.3244 11.8126 74.8509 12.4319 74.8591 13.4469C74.8673 14.4727 74.3326 15.1084 73.0257 15.5831C71.2796 16.2161 69.539 16.8627 67.7738 17.4438C67.2581 17.613 67.0726 17.7985 67.1353 18.3605C67.3018 19.8802 67.4082 21.4053 67.5146 22.9304C67.5446 23.3478 67.6701 23.5661 68.0902 23.7462C69.7627 24.4664 70.5457 25.806 70.5566 27.604C70.5703 29.6775 70.5675 31.7537 70.5566 33.8272C70.5512 35.044 70.1146 35.4806 68.9087 35.486C67.3427 35.4942 65.7794 35.4997 64.2133 35.4833C63.2202 35.4751 62.7619 35.0604 62.7482 34.0728C62.721 31.8274 62.7291 29.582 62.751 27.3393C62.7646 25.9124 63.3621 24.7611 64.6144 24.0517C65.0891 23.7844 65.0782 23.4624 65.04 23.0477C64.9036 21.5936 64.7699 20.1394 64.6226 18.5679ZM71.2769 13.5205C71.0695 13.3868 70.9713 13.2914 70.8567 13.2504C60.8876 9.72003 50.9156 6.19508 40.9465 2.66467C40.4145 2.47642 39.9152 2.47914 39.375 2.67012C29.575 6.14324 19.7695 9.59998 9.97218 13.0813C9.70208 13.1768 9.27647 13.1222 9.18644 13.556C19.2211 17.1137 29.2476 20.6605 39.2631 24.2291C39.9152 24.461 40.4854 24.4255 41.1211 24.1991C46.7223 22.1992 52.3289 20.2212 57.9355 18.2378C62.3445 16.6799 66.7561 15.1193 71.2769 13.5205ZM24.735 21.7491C24.735 24.1254 24.735 26.3953 24.735 28.6626C24.735 30.5342 24.6067 32.4194 24.8877 34.2665C26.2437 43.2125 34.6523 48.9774 43.5465 47.1113C50.0371 45.7498 55.139 39.9058 55.4828 33.2461C55.652 29.9558 55.5674 26.6518 55.5783 23.3533C55.581 22.8568 55.6874 22.3438 55.4637 21.7927C51.6632 23.1432 47.8218 24.3491 44.114 25.8715C41.3584 27.0037 38.8648 26.9656 36.1174 25.8251C32.4451 24.3027 28.6282 23.1269 24.735 21.7491ZM65.2665 29.8985C65.2665 30.2722 65.2665 30.6433 65.2665 31.0171C65.2665 33.1506 65.2665 33.1288 67.3836 33.006C67.9047 32.976 67.992 32.7714 67.9893 32.3294C67.9729 30.7033 68.0002 29.0773 67.9729 27.4512C67.9593 26.529 67.43 26.0052 66.6251 26.0161C65.8121 26.027 65.2992 26.5536 65.2719 27.4594C65.2474 28.2724 65.2665 29.0854 65.2665 29.8985Z" fill="#D9D9D9"/>
</svg>
