<svg width="158" height="201" viewBox="0 0 158 201" fill="none" xmlns="http://www.w3.org/2000/svg">
<path d="M78.766 200.503C56.1757 200.503 33.58 200.503 10.9898 200.503C4.70377 200.503 0.349425 196.482 0.327598 190.179C0.283946 177.727 -0.556372 165.221 0.638619 152.845C2.36836 134.915 12.032 121.999 28.1616 114.043C34.584 110.879 41.5084 109.575 48.6565 109.569C68.7968 109.553 88.9425 109.547 109.083 109.569C132.666 109.591 152.446 126.043 156.746 149.2C157.281 152.081 157.434 155.006 157.444 157.931C157.477 168.478 157.483 179.026 157.45 189.573C157.428 195.183 154.569 198.992 149.587 200.301C148.572 200.568 147.563 200.503 146.548 200.503C123.952 200.503 101.362 200.503 78.766 200.503ZM78.766 195.538C101.149 195.538 123.532 195.538 145.915 195.538C150.487 195.538 152.375 193.66 152.375 189.159C152.375 181.334 152.424 173.515 152.359 165.69C152.321 161.347 152.686 156.987 152.048 152.654C149.412 134.74 139.503 122.839 122.517 116.695C121 116.15 120.307 116.472 119.505 117.825C112.821 129.071 106.054 140.273 99.31 151.481C97.673 154.198 96.2543 154.362 94.028 152.136C89.3627 147.471 84.67 142.832 80.0646 138.107C79.0988 137.114 78.6023 137.207 77.691 138.14C73.1184 142.805 68.4803 147.4 63.8531 152.01C61.425 154.433 60.1208 154.258 58.3311 151.285C51.5867 140.077 44.8206 128.88 38.1253 117.639C37.3942 116.417 36.7721 116.188 35.4134 116.619C17.6632 122.234 5.41859 138.762 5.37494 157.331C5.34765 167.807 5.51135 178.284 5.30946 188.755C5.20579 194.162 8.31058 195.603 12.2393 195.587C34.4094 195.494 56.5904 195.538 78.766 195.538ZM42.447 115.08C44.2367 118.043 45.8137 120.651 47.3797 123.26C51.8486 130.697 56.3067 138.14 60.8029 145.566C61.1248 146.101 61.2449 147.438 62.4181 146.254C66.6742 141.959 70.9576 137.692 75.2574 133.382C69.2715 127.401 63.362 121.481 57.4416 115.571C57.0706 115.2 56.7814 114.704 56.1375 114.72C51.6631 114.802 47.1778 114.469 42.447 115.08ZM115.194 115.233C114.736 115.102 114.425 114.966 114.103 114.933C109.967 114.518 105.814 114.786 101.667 114.709C101.023 114.698 100.718 115.151 100.347 115.528C94.6719 121.203 89.008 126.888 83.2949 132.525C82.591 133.223 82.5965 133.562 83.2895 134.244C87.2673 138.151 91.2179 142.09 95.1248 146.068C95.9542 146.908 96.3034 146.772 96.8491 145.812C98.3223 143.22 99.8993 140.688 101.433 138.129C106.005 130.528 110.572 122.927 115.194 115.233ZM63.864 114.753C68.8404 119.735 73.5386 124.406 78.193 129.12C79.1207 130.059 79.4808 129.158 79.9446 128.7C84.228 124.444 88.5005 120.171 92.7566 115.882C93.0458 115.593 93.6133 115.413 93.4223 114.758C83.7205 114.753 74.0297 114.753 63.864 114.753Z" fill="#EF8114"/>
<path d="M127.794 37.6455C123.728 39.0752 119.8 40.5157 115.833 41.8198C114.758 42.1745 114.785 42.8075 114.785 43.6423C114.796 50.5831 114.807 57.5184 114.79 64.4592C114.747 81.9038 102.737 96.5002 85.6087 99.9488C65.6594 103.965 45.7156 89.6031 43.3474 69.4137C42.3871 61.218 43.0473 52.973 43.031 44.75C43.0255 42.6274 42.2943 41.8962 40.4773 41.2687C31.272 38.1039 22.1159 34.7972 12.9215 31.5942C11.099 30.9612 9.80037 29.9463 9.49481 27.9819C9.16741 25.8538 10.3842 24.1896 12.8451 23.322C24.7623 19.0986 36.6795 14.8807 48.5967 10.6682C57.5837 7.49244 66.587 4.34945 75.5576 1.12461C77.773 0.327951 79.852 0.295208 82.0783 1.08641C102.89 8.48008 123.712 15.8192 144.529 23.191C147.197 24.135 148.25 25.3737 148.267 27.4035C148.283 29.4552 147.213 30.7266 144.6 31.676C141.108 32.942 137.626 34.2352 134.096 35.3974C133.065 35.7357 132.694 36.1068 132.819 37.2308C133.152 40.2701 133.365 43.3204 133.577 46.3706C133.638 47.2055 133.889 47.642 134.729 48.0021C138.074 49.4427 139.64 52.1218 139.662 55.7177C139.689 59.8647 139.683 64.0172 139.662 68.1642C139.651 70.5978 138.778 71.4709 136.366 71.4818C133.234 71.4982 130.107 71.5091 126.975 71.4763C124.989 71.46 124.072 70.6305 124.045 68.6553C123.99 64.1645 124.007 59.6737 124.05 55.1884C124.078 52.3346 125.273 50.032 127.777 48.6132C128.727 48.0785 128.705 47.4346 128.628 46.6052C128.356 43.6969 128.088 40.7885 127.794 37.6455ZM141.102 27.5508C140.687 27.2835 140.491 27.0925 140.262 27.0106C120.323 19.9498 100.38 12.8999 80.4413 5.83911C79.3773 5.4626 78.3787 5.46805 77.2983 5.85001C57.6982 12.7962 38.0873 19.7097 18.4927 26.6723C17.9525 26.8633 17.1013 26.7542 16.9212 27.6218C36.9905 34.7372 57.0435 41.8307 77.0746 48.9679C78.3787 49.4318 79.5191 49.3608 80.7905 48.9079C91.9929 44.9082 103.206 40.9522 114.419 36.9853C123.237 33.8696 132.061 30.7484 141.102 27.5508ZM48.0183 44.0079C48.0183 48.7606 48.0183 53.3005 48.0183 57.8349C48.0183 61.5781 47.7618 65.3486 48.3238 69.0427C51.0358 86.9348 67.853 98.4646 85.6414 94.7323C98.6226 92.0095 108.826 80.3215 109.514 67.0019C109.852 60.4213 109.683 53.8134 109.705 47.2164C109.71 46.2233 109.923 45.1974 109.476 44.0952C101.875 46.7962 94.1919 49.208 86.7764 52.2528C81.2652 54.5173 76.2779 54.4409 70.7831 52.16C63.4386 49.1153 55.8048 46.7635 48.0183 44.0079ZM129.081 60.3067C129.081 61.0543 129.081 61.7964 129.081 62.5439C129.081 66.811 129.081 66.7673 133.316 66.5218C134.358 66.4617 134.532 66.0525 134.527 65.1685C134.494 61.9164 134.549 58.6643 134.494 55.4122C134.467 53.5678 133.408 52.5202 131.799 52.542C130.173 52.5638 129.147 53.6169 129.092 55.4285C129.043 57.0546 129.081 58.6806 129.081 60.3067Z" fill="#EF8114"/>
</svg>
