<svg width="36" height="36" viewBox="0 0 36 36" fill="none" xmlns="http://www.w3.org/2000/svg">
  <g clip-path="url(#clip0_1024_60832)">
    <path
      d="M32 5H4C2.93913 5 1.92172 5.42143 1.17157 6.17157C0.421427 6.92172 0 7.93913 0 9L0 27C0 28.0609 0.421427 29.0783 1.17157 29.8284C1.92172 30.5786 2.93913 31 4 31H32C33.0609 31 34.0783 30.5786 34.8284 29.8284C35.5786 29.0783 36 28.0609 36 27V9C36 7.93913 35.5786 6.92172 34.8284 6.17157C34.0783 5.42143 33.0609 5 32 5Z"
      fill="#E70013" />
    <path
      d="M18 24.5C21.5899 24.5 24.5 21.5899 24.5 18C24.5 14.4101 21.5899 11.5 18 11.5C14.4101 11.5 11.5 14.4101 11.5 18C11.5 21.5899 14.4101 24.5 18 24.5Z"
      fill="white" />
    <path
      d="M15.4004 18C15.4005 17.2425 15.6213 16.5014 16.0356 15.8673C16.45 15.2331 17.0401 14.7334 17.7338 14.4291C18.4276 14.1249 19.1949 14.0292 19.9421 14.1538C20.6893 14.2785 21.384 14.618 21.9414 15.131C21.3357 14.299 20.4823 13.6799 19.5033 13.3626C18.5244 13.0452 17.4701 13.0458 16.4915 13.3643C15.5128 13.6827 14.6601 14.3027 14.0554 15.1354C13.4507 15.9681 13.125 16.9709 13.125 18C13.125 19.0291 13.4507 20.0319 14.0554 20.8646C14.6601 21.6973 15.5128 22.3173 16.4915 22.6357C17.4701 22.9542 18.5244 22.9548 19.5033 22.6374C20.4823 22.3201 21.3357 21.701 21.9414 20.869C21.384 21.382 20.6893 21.7215 19.9421 21.8462C19.1949 21.9708 18.4276 21.8751 17.7338 21.5709C17.0401 21.2666 16.45 20.7669 16.0356 20.1327C15.6213 19.4986 15.4005 18.7575 15.4004 18Z"
      fill="#E70013" />
    <path
      d="M19.645 16.9368L18.396 15.2178V17.3428L16.375 17.9998L18.396 18.6568V20.7818L19.645 19.0628L21.666 19.7188L20.417 17.9998L21.666 16.2808L19.645 16.9368Z"
      fill="#E70013" />
  </g>
  <defs>
    <clipPath id="clip0_1024_60832">
      <rect width="36" height="36" fill="white" />
    </clipPath>
  </defs>
</svg>
