<svg width="500" height="376" viewBox="0 0 500 376" fill="none" xmlns="http://www.w3.org/2000/svg">
<path d="M0 36.9583C0 16.8333 16.3333 0.5 36.4583 0.5H463.542C483.667 0.5 500 16.8333 500 36.9583V339.042C500 348.711 496.159 357.984 489.322 364.822C482.484 371.659 473.211 375.5 463.542 375.5H36.4583C26.789 375.5 17.5157 371.659 10.6784 364.822C3.84113 357.984 0 348.711 0 339.042L0 36.9583ZM36.4583 31.75C35.077 31.75 33.7522 32.2987 32.7755 33.2755C31.7987 34.2522 31.25 35.577 31.25 36.9583V339.042C31.25 341.917 33.5833 344.25 36.4583 344.25H463.542C464.923 344.25 466.248 343.701 467.225 342.725C468.201 341.748 468.75 340.423 468.75 339.042V36.9583C468.75 35.577 468.201 34.2522 467.225 33.2755C466.248 32.2987 464.923 31.75 463.542 31.75H36.4583Z" fill="black"/>
<path d="M187.5 262.666V113.333C187.503 111.465 188.009 109.631 188.964 108.025C189.919 106.42 191.288 105.1 192.929 104.206C194.569 103.311 196.42 102.874 198.287 102.94C200.154 103.007 201.969 103.574 203.542 104.583L319.708 179.229C321.179 180.171 322.39 181.468 323.228 183.001C324.066 184.534 324.505 186.253 324.505 188C324.505 189.747 324.066 191.465 323.228 192.998C322.39 194.531 321.179 195.828 319.708 196.77L203.542 271.437C201.969 272.446 200.154 273.013 198.287 273.08C196.42 273.146 194.569 272.709 192.929 271.814C191.288 270.92 189.919 269.6 188.964 267.995C188.009 266.389 187.503 264.555 187.5 262.687V262.666Z" fill="black"/>
</svg>
