<svg width="81" height="25" viewBox="0 0 81 25" fill="none" xmlns="http://www.w3.org/2000/svg">
<path d="M19.4058 19.66C19.3326 20.181 19.1494 20.6979 18.8605 21.1985C18.5715 21.7031 18.2174 22.1631 17.7982 22.5863C17.379 23.0056 16.9069 23.3759 16.3859 23.6934C15.8649 24.0108 15.3236 24.2428 14.762 24.3934C14.5178 24.2428 14.2451 23.9986 13.9357 23.6527C13.6264 23.3067 13.3212 22.9242 13.0118 22.5049C12.7025 22.0857 12.4054 21.6543 12.1164 21.2188C11.8275 20.7793 11.5711 20.3926 11.3472 20.0589C10.8262 19.2367 10.3989 18.5692 10.0733 18.0564C9.74769 17.5436 9.475 17.1447 9.25929 16.868C9.04358 16.5871 8.87264 16.3958 8.7424 16.2941C8.61216 16.1923 8.48192 16.1394 8.35168 16.1394C8.14411 16.1394 8.0098 16.2412 7.94467 16.4488C7.87955 16.6563 7.84699 16.9331 7.84699 17.2872C7.84699 17.568 7.87141 17.9262 7.91618 18.3657C7.96095 18.8053 8.0098 19.2774 8.05457 19.778C8.09934 20.2827 8.14818 20.8077 8.19295 21.3613C8.23772 21.9107 8.26214 22.448 8.26214 22.973C8.26214 23.1968 8.18888 23.4288 8.03829 23.673C7.55395 23.8399 7.01671 23.9905 6.42656 24.1207C5.84048 24.251 5.24625 24.3527 4.64796 24.4301C4.04967 24.5033 3.4758 24.5359 2.92634 24.5277C2.37689 24.5196 1.89663 24.4667 1.48556 24.3731C1.11111 24.1655 0.879124 23.8684 0.785513 23.4777C0.655273 22.916 0.541312 22.2404 0.447702 21.4467C0.354092 20.6531 0.276761 19.8228 0.211641 18.9559C0.146521 18.089 0.0936104 17.2343 0.0569802 16.3918C0.0203501 15.5411 0 14.8045 0 14.1695C0 13.2904 0.0203501 12.2892 0.0569802 11.1577C0.0936104 10.0303 0.150591 8.87852 0.223851 7.7145C0.297111 6.5464 0.402932 5.42715 0.533172 4.35266C0.663413 3.27818 0.814004 2.37056 0.980874 1.62168C1.0175 1.51586 1.06227 1.41818 1.11925 1.33271C1.17624 1.24724 1.24136 1.16991 1.31462 1.09665C1.70534 1.02339 2.20595 0.962338 2.81238 0.913498C3.41881 0.868728 4.04153 0.852448 4.67645 0.872798C5.31137 0.893148 5.90967 0.941989 6.46726 1.02746C7.02892 1.11293 7.43592 1.2391 7.70047 1.40597C7.90397 1.59319 8.0098 1.86181 8.0098 2.21997C8.0098 2.66768 7.9813 3.07875 7.92432 3.45319C7.86734 3.82763 7.81036 4.198 7.75745 4.57244C7.70047 4.94689 7.64349 5.33354 7.59058 5.7324C7.5336 6.13533 7.50511 6.59524 7.50511 7.12028C7.50511 7.38076 7.54581 7.60054 7.63128 7.77962C7.71675 7.9587 7.8592 8.04417 8.06677 8.04417C8.18074 8.04417 8.34761 7.94649 8.57146 7.75113C8.79531 7.55577 9.04765 7.29936 9.32848 6.9819C9.60931 6.66443 9.90235 6.31034 10.2117 5.91962C10.521 5.5289 10.814 5.13411 11.0949 4.74338C11.3553 4.36894 11.6728 3.96601 12.0473 3.52645C12.4217 3.08689 12.8043 2.67582 13.195 2.29323C13.5857 1.91065 13.9683 1.58505 14.3427 1.31236C14.7172 1.04374 15.0224 0.897218 15.2666 0.876867C15.6574 0.990828 16.0847 1.20247 16.5406 1.51993C16.9964 1.83739 17.4319 2.21183 17.843 2.63919C18.254 3.07061 18.6081 3.53459 18.9052 4.03927C19.2023 4.54395 19.3733 5.03643 19.4099 5.52483C19.1861 5.84229 18.889 6.20045 18.5145 6.60338C18.1401 7.00632 17.7412 7.40925 17.3098 7.82032C16.8784 8.23139 16.4429 8.63839 15.9952 9.03725C15.5475 9.44019 15.1283 9.79835 14.7335 10.1158C14.3957 10.3966 14.1311 10.6368 13.9357 10.8443C13.7404 11.0519 13.5939 11.2269 13.5002 11.3775C13.4066 11.5281 13.3497 11.6624 13.3334 11.7845C13.313 11.9066 13.3049 12.0206 13.3049 12.1345C13.3049 12.3421 13.4921 12.6799 13.8665 13.1561C14.241 13.6323 14.7172 14.1614 15.2951 14.7393C15.7062 15.1708 16.1132 15.5737 16.5121 15.9563C16.915 16.3389 17.2894 16.7214 17.6476 17.104C18.0017 17.4866 18.3273 17.8855 18.6285 18.2925C18.9174 18.6954 19.182 19.1553 19.4058 19.66Z" fill="white"/>
<path d="M35.5597 2.21575C36.215 2.01225 36.9761 1.85352 37.8552 1.73956C38.7343 1.6256 39.6134 1.57269 40.5007 1.57269C41.388 1.57269 42.2182 1.63781 42.9915 1.76805C43.7649 1.89829 44.3876 2.10586 44.8515 2.38262C45.226 3.18442 45.458 4.2182 45.5516 5.47584C45.6452 6.73754 45.69 8.12949 45.69 9.65981C45.69 12.403 45.4987 14.7229 45.1161 16.6195C44.7335 18.5162 44.0416 20.0546 43.0445 21.239C42.0473 22.4234 40.6798 23.2822 38.9419 23.8153C37.204 24.3485 34.9858 24.6131 32.2793 24.6131C30.9158 24.6131 29.6419 24.4991 28.4575 24.2752C27.2731 24.0514 26.2068 23.6647 25.2666 23.1153C24.3224 22.5658 23.5124 21.821 22.8287 20.889C22.149 19.957 21.6199 18.7889 21.2454 17.3888C21.0786 16.6969 20.9524 15.948 20.8669 15.134C20.7815 14.32 20.7286 13.4978 20.7001 12.6553C20.6716 11.8169 20.6634 10.9907 20.6716 10.1767C20.6797 9.36271 20.6838 8.60568 20.6838 7.89343C20.6838 6.43636 20.7204 5.15431 20.7977 4.04319C20.871 2.93208 21.1437 1.99597 21.6117 1.23081C22.1531 1.02731 22.8327 0.876718 23.6549 0.783108C24.477 0.689497 25.3317 0.652867 26.2149 0.669148C27.1022 0.689498 27.9691 0.754618 28.8197 0.864508C29.6704 0.978469 30.3826 1.14534 30.9606 1.36919C31.0908 1.68665 31.1559 2.16284 31.1559 2.79777C31.1559 3.43269 31.1559 4.19785 31.1559 5.09326C31.1559 5.83807 31.1519 6.55439 31.1437 7.23409C31.1397 7.92192 31.1356 8.5894 31.1356 9.2406C31.1356 9.89588 31.1315 10.5634 31.1234 11.2431C31.1152 11.9227 31.1112 12.6391 31.1112 13.3839C31.1112 13.738 31.1478 14.0921 31.2251 14.4462C31.2984 14.8002 31.4246 15.1218 31.6036 15.4108C31.7827 15.6997 32.0147 15.9399 32.3037 16.123C32.5927 16.3102 32.9508 16.4038 33.3822 16.4038C33.8869 16.4038 34.2939 16.2899 34.5992 16.066C34.9085 15.8422 35.1486 15.5532 35.3277 15.1991C35.5068 14.845 35.6207 14.438 35.6777 13.9822C35.7347 13.5263 35.7632 13.0624 35.7632 12.5943C35.7632 11.3814 35.7062 10.1034 35.5963 8.76034C35.4824 7.41724 35.4295 6.14739 35.4295 4.95081C35.4295 4.42984 35.4172 3.96586 35.3888 3.56293C35.3481 3.17221 35.4091 2.71637 35.5597 2.21575Z" fill="white"/>
<path d="M48.3559 5.76888C48.0954 5.06069 47.9164 4.23041 47.8227 3.27803C47.7291 2.32564 47.7576 1.43838 47.9082 0.616234C48.4129 0.449364 49.0519 0.310983 49.8252 0.209233C50.5985 0.107482 51.4084 0.0423621 52.2469 0.013872C53.0853 -0.0146181 53.8952 0.00166134 54.6685 0.0545716C55.4418 0.111552 56.0808 0.233654 56.5855 0.416804C56.6425 0.827876 56.671 1.27558 56.671 1.75991C56.671 2.24424 56.6506 2.73264 56.614 3.21698C56.5774 3.70131 56.5163 4.1775 56.4308 4.64555C56.3454 5.11361 56.2599 5.53282 56.1663 5.90726C55.625 6.02122 55.0104 6.09855 54.3185 6.14332C53.6266 6.18809 52.9266 6.20844 52.2184 6.2003C51.5102 6.19216 50.8183 6.14739 50.1467 6.07413C49.4752 6.00494 48.8769 5.89912 48.3559 5.76888ZM48.4129 7.53527C48.6734 7.42131 49.0193 7.33177 49.4508 7.25443C49.8781 7.18117 50.3543 7.12419 50.8793 7.08756C51.4003 7.05093 51.9375 7.02244 52.4911 7.00209C53.0405 6.98174 53.5737 6.98988 54.0865 7.0143C54.5993 7.04279 55.0552 7.08756 55.4581 7.15268C55.861 7.2178 56.1704 7.29921 56.3942 7.38875C56.4675 7.48236 56.5163 7.5841 56.5326 7.69807C56.7768 8.68708 56.9844 9.8104 57.1634 11.0721C57.3425 12.3338 57.489 13.6322 57.6111 14.9793C57.7332 16.3224 57.835 17.6615 57.9205 18.9964C58.0059 20.3314 58.0629 21.5687 58.1036 22.7083C58.1036 23.0258 58.0304 23.2944 57.8798 23.5223C57.4117 23.7665 56.8012 23.9619 56.0442 24.1084C55.2872 24.259 54.4854 24.3526 53.6347 24.3892C52.7841 24.4258 51.9294 24.4136 51.0706 24.3485C50.2118 24.2834 49.4385 24.1572 48.7466 23.97C48.596 23.7828 48.4943 23.6078 48.4373 23.4368C48.2867 22.7286 48.1768 21.5158 48.0995 19.7982C48.0262 18.0807 47.9855 15.9602 47.9855 13.4409C47.9855 12.171 48.01 11.1087 48.0547 10.25C48.0995 9.39119 48.189 8.58126 48.3193 7.81203C48.3274 7.70214 48.3559 7.60853 48.4129 7.53527Z" fill="white"/>
<path d="M79.4345 2.69188C79.7316 3.58729 79.8781 4.49897 79.87 5.42287C79.8619 6.34676 79.6706 7.36833 79.2961 8.48759C78.9787 8.71144 78.649 8.98413 78.303 9.30159C77.9571 9.61905 77.6111 9.93652 77.2652 10.254C76.9192 10.5714 76.5774 10.8889 76.2436 11.2064C75.9058 11.5238 75.5883 11.7924 75.2912 12.0204C74.9371 12.2808 74.5342 12.5902 74.0865 12.9443C73.6388 13.2983 73.1992 13.6647 72.7719 14.035C72.3405 14.4095 71.9498 14.7717 71.5957 15.1258C71.2416 15.4799 70.9811 15.7892 70.8101 16.0497C70.8305 16.1636 70.9119 16.2206 71.0625 16.2328C71.2131 16.241 71.323 16.245 71.4003 16.245C71.9986 16.245 72.601 16.1596 73.2074 15.9927C73.8138 15.8258 74.4162 15.6427 75.0145 15.4473C75.6128 15.252 76.2151 15.0688 76.8216 14.9019C77.428 14.7351 78.0385 14.6496 78.6571 14.6496C78.9176 14.6496 79.1903 14.6944 79.4711 14.788C80.1793 15.834 80.627 16.9492 80.8142 18.1335C81.0015 19.3179 81.0462 20.5267 80.9526 21.7599C80.5416 22.3379 79.9351 22.7978 79.1333 23.1315C78.3315 23.4693 77.4687 23.7176 76.5448 23.8885C75.6209 24.0554 74.697 24.1653 73.7731 24.2101C72.8492 24.2548 72.0596 24.2793 71.4084 24.2793C70.6799 24.2793 69.7845 24.2752 68.7222 24.267C67.66 24.2589 66.5773 24.2019 65.4743 24.1002C64.3714 23.9984 63.3295 23.8356 62.3404 23.6118C61.3514 23.3879 60.5578 23.0501 59.9595 22.6024C59.8292 22.2117 59.7275 21.7843 59.6502 21.3285C59.5769 20.8727 59.5281 20.4127 59.5118 19.9569C59.4914 19.5011 59.5077 19.0615 59.5525 18.6423C59.5972 18.2231 59.6868 17.8446 59.817 17.5068C60.0775 17.1323 60.3828 16.7904 60.7287 16.4689C61.0747 16.1514 61.4369 15.8421 61.8195 15.545C62.2021 15.2479 62.5887 14.9508 62.9794 14.6618C63.3702 14.3728 63.7365 14.0798 64.0702 13.7786C64.3673 13.5344 64.7417 13.2454 65.1894 12.9117C65.6372 12.5739 66.0726 12.2157 66.4919 11.8331C66.9111 11.4506 67.2692 11.0436 67.5704 10.6162C67.8675 10.1889 68.0181 9.76557 68.0181 9.3545C68.0181 8.98006 67.9123 8.73993 67.6966 8.62597C67.4809 8.51201 67.2163 8.4591 66.8989 8.4591C66.0035 8.4591 65.1365 8.51201 64.294 8.61376C63.4556 8.71551 62.5846 8.76842 61.6892 8.76842C61.2782 8.76842 60.8874 8.71144 60.513 8.60155C60.2322 7.77941 60.0449 6.83516 59.9513 5.76068C59.8577 4.68619 59.9147 3.66462 60.1182 2.69595C61.1072 1.87381 62.3811 1.34878 63.94 1.11272C65.4988 0.880726 67.2855 0.762695 69.3002 0.762695C70.5334 0.762695 71.6201 0.783045 72.5603 0.819675C73.5045 0.856305 74.3673 0.941775 75.1488 1.07202C75.9343 1.20226 76.6669 1.39762 77.3466 1.6581C78.0304 1.91451 78.7263 2.26046 79.4345 2.69188Z" fill="white"/>
<path d="M48.3518 5.76888C48.0914 5.06069 47.9123 4.23041 47.8187 3.27803C47.725 2.32564 47.7535 1.43838 47.9041 0.616234C48.4088 0.449364 49.0478 0.310983 49.8211 0.209233C50.5944 0.107482 51.4043 0.0423621 52.2428 0.013872C53.0812 -0.0146181 53.8911 0.00166134 54.6644 0.0545716C55.4377 0.111552 56.0767 0.233654 56.5814 0.416804C56.6384 0.827876 56.6669 1.27558 56.6669 1.75991C56.6669 2.24424 56.6465 2.73264 56.6099 3.21698C56.5733 3.70131 56.5122 4.1775 56.4267 4.64555C56.3413 5.1136 56.2558 5.53282 56.1622 5.90726C55.6209 6.02122 55.0063 6.09855 54.3144 6.14332C53.6225 6.18809 52.9225 6.20844 52.2143 6.2003C51.5061 6.19216 50.8142 6.14739 50.1426 6.07413C49.4711 6.00494 48.8728 5.89912 48.3518 5.76888Z" fill="#F08217"/>
</svg>
