<svg width="99" height="30" viewBox="0 0 99 30" fill="none" xmlns="http://www.w3.org/2000/svg">
<path d="M23.6532 23.9624C23.5639 24.5974 23.3406 25.2274 22.9884 25.8376C22.6362 26.4527 22.2046 27.0133 21.6936 27.5292C21.1827 28.0402 20.6072 28.4916 19.9722 28.8786C19.3372 29.2655 18.6775 29.5483 17.9929 29.7318C17.6952 29.5483 17.3628 29.2506 16.9858 28.829C16.6088 28.4073 16.2367 27.941 15.8597 27.43C15.4827 26.919 15.1206 26.3932 14.7683 25.8624C14.4161 25.3266 14.1036 24.8553 13.8307 24.4486C13.1958 23.4465 12.6749 22.6329 12.278 22.0078C11.8811 21.3828 11.5488 20.8966 11.2858 20.5593C11.0229 20.217 10.8146 19.9838 10.6558 19.8598C10.4971 19.7358 10.3383 19.6713 10.1796 19.6713C9.92659 19.6713 9.76288 19.7953 9.68351 20.0483C9.60413 20.3013 9.56445 20.6387 9.56445 21.0702C9.56445 21.4125 9.59421 21.8491 9.64878 22.3849C9.70335 22.9206 9.76288 23.4961 9.81745 24.1063C9.87202 24.7214 9.93155 25.3614 9.98612 26.036C10.0407 26.7057 10.0704 27.3606 10.0704 28.0005C10.0704 28.2734 9.98116 28.5561 9.7976 28.8538C9.20727 29.0572 8.55244 29.2407 7.83312 29.3995C7.11877 29.5582 6.39449 29.6822 5.66525 29.7765C4.93601 29.8658 4.23653 29.9055 3.56682 29.8955C2.89711 29.8856 2.31174 29.8211 1.8107 29.707C1.3543 29.454 1.07154 29.0919 0.957437 28.6156C0.798691 27.9311 0.659788 27.1076 0.545689 26.1402C0.431591 25.1728 0.337335 24.1608 0.257962 23.1042C0.178589 22.0475 0.114099 21.0058 0.0694514 19.9789C0.0248041 18.9421 0 18.0442 0 17.2703C0 16.1987 0.0248041 14.9784 0.0694514 13.5993C0.114099 12.2251 0.18355 10.8212 0.272845 9.40242C0.362139 7.97866 0.49112 6.61444 0.649866 5.30479C0.808612 3.99513 0.992163 2.88887 1.19556 1.97608C1.2402 1.8471 1.29477 1.72804 1.36422 1.62387C1.43367 1.51969 1.51305 1.42543 1.60234 1.33614C2.07858 1.24684 2.68876 1.17243 3.42792 1.1129C4.16708 1.05833 4.92609 1.03849 5.69997 1.06329C6.47386 1.0881 7.2031 1.14763 7.88273 1.2518C8.56732 1.35598 9.06341 1.50976 9.38586 1.71316C9.6339 1.94136 9.76288 2.26877 9.76288 2.70532C9.76288 3.25101 9.72815 3.75205 9.6587 4.20845C9.58925 4.66484 9.5198 5.11628 9.45531 5.57267C9.38586 6.02907 9.31641 6.50034 9.25191 6.9865C9.18246 7.47762 9.14774 8.03819 9.14774 8.67814C9.14774 8.99563 9.19735 9.26352 9.30152 9.48179C9.4057 9.70007 9.57933 9.80425 9.83233 9.80425C9.97123 9.80425 10.1746 9.68519 10.4475 9.44707C10.7203 9.20895 11.0279 8.89642 11.3702 8.50947C11.7125 8.12253 12.0697 7.69094 12.4467 7.2147C12.8237 6.73846 13.1809 6.25726 13.5232 5.78102C13.8407 5.32463 14.2276 4.83351 14.684 4.29774C15.1404 3.76198 15.6067 3.26093 16.083 2.79462C16.5592 2.3283 17.0255 1.93143 17.4819 1.59906C17.9383 1.27165 18.3104 1.09306 18.608 1.06825C19.0842 1.20716 19.6051 1.46512 20.1607 1.85206C20.7164 2.23901 21.2472 2.6954 21.7482 3.21629C22.2492 3.74213 22.6808 4.30766 23.043 4.9228C23.4051 5.53795 23.6135 6.1382 23.6581 6.7335C23.3853 7.12044 23.0231 7.557 22.5667 8.04812C22.1103 8.53924 21.6242 9.03036 21.0983 9.5314C20.5725 10.0324 20.0417 10.5285 19.496 11.0147C18.9503 11.5058 18.4393 11.9424 17.9581 12.3293C17.5464 12.6716 17.2239 12.9643 16.9858 13.2173C16.7477 13.4703 16.5691 13.6836 16.455 13.8671C16.3409 14.0507 16.2715 14.2144 16.2516 14.3632C16.2268 14.5121 16.2169 14.651 16.2169 14.7899C16.2169 15.0429 16.4451 15.4546 16.9015 16.035C17.3579 16.6154 17.9383 17.2603 18.6427 17.9648C19.1438 18.4906 19.6399 18.9817 20.126 19.4481C20.6171 19.9144 21.0735 20.3807 21.5101 20.847C21.9417 21.3133 22.3385 21.7995 22.7056 22.2956C23.0579 22.7867 23.3803 23.3473 23.6532 23.9624Z" fill="white"/>
<path d="M43.3427 2.70119C44.1414 2.45315 45.069 2.25968 46.1406 2.12078C47.2121 1.98188 48.2837 1.91739 49.3651 1.91739C50.4466 1.91739 51.4586 1.99676 52.4011 2.1555C53.3437 2.31425 54.1027 2.56725 54.6682 2.90459C55.1246 3.88187 55.4074 5.14191 55.5215 6.6748C55.6356 8.21266 55.6901 9.90925 55.6901 11.7745C55.6901 15.1181 55.457 17.9458 54.9907 20.2575C54.5244 22.5692 53.681 24.4444 52.4656 25.888C51.2502 27.3316 49.5834 28.3784 47.4651 29.0282C45.3468 29.6781 42.6432 30.0005 39.3443 30.0005C37.6824 30.0005 36.1297 29.8616 34.6861 29.5888C33.2425 29.316 31.9427 28.8447 30.7968 28.175C29.6459 27.5053 28.6587 26.5974 27.8253 25.4614C26.9968 24.3254 26.3519 22.9016 25.8955 21.1951C25.6921 20.3518 25.5383 19.439 25.4341 18.4468C25.33 17.4547 25.2655 16.4526 25.2308 15.4257C25.196 14.4037 25.1861 13.3967 25.196 12.4045C25.206 11.4124 25.2109 10.4897 25.2109 9.62153C25.2109 7.84556 25.2556 6.2829 25.3498 4.9286C25.4391 3.5743 25.7715 2.43331 26.342 1.50068C27.0018 1.25264 27.8302 1.06909 28.8323 0.954987C29.8344 0.840888 30.8762 0.796242 31.9527 0.816085C33.0341 0.840889 34.0908 0.920262 35.1276 1.0542C36.1644 1.19311 37.0325 1.3965 37.737 1.66935C37.8957 2.05629 37.9751 2.6367 37.9751 3.41059C37.9751 4.18448 37.9751 5.11711 37.9751 6.20849C37.9751 7.11632 37.9701 7.98942 37.9602 8.81787C37.9552 9.65625 37.9503 10.4698 37.9503 11.2636C37.9503 12.0622 37.9453 12.8758 37.9354 13.7043C37.9255 14.5327 37.9205 15.4058 37.9205 16.3137C37.9205 16.7453 37.9652 17.1768 38.0594 17.6084C38.1487 18.04 38.3025 18.4319 38.5208 18.7841C38.739 19.1364 39.0218 19.4291 39.374 19.6523C39.7263 19.8805 40.1628 19.9946 40.6886 19.9946C41.3038 19.9946 41.7999 19.8557 42.1719 19.5828C42.549 19.31 42.8416 18.9578 43.0599 18.5262C43.2782 18.0946 43.4171 17.5985 43.4865 17.0429C43.556 16.4873 43.5907 15.9218 43.5907 15.3513C43.5907 13.8729 43.5213 12.3152 43.3873 10.6782C43.2484 9.04111 43.1839 7.49334 43.1839 6.03486C43.1839 5.39988 43.1691 4.83434 43.1343 4.34322C43.0847 3.86698 43.1591 3.31137 43.3427 2.70119Z" fill="white"/>
<path d="M58.9396 7.0315C58.6221 6.16832 58.4038 5.15631 58.2897 3.99548C58.1756 2.83465 58.2104 1.75319 58.3939 0.751108C59.009 0.547715 59.7879 0.379047 60.7304 0.255027C61.673 0.131007 62.6602 0.0516338 63.6821 0.0169081C64.7041 -0.0178175 65.6913 0.00202495 66.6338 0.0665155C67.5764 0.135967 68.3552 0.284793 68.9704 0.508029C69.0398 1.00907 69.0745 1.55476 69.0745 2.1451C69.0745 2.73543 69.0497 3.33073 69.0051 3.92107C68.9604 4.5114 68.886 5.09182 68.7818 5.66231C68.6777 6.23281 68.5735 6.74377 68.4594 7.20017C67.7996 7.33907 67.0505 7.43332 66.2072 7.48789C65.3639 7.54246 64.5106 7.56726 63.6474 7.55734C62.7842 7.54742 61.9409 7.49285 61.1224 7.40356C60.3038 7.31922 59.5746 7.19024 58.9396 7.0315ZM59.009 9.18449C59.3265 9.04559 59.7482 8.93645 60.2741 8.8422C60.7949 8.7529 61.3754 8.68345 62.0153 8.6388C62.6503 8.59415 63.3051 8.55943 63.9798 8.53462C64.6495 8.50982 65.2994 8.51974 65.9244 8.54951C66.5495 8.58423 67.1051 8.6388 67.5962 8.71817C68.0873 8.79755 68.4644 8.89676 68.7372 9.0059C68.8265 9.12 68.886 9.24402 68.9059 9.38292C69.2035 10.5884 69.4565 11.9576 69.6748 13.4954C69.8931 15.0333 70.0717 16.6158 70.2205 18.2578C70.3693 19.8949 70.4933 21.527 70.5975 23.1541C70.7017 24.7813 70.7711 26.2894 70.8207 27.6784C70.8207 28.0653 70.7315 28.3928 70.5479 28.6706C69.9774 28.9682 69.2333 29.2063 68.3106 29.3849C67.3879 29.5685 66.4106 29.6826 65.3738 29.7272C64.337 29.7719 63.2952 29.757 62.2485 29.6776C61.2017 29.5982 60.2592 29.4445 59.4158 29.2163C59.2323 28.9881 59.1083 28.7747 59.0388 28.5664C58.8553 27.7032 58.7213 26.2249 58.6271 24.1314C58.5378 22.038 58.4882 19.4534 58.4882 16.3826C58.4882 14.8349 58.5179 13.5401 58.5725 12.4934C58.6271 11.4466 58.7362 10.4594 58.8949 9.52183C58.9049 9.38789 58.9396 9.27379 59.009 9.18449Z" fill="white"/>
<path d="M96.8201 3.28111C97.1822 4.37249 97.3608 5.48371 97.3509 6.60982C97.341 7.73592 97.1078 8.98109 96.6514 10.3453C96.2645 10.6182 95.8627 10.9505 95.441 11.3375C95.0193 11.7244 94.5977 12.1114 94.176 12.4983C93.7543 12.8852 93.3376 13.2722 92.9308 13.6591C92.5191 14.0461 92.1321 14.3735 91.77 14.6513C91.3384 14.9688 90.8473 15.3458 90.3016 15.7774C89.7559 16.209 89.2201 16.6555 88.6993 17.1069C88.1734 17.5633 87.6972 18.0048 87.2656 18.4364C86.834 18.868 86.5165 19.245 86.3081 19.5625C86.3329 19.7014 86.4322 19.7709 86.6157 19.7857C86.7993 19.7957 86.9332 19.8006 87.0275 19.8006C87.7567 19.8006 88.4909 19.6964 89.2301 19.493C89.9692 19.2897 90.7034 19.0664 91.4327 18.8283C92.1619 18.5902 92.8961 18.3669 93.6353 18.1636C94.3744 17.9602 95.1185 17.856 95.8726 17.856C96.1901 17.856 96.5225 17.9106 96.8647 18.0247C97.7279 19.2996 98.2736 20.6588 98.5018 22.1024C98.73 23.546 98.7846 25.0194 98.6705 26.5225C98.1694 27.227 97.4303 27.7875 96.453 28.1943C95.4757 28.6061 94.424 28.9087 93.2979 29.117C92.1718 29.3204 91.0457 29.4544 89.9196 29.5089C88.7935 29.5635 87.8311 29.5933 87.0374 29.5933C86.1494 29.5933 85.058 29.5883 83.7632 29.5784C82.4685 29.5685 81.1489 29.499 79.8045 29.375C78.4601 29.251 77.1902 29.0525 75.9847 28.7797C74.7792 28.5068 73.8119 28.0951 73.0826 27.5494C72.9239 27.0732 72.7998 26.5523 72.7056 25.9967C72.6163 25.4411 72.5568 24.8805 72.5369 24.3249C72.5121 23.7693 72.532 23.2335 72.5865 22.7225C72.6411 22.2116 72.7502 21.7502 72.909 21.3385C73.2265 20.8821 73.5985 20.4654 74.0202 20.0735C74.4419 19.6865 74.8834 19.3095 75.3497 18.9474C75.816 18.5852 76.2873 18.2231 76.7635 17.8709C77.2398 17.5186 77.6862 17.1615 78.093 16.7944C78.4552 16.4967 78.9116 16.1445 79.4573 15.7377C80.0029 15.326 80.5338 14.8894 81.0447 14.4231C81.5557 13.9568 81.9922 13.4607 82.3593 12.9398C82.7215 12.4189 82.905 11.903 82.905 11.402C82.905 10.9456 82.776 10.6529 82.5131 10.514C82.2502 10.3751 81.9277 10.3106 81.5408 10.3106C80.4494 10.3106 79.3928 10.3751 78.3659 10.4991C77.344 10.6231 76.2823 10.6876 75.191 10.6876C74.6899 10.6876 74.2137 10.6182 73.7573 10.4842C73.415 9.48213 73.1868 8.33122 73.0727 7.02157C72.9586 5.71191 73.028 4.46675 73.2761 3.28607C74.4816 2.28399 76.0343 1.64404 77.9343 1.35632C79.8343 1.07355 82.0121 0.929688 84.4677 0.929688C85.9708 0.929688 87.2953 0.954491 88.4413 0.999139C89.5922 1.04379 90.6439 1.14796 91.5964 1.30671C92.5538 1.46545 93.4467 1.70357 94.2752 2.02107C95.1086 2.3336 95.9569 2.75527 96.8201 3.28111Z" fill="white"/>
<path d="M58.9347 7.0315C58.6172 6.16832 58.3989 5.15631 58.2848 3.99548C58.1707 2.83465 58.2055 1.75319 58.389 0.751108C59.0042 0.547715 59.783 0.379047 60.7256 0.255027C61.6681 0.131007 62.6553 0.0516338 63.6773 0.0169081C64.6992 -0.0178175 65.6864 0.00202495 66.6289 0.0665155C67.5715 0.135967 68.3503 0.284793 68.9655 0.508029C69.0349 1.00907 69.0697 1.55476 69.0697 2.1451C69.0697 2.73543 69.0448 3.33073 69.0002 3.92107C68.9556 4.5114 68.8811 5.09182 68.777 5.66231C68.6728 6.23281 68.5686 6.74377 68.4545 7.20017C67.7947 7.33907 67.0456 7.43332 66.2023 7.48789C65.359 7.54246 64.5057 7.56726 63.6425 7.55734C62.7793 7.54742 61.936 7.49285 61.1175 7.40356C60.2989 7.31922 59.5697 7.19024 58.9347 7.0315Z" fill="#F08217"/>
</svg>
